<svg width="33" height="33" viewBox="0 0 33 33" fill="none" xmlns="http://www.w3.org/2000/svg">
<rect opacity="0.3" x="5.67505" width="27" height="27" rx="2" fill="url(#paint0_linear)"/>
<rect y="6" width="27" height="27" rx="2" fill="url(#paint1_linear)"/>
<path fill-rule="evenodd" clip-rule="evenodd" d="M11 18.5H21.2373V21.0455H11V18.5Z" fill="white"/>
<path fill-rule="evenodd" clip-rule="evenodd" d="M11 12.0454H21.2373V14.5909H11V12.0454Z" fill="white"/>
<path fill-rule="evenodd" clip-rule="evenodd" d="M5 20C5 19.1716 5.67157 18.5 6.5 18.5C7.32843 18.5 8 19.1716 8 20C8 20.8284 7.32843 21.5 6.5 21.5C5.67157 21.5 5 20.8284 5 20Z" fill="white"/>
<path fill-rule="evenodd" clip-rule="evenodd" d="M5 13.5454C5 12.717 5.67157 12.0454 6.5 12.0454C7.32843 12.0454 8 12.717 8 13.5454C8 14.3738 7.32843 15.0454 6.5 15.0454C5.67157 15.0454 5 14.3738 5 13.5454Z" fill="white"/>
<path fill-rule="evenodd" clip-rule="evenodd" d="M11 24.7273H21.2373V27.2727H11V24.7273Z" fill="white"/>
<path fill-rule="evenodd" clip-rule="evenodd" d="M5 26C5 25.1716 5.67157 24.5 6.5 24.5C7.32843 24.5 8 25.1716 8 26C8 26.8284 7.32843 27.5 6.5 27.5C5.67157 27.5 5 26.8284 5 26Z" fill="white"/>
<defs>
<linearGradient id="paint0_linear" x1="32.675" y1="27" x2="32.675" y2="0" gradientUnits="userSpaceOnUse">
<stop stop-color="#9CE9CA" stop-opacity="0.01"/>
<stop offset="1" stop-color="#00CED9"/>
</linearGradient>
<linearGradient id="paint1_linear" x1="0" y1="33" x2="27" y2="33" gradientUnits="userSpaceOnUse">
<stop stop-color="#9CE9CA"/>
<stop offset="1" stop-color="#00CED9"/>
</linearGradient>
</defs>
</svg>
