<svg width="210" height="279" viewBox="0 0 210 279" fill="none" xmlns="http://www.w3.org/2000/svg">
<path fill-rule="evenodd" clip-rule="evenodd" d="M9.57239 17C9.57239 11.4772 14.0495 7 19.5724 7H194.682C200.204 7 204.682 11.4772 204.682 17V77C204.682 82.5229 200.204 87 194.682 87H19.5724C14.0495 87 9.57239 82.5229 9.57239 77V17Z" fill="url(#paint0_linear)"/>
<path fill-rule="evenodd" clip-rule="evenodd" d="M9.57239 19C9.57239 13.4771 14.0495 9 19.5724 9H194.682C200.204 9 204.682 13.4772 204.682 19V213.872C204.682 219.395 200.204 223.872 194.682 223.872H19.5724C14.0495 223.872 9.57239 219.395 9.57239 213.872V19Z" fill="url(#paint1_linear)"/>
<g filter="url(#filter0_f)">
<path fill-rule="evenodd" clip-rule="evenodd" d="M31.9111 27.8766L41.0523 27.3163H172.927L179.234 28.5449L181.661 30.7542L182.79 59.4785C182.79 59.4785 179.014 61.1355 177.613 61.3342C176.212 61.5328 167.519 63.3235 167.519 63.3235H42.2816C42.2816 63.3235 33.0052 62.5987 30.8735 61.9752C28.7417 61.3516 27.6097 58.7466 27.6097 58.7466V30.7542L31.9111 27.8766Z" fill="url(#paint2_linear)"/>
</g>
<path fill-rule="evenodd" clip-rule="evenodd" d="M27.2332 30.6608C27.2332 27.8993 29.4717 25.6608 32.2332 25.6608H181.18C183.941 25.6608 186.18 27.8993 186.18 30.6608V50.8738C186.18 53.6352 183.941 55.8737 181.18 55.8737H32.2332C29.4717 55.8737 27.2332 53.6352 27.2332 50.8737V30.6608Z" fill="white"/>
<path fill-rule="evenodd" clip-rule="evenodd" d="M27.2332 31.6608C27.2332 28.8993 29.4717 26.6608 32.2332 26.6608H181.18C183.941 26.6608 186.18 28.8993 186.18 31.6608V51.8738C186.18 54.6352 183.941 56.8737 181.18 56.8737H32.2332C29.4717 56.8737 27.2332 54.6352 27.2332 51.8737V31.6608Z" fill="url(#paint3_linear)"/>
<path fill-rule="evenodd" clip-rule="evenodd" d="M39.848 37.0706C39.848 35.966 40.7435 35.0706 41.848 35.0706H50.568C51.6726 35.0706 52.568 35.966 52.568 37.0706V46.5264C52.568 47.631 51.6726 48.5264 50.568 48.5264H41.848C40.7435 48.5264 39.848 47.631 39.848 46.5264V37.0706Z" fill="url(#paint4_linear)"/>
<path fill-rule="evenodd" clip-rule="evenodd" d="M54.4028 35.0239C55.3317 35.0239 56.0848 34.2708 56.0848 33.3419C56.0848 32.413 55.3317 31.6599 54.4028 31.6599C53.4739 31.6599 52.7208 32.413 52.7208 33.3419C52.7208 34.2708 53.4739 35.0239 54.4028 35.0239Z" fill="url(#paint5_linear)"/>
<path fill-rule="evenodd" clip-rule="evenodd" d="M161.11 39.4033C161.11 38.851 161.558 38.4033 162.11 38.4033H166.838C167.39 38.4033 167.838 38.851 167.838 39.4033V44.1312C167.838 44.6835 167.39 45.1312 166.838 45.1312H162.11C161.558 45.1312 161.11 44.6835 161.11 44.1312V39.4033Z" fill="url(#paint6_linear)"/>
<path fill-rule="evenodd" clip-rule="evenodd" d="M69.9534 34.9892C69.9534 34.4369 70.4011 33.9892 70.9534 33.9892H100.591C101.143 33.9892 101.591 34.4369 101.591 34.9892V35.0586C101.591 35.6109 101.143 36.0586 100.591 36.0586H70.9534C70.4011 36.0586 69.9534 35.6109 69.9534 35.0586V34.9892Z" fill="#C8D7E9"/>
<path fill-rule="evenodd" clip-rule="evenodd" d="M103.474 34.9892C103.474 34.4369 103.922 33.9892 104.474 33.9892H104.997C105.549 33.9892 105.997 34.4369 105.997 34.9892V35.5122C105.997 36.0644 105.549 36.5122 104.997 36.5122H104.474C103.922 36.5122 103.474 36.0644 103.474 35.5122V34.9892Z" fill="#C8D7E9"/>
<path opacity="0.615319" fill-rule="evenodd" clip-rule="evenodd" d="M69.9534 41.7805C69.9534 41.4376 70.2313 41.1597 70.5742 41.1597H139.764C140.107 41.1597 140.385 41.4376 140.385 41.7805C140.385 42.1233 140.107 42.4013 139.764 42.4013H70.5742C70.2313 42.4013 69.9534 42.1233 69.9534 41.7805Z" fill="#C8D7E9"/>
<path opacity="0.615319" fill-rule="evenodd" clip-rule="evenodd" d="M69.9534 44.2638C69.9534 43.9209 70.2313 43.6429 70.5742 43.6429H139.764C140.107 43.6429 140.385 43.9209 140.385 44.2638C140.385 44.6066 140.107 44.8846 139.764 44.8846H70.5742C70.2313 44.8846 69.9534 44.6066 69.9534 44.2638Z" fill="#C8D7E9"/>
<path opacity="0.615319" fill-rule="evenodd" clip-rule="evenodd" d="M69.9534 46.747C69.9534 46.4042 70.2313 46.1262 70.5742 46.1262H122.062C122.405 46.1262 122.683 46.4042 122.683 46.747C122.683 47.0899 122.405 47.3679 122.062 47.3679H70.5742C70.2313 47.3679 69.9534 47.0899 69.9534 46.747Z" fill="#C8D7E9"/>
<path opacity="0.615319" fill-rule="evenodd" clip-rule="evenodd" d="M69.9534 49.2303C69.9534 48.8874 70.2313 48.6095 70.5742 48.6095H108.88C109.222 48.6095 109.5 48.8874 109.5 49.2303C109.5 49.5732 109.222 49.8511 108.88 49.8511H70.5742C70.2313 49.8511 69.9534 49.5732 69.9534 49.2303Z" fill="#C8D7E9"/>
<g filter="url(#filter1_f)">
<path fill-rule="evenodd" clip-rule="evenodd" d="M31.9111 80.0178L41.0523 79.4575H172.927L179.234 80.6862L181.661 82.8954L182.79 111.62C182.79 111.62 179.014 113.277 177.613 113.475C176.212 113.674 167.519 115.465 167.519 115.465H42.2816C42.2816 115.465 33.0052 114.74 30.8735 114.116C28.7417 113.493 27.6097 110.888 27.6097 110.888V82.8954L31.9111 80.0178Z" fill="url(#paint7_linear)"/>
</g>
<path fill-rule="evenodd" clip-rule="evenodd" d="M27.2332 82.802C27.2332 80.0406 29.4717 77.802 32.2332 77.802H181.18C183.941 77.802 186.18 80.0406 186.18 82.802V103.015C186.18 105.776 183.941 108.015 181.18 108.015H32.2332C29.4717 108.015 27.2332 105.776 27.2332 103.015V82.802Z" fill="white"/>
<path fill-rule="evenodd" clip-rule="evenodd" d="M27.2332 83.802C27.2332 81.0406 29.4717 78.802 32.2332 78.802H181.18C183.941 78.802 186.18 81.0406 186.18 83.802V104.015C186.18 106.776 183.941 109.015 181.18 109.015H32.2332C29.4717 109.015 27.2332 106.776 27.2332 104.015V83.802Z" fill="url(#paint8_linear)"/>
<path fill-rule="evenodd" clip-rule="evenodd" d="M39.848 89.2119C39.848 88.1073 40.7435 87.2119 41.848 87.2119H50.568C51.6726 87.2119 52.568 88.1073 52.568 89.2119V98.6677C52.568 99.7722 51.6726 100.668 50.568 100.668H41.848C40.7435 100.668 39.848 99.7722 39.848 98.6677V89.2119Z" fill="url(#paint9_linear)"/>
<path fill-rule="evenodd" clip-rule="evenodd" d="M54.4028 87.1651C55.3317 87.1651 56.0848 86.4121 56.0848 85.4831C56.0848 84.5542 55.3317 83.8011 54.4028 83.8011C53.4739 83.8011 52.7208 84.5542 52.7208 85.4831C52.7208 86.4121 53.4739 87.1651 54.4028 87.1651Z" fill="url(#paint10_linear)"/>
<path fill-rule="evenodd" clip-rule="evenodd" d="M161.11 91.5446C161.11 90.9923 161.558 90.5446 162.11 90.5446H166.838C167.39 90.5446 167.838 90.9923 167.838 91.5446V96.2725C167.838 96.8247 167.39 97.2725 166.838 97.2725H162.11C161.558 97.2725 161.11 96.8247 161.11 96.2725V91.5446Z" fill="url(#paint11_linear)"/>
<path fill-rule="evenodd" clip-rule="evenodd" d="M69.9534 87.1304C69.9534 86.5781 70.4011 86.1304 70.9534 86.1304H100.591C101.143 86.1304 101.591 86.5781 101.591 87.1304V87.1998C101.591 87.7521 101.143 88.1998 100.591 88.1998H70.9534C70.4011 88.1998 69.9534 87.7521 69.9534 87.1998V87.1304Z" fill="#C8D7E9"/>
<path fill-rule="evenodd" clip-rule="evenodd" d="M103.474 87.1304C103.474 86.5781 103.922 86.1304 104.474 86.1304H104.997C105.549 86.1304 105.997 86.5781 105.997 87.1304V87.6534C105.997 88.2057 105.549 88.6534 104.997 88.6534H104.474C103.922 88.6534 103.474 88.2057 103.474 87.6534V87.1304Z" fill="#C8D7E9"/>
<path opacity="0.615319" fill-rule="evenodd" clip-rule="evenodd" d="M69.9534 93.9217C69.9534 93.5789 70.2313 93.3009 70.5742 93.3009H139.764C140.107 93.3009 140.385 93.5789 140.385 93.9217C140.385 94.2646 140.107 94.5425 139.764 94.5425H70.5742C70.2313 94.5425 69.9534 94.2646 69.9534 93.9217Z" fill="#C8D7E9"/>
<path opacity="0.615319" fill-rule="evenodd" clip-rule="evenodd" d="M69.9534 96.405C69.9534 96.0621 70.2313 95.7842 70.5742 95.7842H139.764C140.107 95.7842 140.385 96.0621 140.385 96.405C140.385 96.7479 140.107 97.0258 139.764 97.0258H70.5742C70.2313 97.0258 69.9534 96.7479 69.9534 96.405Z" fill="#C8D7E9"/>
<path opacity="0.615319" fill-rule="evenodd" clip-rule="evenodd" d="M69.9534 98.8883C69.9534 98.5454 70.2313 98.2675 70.5742 98.2675H122.062C122.405 98.2675 122.683 98.5454 122.683 98.8883C122.683 99.2311 122.405 99.5091 122.062 99.5091H70.5742C70.2313 99.5091 69.9534 99.2311 69.9534 98.8883Z" fill="#C8D7E9"/>
<path opacity="0.615319" fill-rule="evenodd" clip-rule="evenodd" d="M69.9534 101.372C69.9534 101.029 70.2313 100.751 70.5742 100.751H108.88C109.222 100.751 109.5 101.029 109.5 101.372C109.5 101.714 109.222 101.992 108.88 101.992H70.5742C70.2313 101.992 69.9534 101.714 69.9534 101.372Z" fill="#C8D7E9"/>
<g filter="url(#filter2_f)">
<path fill-rule="evenodd" clip-rule="evenodd" d="M31.9111 132.159L41.0523 131.599H172.927L179.234 132.827L181.661 135.037L182.79 163.761C182.79 163.761 179.014 165.418 177.613 165.617C176.212 165.815 167.519 167.606 167.519 167.606H42.2816C42.2816 167.606 33.0052 166.881 30.8735 166.258C28.7417 165.634 27.6097 163.029 27.6097 163.029V135.037L31.9111 132.159Z" fill="url(#paint12_linear)"/>
</g>
<path fill-rule="evenodd" clip-rule="evenodd" d="M27.2332 134.943C27.2332 132.182 29.4717 129.943 32.2332 129.943H181.18C183.941 129.943 186.18 132.182 186.18 134.943V155.156C186.18 157.918 183.941 160.156 181.18 160.156H32.2332C29.4717 160.156 27.2332 157.918 27.2332 155.156V134.943Z" fill="white"/>
<path fill-rule="evenodd" clip-rule="evenodd" d="M27.2332 135.943C27.2332 133.182 29.4717 130.943 32.2332 130.943H181.18C183.941 130.943 186.18 133.182 186.18 135.943V156.156C186.18 158.918 183.941 161.156 181.18 161.156H32.2332C29.4717 161.156 27.2332 158.918 27.2332 156.156V135.943Z" fill="url(#paint13_linear)"/>
<path fill-rule="evenodd" clip-rule="evenodd" d="M39.848 141.353C39.848 140.249 40.7435 139.353 41.848 139.353H50.568C51.6726 139.353 52.568 140.249 52.568 141.353V150.809C52.568 151.913 51.6726 152.809 50.568 152.809H41.848C40.7435 152.809 39.848 151.913 39.848 150.809V141.353Z" fill="url(#paint14_linear)"/>
<path fill-rule="evenodd" clip-rule="evenodd" d="M54.4028 139.306C55.3317 139.306 56.0848 138.553 56.0848 137.624C56.0848 136.695 55.3317 135.942 54.4028 135.942C53.4739 135.942 52.7208 136.695 52.7208 137.624C52.7208 138.553 53.4739 139.306 54.4028 139.306Z" fill="url(#paint15_linear)"/>
<path fill-rule="evenodd" clip-rule="evenodd" d="M161.11 143.686C161.11 143.134 161.558 142.686 162.11 142.686H166.838C167.39 142.686 167.838 143.134 167.838 143.686V148.414C167.838 148.966 167.39 149.414 166.838 149.414H162.11C161.558 149.414 161.11 148.966 161.11 148.414V143.686Z" fill="url(#paint16_linear)"/>
<path fill-rule="evenodd" clip-rule="evenodd" d="M69.9534 139.272C69.9534 138.719 70.4011 138.272 70.9534 138.272H100.591C101.143 138.272 101.591 138.719 101.591 139.272V139.341C101.591 139.893 101.143 140.341 100.591 140.341H70.9534C70.4011 140.341 69.9534 139.893 69.9534 139.341V139.272Z" fill="#C8D7E9"/>
<path fill-rule="evenodd" clip-rule="evenodd" d="M103.474 139.272C103.474 138.719 103.922 138.272 104.474 138.272H104.997C105.549 138.272 105.997 138.719 105.997 139.272V139.795C105.997 140.347 105.549 140.795 104.997 140.795H104.474C103.922 140.795 103.474 140.347 103.474 139.795V139.272Z" fill="#C8D7E9"/>
<path opacity="0.615319" fill-rule="evenodd" clip-rule="evenodd" d="M69.9534 146.063C69.9534 145.72 70.2313 145.442 70.5742 145.442H139.764C140.107 145.442 140.385 145.72 140.385 146.063C140.385 146.406 140.107 146.684 139.764 146.684H70.5742C70.2313 146.684 69.9534 146.406 69.9534 146.063Z" fill="#C8D7E9"/>
<path opacity="0.615319" fill-rule="evenodd" clip-rule="evenodd" d="M69.9534 148.546C69.9534 148.203 70.2313 147.925 70.5742 147.925H139.764C140.107 147.925 140.385 148.203 140.385 148.546C140.385 148.889 140.107 149.167 139.764 149.167H70.5742C70.2313 149.167 69.9534 148.889 69.9534 148.546Z" fill="#C8D7E9"/>
<path opacity="0.615319" fill-rule="evenodd" clip-rule="evenodd" d="M69.9534 151.03C69.9534 150.687 70.2313 150.409 70.5742 150.409H122.062C122.405 150.409 122.683 150.687 122.683 151.03C122.683 151.372 122.405 151.65 122.062 151.65H70.5742C70.2313 151.65 69.9534 151.372 69.9534 151.03Z" fill="#C8D7E9"/>
<path opacity="0.615319" fill-rule="evenodd" clip-rule="evenodd" d="M69.9534 153.513C69.9534 153.17 70.2313 152.892 70.5742 152.892H108.88C109.222 152.892 109.5 153.17 109.5 153.513C109.5 153.856 109.222 154.134 108.88 154.134H70.5742C70.2313 154.134 69.9534 153.856 69.9534 153.513Z" fill="#C8D7E9"/>
<g opacity="0.522135" filter="url(#filter3_f)">
<path fill-rule="evenodd" clip-rule="evenodd" d="M83.8232 205.719L86.1288 205.011H125.754L127.344 206.564L127.957 209.356L128.241 245.655C128.241 245.655 127.289 247.749 126.935 248C126.582 248.251 124.39 250.514 124.39 250.514H86.4388C86.4388 250.514 84.0991 249.598 83.5615 248.81C83.0238 248.022 82.7383 244.73 82.7383 244.73V209.356L83.8232 205.719Z" fill="url(#paint17_linear)"/>
</g>
<g filter="url(#filter4_f)">
<path fill-rule="evenodd" clip-rule="evenodd" d="M106.706 251.205C121.802 251.205 134.039 238.968 134.039 223.872C134.039 208.777 121.802 196.54 106.706 196.54C91.6114 196.54 79.3744 208.777 79.3744 223.872C79.3744 238.968 91.6114 251.205 106.706 251.205Z" fill="url(#paint18_linear)"/>
</g>
<path opacity="0.309726" fill-rule="evenodd" clip-rule="evenodd" d="M106.706 251.205C121.802 251.205 134.039 238.968 134.039 223.872C134.039 208.777 121.802 196.54 106.706 196.54C91.6114 196.54 79.3744 208.777 79.3744 223.872C79.3744 238.968 91.6114 251.205 106.706 251.205Z" fill="white"/>
<path fill-rule="evenodd" clip-rule="evenodd" d="M106.706 246.624C119.272 246.624 129.458 236.438 129.458 223.872C129.458 211.307 119.272 201.121 106.706 201.121C94.1412 201.121 83.955 211.307 83.955 223.872C83.955 236.438 94.1412 246.624 106.706 246.624Z" fill="white"/>
<g opacity="0.6">
<path opacity="0.2" fill-rule="evenodd" clip-rule="evenodd" d="M74.2973 223.872C75.209 223.872 75.9481 223.107 75.9481 222.164C75.9481 221.221 75.209 220.456 74.2973 220.456C73.3856 220.456 72.6465 221.221 72.6465 222.164C72.6465 223.107 73.3856 223.872 74.2973 223.872Z" fill="white"/>
<path fill-rule="evenodd" clip-rule="evenodd" d="M74.2973 223.303C74.9051 223.303 75.3978 222.793 75.3978 222.164C75.3978 221.535 74.9051 221.025 74.2973 221.025C73.6895 221.025 73.1968 221.535 73.1968 222.164C73.1968 222.793 73.6895 223.303 74.2973 223.303Z" fill="white"/>
</g>
<g opacity="0.9">
<path opacity="0.2" fill-rule="evenodd" clip-rule="evenodd" d="M92.3786 254.647C93.2903 254.647 94.0294 253.882 94.0294 252.939C94.0294 251.996 93.2903 251.231 92.3786 251.231C91.4669 251.231 90.7278 251.996 90.7278 252.939C90.7278 253.882 91.4669 254.647 92.3786 254.647Z" fill="white"/>
<path fill-rule="evenodd" clip-rule="evenodd" d="M92.3786 254.077C92.9864 254.077 93.4791 253.568 93.4791 252.939C93.4791 252.31 92.9864 251.8 92.3786 251.8C91.7708 251.8 91.2781 252.31 91.2781 252.939C91.2781 253.568 91.7708 254.077 92.3786 254.077Z" fill="white"/>
</g>
<g opacity="0.5">
<path opacity="0.2" fill-rule="evenodd" clip-rule="evenodd" d="M77.4881 211.546C78.3998 211.546 79.1389 210.781 79.1389 209.838C79.1389 208.895 78.3998 208.13 77.4881 208.13C76.5764 208.13 75.8373 208.895 75.8373 209.838C75.8373 210.781 76.5764 211.546 77.4881 211.546Z" fill="white"/>
<path fill-rule="evenodd" clip-rule="evenodd" d="M77.4881 210.977C78.0959 210.977 78.5886 210.467 78.5886 209.838C78.5886 209.209 78.0959 208.7 77.4881 208.7C76.8803 208.7 76.3876 209.209 76.3876 209.838C76.3876 210.467 76.8803 210.977 77.4881 210.977Z" fill="white"/>
</g>
<g opacity="0.8">
<path opacity="0.2" fill-rule="evenodd" clip-rule="evenodd" d="M81.7425 247.104C82.6542 247.104 83.3933 246.339 83.3933 245.396C83.3933 244.453 82.6542 243.688 81.7425 243.688C80.8308 243.688 80.0917 244.453 80.0917 245.396C80.0917 246.339 80.8308 247.104 81.7425 247.104Z" fill="white"/>
<path fill-rule="evenodd" clip-rule="evenodd" d="M81.7425 246.535C82.3503 246.535 82.843 246.025 82.843 245.396C82.843 244.767 82.3503 244.258 81.7425 244.258C81.1347 244.258 80.642 244.767 80.642 245.396C80.642 246.025 81.1347 246.535 81.7425 246.535Z" fill="white"/>
</g>
<g opacity="0.3">
<path opacity="0.2" fill-rule="evenodd" clip-rule="evenodd" d="M93.4422 195.383C94.3539 195.383 95.093 194.619 95.093 193.675C95.093 192.732 94.3539 191.967 93.4422 191.967C92.5305 191.967 91.7914 192.732 91.7914 193.675C91.7914 194.619 92.5305 195.383 93.4422 195.383Z" fill="white"/>
<path fill-rule="evenodd" clip-rule="evenodd" d="M93.4422 194.814C94.05 194.814 94.5427 194.304 94.5427 193.675C94.5427 193.047 94.05 192.537 93.4422 192.537C92.8344 192.537 92.3417 193.047 92.3417 193.675C92.3417 194.304 92.8344 194.814 93.4422 194.814Z" fill="white"/>
</g>
<path opacity="0.2" fill-rule="evenodd" clip-rule="evenodd" d="M106.205 193.228C107.117 193.228 107.856 192.464 107.856 191.52C107.856 190.577 107.117 189.812 106.205 189.812C105.294 189.812 104.555 190.577 104.555 191.52C104.555 192.464 105.294 193.228 106.205 193.228Z" fill="white"/>
<path fill-rule="evenodd" clip-rule="evenodd" d="M106.205 192.659C106.813 192.659 107.306 192.149 107.306 191.52C107.306 190.892 106.813 190.382 106.205 190.382C105.598 190.382 105.105 190.892 105.105 191.52C105.105 192.149 105.598 192.659 106.205 192.659Z" fill="white"/>
<path opacity="0.2" fill-rule="evenodd" clip-rule="evenodd" d="M106.205 257.879C107.117 257.879 107.856 257.115 107.856 256.171C107.856 255.228 107.117 254.463 106.205 254.463C105.294 254.463 104.555 255.228 104.555 256.171C104.555 257.115 105.294 257.879 106.205 257.879Z" fill="white"/>
<path fill-rule="evenodd" clip-rule="evenodd" d="M106.205 257.31C106.813 257.31 107.306 256.8 107.306 256.171C107.306 255.543 106.813 255.033 106.205 255.033C105.598 255.033 105.105 255.543 105.105 256.171C105.105 256.8 105.598 257.31 106.205 257.31Z" fill="white"/>
<g opacity="0.4">
<path opacity="0.2" fill-rule="evenodd" clip-rule="evenodd" d="M83.8697 202.926C84.7814 202.926 85.5205 202.161 85.5205 201.218C85.5205 200.275 84.7814 199.51 83.8697 199.51C82.958 199.51 82.2189 200.275 82.2189 201.218C82.2189 202.161 82.958 202.926 83.8697 202.926Z" fill="white"/>
<path fill-rule="evenodd" clip-rule="evenodd" d="M83.8697 202.357C84.4775 202.357 84.9702 201.847 84.9702 201.218C84.9702 200.589 84.4775 200.079 83.8697 200.079C83.2619 200.079 82.7692 200.589 82.7692 201.218C82.7692 201.847 83.2619 202.357 83.8697 202.357Z" fill="white"/>
</g>
<g opacity="0.7">
<path opacity="0.2" fill-rule="evenodd" clip-rule="evenodd" d="M76.4245 236.329C77.3362 236.329 78.0753 235.564 78.0753 234.621C78.0753 233.678 77.3362 232.913 76.4245 232.913C75.5128 232.913 74.7737 233.678 74.7737 234.621C74.7737 235.564 75.5128 236.329 76.4245 236.329Z" fill="white"/>
<path fill-rule="evenodd" clip-rule="evenodd" d="M76.4245 235.76C77.0323 235.76 77.525 235.25 77.525 234.621C77.525 233.992 77.0323 233.482 76.4245 233.482C75.8167 233.482 75.324 233.992 75.324 234.621C75.324 235.25 75.8167 235.76 76.4245 235.76Z" fill="white"/>
</g>
<g opacity="0.7">
<path opacity="0.2" fill-rule="evenodd" clip-rule="evenodd" d="M139.105 223.976C138.188 223.976 137.444 223.217 137.444 222.281C137.444 221.346 138.188 220.587 139.105 220.587C140.023 220.587 140.766 221.346 140.766 222.281C140.766 223.217 140.023 223.976 139.105 223.976Z" fill="white"/>
<path fill-rule="evenodd" clip-rule="evenodd" d="M139.105 223.411C138.494 223.411 137.998 222.905 137.998 222.282C137.998 221.658 138.494 221.152 139.105 221.152C139.717 221.152 140.213 221.658 140.213 222.282C140.213 222.905 139.717 223.411 139.105 223.411Z" fill="white"/>
</g>
<g opacity="0.295233">
<path opacity="0.2" fill-rule="evenodd" clip-rule="evenodd" d="M120.909 254.522C119.992 254.522 119.248 253.764 119.248 252.828C119.248 251.892 119.992 251.133 120.909 251.133C121.827 251.133 122.571 251.892 122.571 252.828C122.571 253.764 121.827 254.522 120.909 254.522Z" fill="white"/>
<path fill-rule="evenodd" clip-rule="evenodd" d="M120.909 253.958C120.298 253.958 119.802 253.452 119.802 252.828C119.802 252.204 120.298 251.698 120.909 251.698C121.521 251.698 122.017 252.204 122.017 252.828C122.017 253.452 121.521 253.958 120.909 253.958Z" fill="white"/>
</g>
<g opacity="0.9">
<path opacity="0.2" fill-rule="evenodd" clip-rule="evenodd" d="M135.894 211.76C134.977 211.76 134.233 211.002 134.233 210.066C134.233 209.13 134.977 208.371 135.894 208.371C136.812 208.371 137.555 209.13 137.555 210.066C137.555 211.002 136.812 211.76 135.894 211.76Z" fill="white"/>
<path fill-rule="evenodd" clip-rule="evenodd" d="M135.894 211.195C135.282 211.195 134.787 210.69 134.787 210.066C134.787 209.442 135.282 208.936 135.894 208.936C136.506 208.936 137.002 209.442 137.002 210.066C137.002 210.69 136.506 211.195 135.894 211.195Z" fill="white"/>
</g>
<g opacity="0.4">
<path opacity="0.2" fill-rule="evenodd" clip-rule="evenodd" d="M131.613 247.039C130.695 247.039 129.952 246.28 129.952 245.344C129.952 244.409 130.695 243.65 131.613 243.65C132.53 243.65 133.274 244.409 133.274 245.344C133.274 246.28 132.53 247.039 131.613 247.039Z" fill="white"/>
<path fill-rule="evenodd" clip-rule="evenodd" d="M131.613 246.474C131.001 246.474 130.505 245.968 130.505 245.344C130.505 244.721 131.001 244.215 131.613 244.215C132.224 244.215 132.72 244.721 132.72 245.344C132.72 245.968 132.224 246.474 131.613 246.474Z" fill="white"/>
</g>
<path opacity="0.2" fill-rule="evenodd" clip-rule="evenodd" d="M119.839 195.725C118.921 195.725 118.178 194.966 118.178 194.03C118.178 193.094 118.921 192.335 119.839 192.335C120.756 192.335 121.5 193.094 121.5 194.03C121.5 194.966 120.756 195.725 119.839 195.725Z" fill="white"/>
<path fill-rule="evenodd" clip-rule="evenodd" d="M119.839 195.16C119.227 195.16 118.732 194.654 118.732 194.03C118.732 193.406 119.227 192.9 119.839 192.9C120.451 192.9 120.947 193.406 120.947 194.03C120.947 194.654 120.451 195.16 119.839 195.16Z" fill="white"/>
<g opacity="0.9">
<path opacity="0.2" fill-rule="evenodd" clip-rule="evenodd" d="M129.472 203.208C128.555 203.208 127.811 202.449 127.811 201.513C127.811 200.577 128.555 199.819 129.472 199.819C130.39 199.819 131.133 200.577 131.133 201.513C131.133 202.449 130.39 203.208 129.472 203.208Z" fill="white"/>
<path fill-rule="evenodd" clip-rule="evenodd" d="M129.472 202.643C128.86 202.643 128.365 202.137 128.365 201.513C128.365 200.889 128.86 200.384 129.472 200.384C130.084 200.384 130.58 200.889 130.58 201.513C130.58 202.137 130.084 202.643 129.472 202.643Z" fill="white"/>
</g>
<g opacity="0.5">
<path opacity="0.2" fill-rule="evenodd" clip-rule="evenodd" d="M136.965 236.349C136.047 236.349 135.303 235.59 135.303 234.654C135.303 233.718 136.047 232.959 136.965 232.959C137.882 232.959 138.626 233.718 138.626 234.654C138.626 235.59 137.882 236.349 136.965 236.349Z" fill="white"/>
<path fill-rule="evenodd" clip-rule="evenodd" d="M136.965 235.784C136.353 235.784 135.857 235.278 135.857 234.654C135.857 234.03 136.353 233.524 136.965 233.524C137.576 233.524 138.072 234.03 138.072 234.654C138.072 235.278 137.576 235.784 136.965 235.784Z" fill="white"/>
</g>
<path fill-rule="evenodd" clip-rule="evenodd" d="M95.6246 220.535C96.0151 220.144 96.6482 220.144 97.0388 220.535L106.685 230.181C107.075 230.571 107.075 231.204 106.685 231.595L106.088 232.192C105.698 232.582 105.064 232.582 104.674 232.192L95.0278 222.546C94.6373 222.155 94.6373 221.522 95.0278 221.131L95.6246 220.535Z" fill="url(#paint19_linear)"/>
<path fill-rule="evenodd" clip-rule="evenodd" d="M119.669 213.981C119.249 213.629 118.625 213.68 118.268 214.095L104.154 230.499C103.801 230.909 103.838 231.526 104.239 231.891L104.896 232.489C105.313 232.869 105.961 232.828 106.328 232.4L120.433 215.941C120.795 215.519 120.743 214.882 120.317 214.525L119.669 213.981Z" fill="url(#paint20_linear)"/>
<defs>
<filter id="filter0_f" x="0.426924" y="0.133467" width="209.546" height="90.3729" filterUnits="userSpaceOnUse" color-interpolation-filters="sRGB">
<feFlood flood-opacity="0" result="BackgroundImageFix"/>
<feBlend mode="normal" in="SourceGraphic" in2="BackgroundImageFix" result="shape"/>
<feGaussianBlur stdDeviation="13.5914" result="effect1_foregroundBlur"/>
</filter>
<filter id="filter1_f" x="0.426924" y="52.2747" width="209.546" height="90.3729" filterUnits="userSpaceOnUse" color-interpolation-filters="sRGB">
<feFlood flood-opacity="0" result="BackgroundImageFix"/>
<feBlend mode="normal" in="SourceGraphic" in2="BackgroundImageFix" result="shape"/>
<feGaussianBlur stdDeviation="13.5914" result="effect1_foregroundBlur"/>
</filter>
<filter id="filter2_f" x="0.426924" y="104.416" width="209.546" height="90.3729" filterUnits="userSpaceOnUse" color-interpolation-filters="sRGB">
<feFlood flood-opacity="0" result="BackgroundImageFix"/>
<feBlend mode="normal" in="SourceGraphic" in2="BackgroundImageFix" result="shape"/>
<feGaussianBlur stdDeviation="13.5914" result="effect1_foregroundBlur"/>
</filter>
<filter id="filter3_f" x="55.5555" y="177.828" width="99.8686" height="99.8686" filterUnits="userSpaceOnUse" color-interpolation-filters="sRGB">
<feFlood flood-opacity="0" result="BackgroundImageFix"/>
<feBlend mode="normal" in="SourceGraphic" in2="BackgroundImageFix" result="shape"/>
<feGaussianBlur stdDeviation="13.5914" result="effect1_foregroundBlur"/>
</filter>
<filter id="filter4_f" x="52.1916" y="169.358" width="109.03" height="109.03" filterUnits="userSpaceOnUse" color-interpolation-filters="sRGB">
<feFlood flood-opacity="0" result="BackgroundImageFix"/>
<feBlend mode="normal" in="SourceGraphic" in2="BackgroundImageFix" result="shape"/>
<feGaussianBlur stdDeviation="13.5914" result="effect1_foregroundBlur"/>
</filter>
<linearGradient id="paint0_linear" x1="-6.70857" y1="7" x2="-6.70857" y2="87" gradientUnits="userSpaceOnUse">
<stop stop-color="#FFD0C0"/>
<stop offset="0.808684" stop-color="#FF5882" stop-opacity="0.231035"/>
<stop offset="1" stop-color="#FF5782" stop-opacity="0.01"/>
</linearGradient>
<linearGradient id="paint1_linear" x1="-14.8352" y1="-8.89962" x2="-14.8352" y2="223.872" gradientUnits="userSpaceOnUse">
<stop stop-color="#FFC5B1"/>
<stop offset="0.451809" stop-color="#FF5C84"/>
<stop offset="0.808684" stop-color="#FF5882" stop-opacity="0.231035"/>
<stop offset="1" stop-color="#FF5782" stop-opacity="0.01"/>
</linearGradient>
<linearGradient id="paint2_linear" x1="26.6407" y1="28.7307" x2="26.6407" y2="65.1877" gradientUnits="userSpaceOnUse">
<stop stop-color="#480067" stop-opacity="0.222883"/>
<stop offset="0.826943" stop-color="#5A0065" stop-opacity="0.222883"/>
<stop offset="1" stop-color="#5F006C" stop-opacity="0.0996377"/>
</linearGradient>
<linearGradient id="paint3_linear" x1="245.297" y1="56.2121" x2="245.297" y2="24.4807" gradientUnits="userSpaceOnUse">
<stop stop-color="white"/>
<stop offset="1" stop-color="#EBF2FA"/>
</linearGradient>
<linearGradient id="paint4_linear" x1="52.568" y1="48.5264" x2="52.568" y2="35.0706" gradientUnits="userSpaceOnUse">
<stop stop-color="#737BFF"/>
<stop offset="1" stop-color="#00B2F4"/>
</linearGradient>
<linearGradient id="paint5_linear" x1="52.5109" y1="31.3797" x2="52.5109" y2="34.602" gradientUnits="userSpaceOnUse">
<stop stop-color="#FFC5B1"/>
<stop offset="1" stop-color="#FF5782"/>
</linearGradient>
<linearGradient id="paint6_linear" x1="159.934" y1="38.4033" x2="159.934" y2="47.4837" gradientUnits="userSpaceOnUse">
<stop stop-color="#00E2C8"/>
<stop offset="1" stop-color="#327FF6"/>
</linearGradient>
<linearGradient id="paint7_linear" x1="26.6407" y1="80.8719" x2="26.6407" y2="117.329" gradientUnits="userSpaceOnUse">
<stop stop-color="#480067" stop-opacity="0.222883"/>
<stop offset="0.826943" stop-color="#5A0065" stop-opacity="0.222883"/>
<stop offset="1" stop-color="#5F006C" stop-opacity="0.0996377"/>
</linearGradient>
<linearGradient id="paint8_linear" x1="245.297" y1="108.353" x2="245.297" y2="76.622" gradientUnits="userSpaceOnUse">
<stop stop-color="white"/>
<stop offset="1" stop-color="#EBF2FA"/>
</linearGradient>
<linearGradient id="paint9_linear" x1="52.568" y1="100.668" x2="52.568" y2="87.2119" gradientUnits="userSpaceOnUse">
<stop stop-color="#737BFF"/>
<stop offset="1" stop-color="#00B2F4"/>
</linearGradient>
<linearGradient id="paint10_linear" x1="52.5109" y1="83.5209" x2="52.5109" y2="86.7433" gradientUnits="userSpaceOnUse">
<stop stop-color="#FFC5B1"/>
<stop offset="1" stop-color="#FF5782"/>
</linearGradient>
<linearGradient id="paint11_linear" x1="159.934" y1="90.5446" x2="159.934" y2="99.625" gradientUnits="userSpaceOnUse">
<stop stop-color="#00E2C8"/>
<stop offset="1" stop-color="#327FF6"/>
</linearGradient>
<linearGradient id="paint12_linear" x1="26.6407" y1="133.013" x2="26.6407" y2="169.47" gradientUnits="userSpaceOnUse">
<stop stop-color="#480067" stop-opacity="0.222883"/>
<stop offset="0.826943" stop-color="#5A0065" stop-opacity="0.222883"/>
<stop offset="1" stop-color="#5F006C" stop-opacity="0.0996377"/>
</linearGradient>
<linearGradient id="paint13_linear" x1="245.297" y1="160.495" x2="245.297" y2="128.763" gradientUnits="userSpaceOnUse">
<stop stop-color="white"/>
<stop offset="1" stop-color="#EBF2FA"/>
</linearGradient>
<linearGradient id="paint14_linear" x1="52.568" y1="152.809" x2="52.568" y2="139.353" gradientUnits="userSpaceOnUse">
<stop stop-color="#737BFF"/>
<stop offset="1" stop-color="#00B2F4"/>
</linearGradient>
<linearGradient id="paint15_linear" x1="52.5109" y1="135.662" x2="52.5109" y2="138.885" gradientUnits="userSpaceOnUse">
<stop stop-color="#FFC5B1"/>
<stop offset="1" stop-color="#FF5782"/>
</linearGradient>
<linearGradient id="paint16_linear" x1="159.934" y1="142.686" x2="159.934" y2="151.766" gradientUnits="userSpaceOnUse">
<stop stop-color="#00E2C8"/>
<stop offset="1" stop-color="#327FF6"/>
</linearGradient>
<linearGradient id="paint17_linear" x1="81.3676" y1="205.011" x2="81.3676" y2="253.255" gradientUnits="userSpaceOnUse">
<stop stop-color="#481D70" stop-opacity="0.222883"/>
<stop offset="0.826943" stop-color="#481D70" stop-opacity="0.222883"/>
<stop offset="1" stop-color="#481D70" stop-opacity="0.0996377"/>
</linearGradient>
<linearGradient id="paint18_linear" x1="79.033" y1="198.688" x2="79.033" y2="254.035" gradientUnits="userSpaceOnUse">
<stop stop-color="#480067" stop-opacity="0.222883"/>
<stop offset="0.826943" stop-color="#5A0065" stop-opacity="0.222883"/>
<stop offset="1" stop-color="#5F006C" stop-opacity="0.0996377"/>
</linearGradient>
<linearGradient id="paint19_linear" x1="94.3207" y1="221.838" x2="105.381" y2="232.899" gradientUnits="userSpaceOnUse">
<stop stop-color="#9CE9CA"/>
<stop offset="1" stop-color="#00CED9"/>
</linearGradient>
<linearGradient id="paint20_linear" x1="121.083" y1="215.168" x2="105.865" y2="233.303" gradientUnits="userSpaceOnUse">
<stop stop-color="#9CE9CA"/>
<stop offset="1" stop-color="#00CED9"/>
</linearGradient>
</defs>
</svg>
