<svg width="275" height="311" viewBox="0 0 275 311" fill="none" xmlns="http://www.w3.org/2000/svg">
<g opacity="0.5">
<path opacity="0.877831" fill-rule="evenodd" clip-rule="evenodd" d="M141 71.3596C141 65.8367 145.477 61.3596 151 61.3596H203.349C208.872 61.3596 213.349 65.8367 213.349 71.3596V145.26C213.349 150.783 208.872 155.26 203.349 155.26H151C145.477 155.26 141 150.783 141 145.26V71.3596Z" fill="url(#paint0_linear)"/>
<path opacity="0.877831" fill-rule="evenodd" clip-rule="evenodd" d="M57 71.3596C57 65.8367 61.4772 61.3596 67 61.3596H119.349C124.872 61.3596 129.349 65.8367 129.349 71.3596V145.26C129.349 150.783 124.872 155.26 119.349 155.26H67C61.4772 155.26 57 150.783 57 145.26V71.3596Z" fill="url(#paint1_linear)"/>
<path fill-rule="evenodd" clip-rule="evenodd" d="M141 73.3596C141 67.8367 145.477 63.3596 151 63.3596H203.349C208.872 63.3596 213.349 67.8367 213.349 73.3596V147.26C213.349 152.783 208.872 157.26 203.349 157.26H151C145.477 157.26 141 152.783 141 147.26V73.3596Z" fill="url(#paint2_linear)"/>
<path fill-rule="evenodd" clip-rule="evenodd" d="M57 73.3596C57 67.8367 61.4772 63.3596 67 63.3596H119.349C124.872 63.3596 129.349 67.8367 129.349 73.3596V147.26C129.349 152.783 124.872 157.26 119.349 157.26H67C61.4772 157.26 57 152.783 57 147.26V73.3596Z" fill="url(#paint3_linear)"/>
</g>
<g filter="url(#filter0_f)">
<rect x="81.9136" y="28" width="111.629" height="104" rx="10" fill="url(#paint4_linear)"/>
</g>
<rect x="81.9136" y="32" width="111.629" height="104" rx="10" fill="url(#paint5_linear)"/>
<rect x="81.9136" y="34" width="111.629" height="133.204" rx="10" fill="url(#paint6_linear)"/>
<path fill-rule="evenodd" clip-rule="evenodd" d="M92 52C92 50.8954 92.8954 50 94 50H129C130.105 50 131 50.8954 131 52V70.5134C131 71.6179 130.105 72.5134 129 72.5134H94C92.8954 72.5134 92 71.6179 92 70.5134V52Z" fill="#EE5C7C"/>
<path fill-rule="evenodd" clip-rule="evenodd" d="M92 91.3454C92 90.2408 92.8954 89.3454 94 89.3454H129C130.105 89.3454 131 90.2408 131 91.3454V109.859C131 110.963 130.105 111.859 129 111.859H94C92.8954 111.859 92 110.963 92 109.859V91.3454Z" fill="#EE5C7C"/>
<path fill-rule="evenodd" clip-rule="evenodd" d="M143 52C143 50.8954 143.895 50 145 50H180C181.105 50 182 50.8954 182 52V70.5134C182 71.6179 181.105 72.5134 180 72.5134H145C143.895 72.5134 143 71.6179 143 70.5134V52Z" fill="#EE5C7C"/>
<path fill-rule="evenodd" clip-rule="evenodd" d="M143 91.3454C143 90.2408 143.895 89.3454 145 89.3454H180C181.105 89.3454 182 90.2408 182 91.3454V109.859C182 110.963 181.105 111.859 180 111.859H145C143.895 111.859 143 110.963 143 109.859V91.3454Z" fill="#EE5C7C"/>
<path fill-rule="evenodd" clip-rule="evenodd" d="M92 79.2599C92 78.1553 92.8954 77.2599 94 77.2599H129C130.105 77.2599 131 78.1553 131 79.2599V79.9502C131 81.0547 130.105 81.9502 129 81.9502H94C92.8954 81.9502 92 81.0547 92 79.9502V79.2599Z" fill="#EE5C7C"/>
<path fill-rule="evenodd" clip-rule="evenodd" d="M143 79.2599C143 78.1553 143.895 77.2599 145 77.2599H180C181.105 77.2599 182 78.1553 182 79.2599V79.9502C182 81.0547 181.105 81.9502 180 81.9502H145C143.895 81.9502 143 81.0547 143 79.9502V79.2599Z" fill="#EE5C7C"/>
<rect x="92.3186" y="116.859" width="90.0535" height="4.69029" rx="2" fill="#EE5C7C"/>
<g filter="url(#filter1_f)">
<path fill-rule="evenodd" clip-rule="evenodd" d="M78.4271 131.25C83.5284 101.577 109.384 79 140.514 79C166.897 79 189.492 95.2174 198.874 118.227C200.711 117.988 202.584 117.864 204.486 117.864C228.235 117.864 247.486 137.116 247.486 160.864C247.486 184.613 233.279 203.864 209.531 203.864C208.962 203.864 208.393 203.853 207.823 203.831C191.484 204.594 68.754 205 65.5137 205C44.5269 205 27.5137 187.987 27.5137 167C27.5137 146.013 44.5269 129 65.5137 129C70.0474 129 74.3957 129.794 78.4271 131.25Z" fill="url(#paint7_linear)"/>
</g>
<path fill-rule="evenodd" clip-rule="evenodd" d="M212.5 229H136H62.5H61.0137L61.0324 228.979C34.3731 228.231 13 207.148 13 180.019C13 152.394 35.1619 130 62.5 130C69.3914 130 75.9539 131.423 81.9154 133.994C92.9213 115.428 113.024 103 136 103C159.425 103 179.863 115.919 190.719 135.09C197.292 131.83 204.684 130 212.5 130C239.838 130 262 152.394 262 180.019C262 207.139 240.64 228.218 213.993 228.979L214.014 229H212.5Z" fill="url(#paint8_linear)"/>
<g opacity="0.522135" filter="url(#filter2_f)">
<path fill-rule="evenodd" clip-rule="evenodd" d="M91.0027 200.307L95.2589 199H168.408L171.344 201.866L172.474 207.02L173 274.03C173 274.03 171.242 277.896 170.589 278.359C169.937 278.823 165.89 283 165.89 283H95.8313C95.8313 283 91.5122 281.309 90.5196 279.854C89.527 278.4 89 272.323 89 272.323V207.02L91.0027 200.307Z" fill="url(#paint9_linear)"/>
</g>
<g filter="url(#filter3_f)">
<path fill-rule="evenodd" clip-rule="evenodd" d="M137.053 263.107C154.756 263.107 169.107 248.756 169.107 231.053C169.107 213.351 154.756 199 137.053 199C119.351 199 105 213.351 105 231.053C105 248.756 119.351 263.107 137.053 263.107Z" fill="url(#paint10_linear)"/>
</g>
<path opacity="0.309726" fill-rule="evenodd" clip-rule="evenodd" d="M137.053 263.107C154.756 263.107 169.107 248.756 169.107 231.053C169.107 213.351 154.756 199 137.053 199C119.351 199 105 213.351 105 231.053C105 248.756 119.351 263.107 137.053 263.107Z" fill="white"/>
<path fill-rule="evenodd" clip-rule="evenodd" d="M137.053 258.107C151.994 258.107 164.107 245.994 164.107 231.053C164.107 216.112 151.994 204 137.053 204C122.112 204 110 216.112 110 231.053C110 245.994 122.112 258.107 137.053 258.107Z" fill="white"/>
<path fill-rule="evenodd" clip-rule="evenodd" d="M149.548 228.965C149.913 228.56 150.535 228.522 150.947 228.88L152.447 230.184C152.868 230.55 152.908 231.191 152.535 231.606L140.088 245.485C140.05 245.545 140.005 245.601 139.953 245.653L139.804 245.802L138.964 246.739C138.864 246.85 138.745 246.934 138.617 246.989L138.549 247.057C138.159 247.447 137.526 247.447 137.135 247.057L122.768 232.69C122.377 232.299 122.377 231.666 122.768 231.275L124.171 229.872C124.562 229.481 125.195 229.481 125.585 229.872L137.753 242.04L149.548 228.965Z" fill="url(#paint11_linear)"/>
<path fill-rule="evenodd" clip-rule="evenodd" d="M149.433 218.594C149.798 218.189 150.42 218.151 150.831 218.509L152.331 219.813C152.753 220.179 152.793 220.819 152.42 221.235L139.973 235.114C139.935 235.174 139.89 235.23 139.837 235.282L139.689 235.43L138.848 236.368C138.749 236.479 138.63 236.563 138.501 236.618L138.434 236.686C138.043 237.076 137.41 237.076 137.02 236.686L122.652 222.318C122.262 221.928 122.262 221.294 122.652 220.904L124.056 219.5C124.446 219.11 125.08 219.11 125.47 219.5L137.638 231.668L149.433 218.594Z" fill="url(#paint12_linear)"/>
<g opacity="0.2">
<path opacity="0.2" fill-rule="evenodd" clip-rule="evenodd" d="M135.184 116.908C135.184 117.962 136.038 118.816 137.092 118.816C138.146 118.816 139 117.962 139 116.908C139 115.854 138.146 115 137.092 115C136.038 115 135.184 115.854 135.184 116.908Z" fill="white"/>
<path fill-rule="evenodd" clip-rule="evenodd" d="M135.82 116.908C135.82 117.61 136.39 118.18 137.092 118.18C137.795 118.18 138.364 117.61 138.364 116.908C138.364 116.205 137.795 115.636 137.092 115.636C136.39 115.636 135.82 116.205 135.82 116.908Z" fill="white"/>
</g>
<g opacity="0.3">
<path opacity="0.2" fill-rule="evenodd" clip-rule="evenodd" d="M135.184 127.108C135.184 128.162 136.038 129.016 137.092 129.016C138.146 129.016 139 128.162 139 127.108C139 126.054 138.146 125.2 137.092 125.2C136.038 125.2 135.184 126.054 135.184 127.108Z" fill="white"/>
<path fill-rule="evenodd" clip-rule="evenodd" d="M135.82 127.108C135.82 127.81 136.39 128.38 137.092 128.38C137.795 128.38 138.364 127.81 138.364 127.108C138.364 126.405 137.795 125.836 137.092 125.836C136.39 125.836 135.82 126.405 135.82 127.108Z" fill="white"/>
</g>
<g opacity="0.4">
<path opacity="0.2" fill-rule="evenodd" clip-rule="evenodd" d="M135.184 137.308C135.184 138.362 136.038 139.216 137.092 139.216C138.146 139.216 139 138.362 139 137.308C139 136.254 138.146 135.4 137.092 135.4C136.038 135.4 135.184 136.254 135.184 137.308Z" fill="white"/>
<path fill-rule="evenodd" clip-rule="evenodd" d="M135.82 137.308C135.82 138.01 136.39 138.58 137.092 138.58C137.795 138.58 138.364 138.01 138.364 137.308C138.364 136.605 137.795 136.036 137.092 136.036C136.39 136.036 135.82 136.605 135.82 137.308Z" fill="white"/>
</g>
<g opacity="0.5">
<path opacity="0.2" fill-rule="evenodd" clip-rule="evenodd" d="M135.184 147.508C135.184 148.562 136.038 149.416 137.092 149.416C138.146 149.416 139 148.562 139 147.508C139 146.454 138.146 145.6 137.092 145.6C136.038 145.6 135.184 146.454 135.184 147.508Z" fill="white"/>
<path fill-rule="evenodd" clip-rule="evenodd" d="M135.82 147.508C135.82 148.21 136.39 148.78 137.092 148.78C137.795 148.78 138.364 148.21 138.364 147.508C138.364 146.805 137.795 146.236 137.092 146.236C136.39 146.236 135.82 146.805 135.82 147.508Z" fill="white"/>
</g>
<g opacity="0.6">
<path opacity="0.2" fill-rule="evenodd" clip-rule="evenodd" d="M135.184 157.708C135.184 158.762 136.038 159.616 137.092 159.616C138.146 159.616 139 158.762 139 157.708C139 156.654 138.146 155.8 137.092 155.8C136.038 155.8 135.184 156.654 135.184 157.708Z" fill="white"/>
<path fill-rule="evenodd" clip-rule="evenodd" d="M135.82 157.708C135.82 158.41 136.39 158.98 137.092 158.98C137.795 158.98 138.364 158.41 138.364 157.708C138.364 157.005 137.795 156.436 137.092 156.436C136.39 156.436 135.82 157.005 135.82 157.708Z" fill="white"/>
</g>
<g opacity="0.7">
<path opacity="0.2" fill-rule="evenodd" clip-rule="evenodd" d="M135.184 167.908C135.184 168.962 136.038 169.816 137.092 169.816C138.146 169.816 139 168.962 139 167.908C139 166.854 138.146 166 137.092 166C136.038 166 135.184 166.854 135.184 167.908Z" fill="white"/>
<path fill-rule="evenodd" clip-rule="evenodd" d="M135.82 167.908C135.82 168.61 136.39 169.18 137.092 169.18C137.795 169.18 138.364 168.61 138.364 167.908C138.364 167.205 137.795 166.636 137.092 166.636C136.39 166.636 135.82 167.205 135.82 167.908Z" fill="white"/>
</g>
<g opacity="0.8">
<path opacity="0.2" fill-rule="evenodd" clip-rule="evenodd" d="M135.184 178.108C135.184 179.162 136.038 180.016 137.092 180.016C138.146 180.016 139 179.162 139 178.108C139 177.054 138.146 176.2 137.092 176.2C136.038 176.2 135.184 177.054 135.184 178.108Z" fill="white"/>
<path fill-rule="evenodd" clip-rule="evenodd" d="M135.82 178.108C135.82 178.81 136.39 179.38 137.092 179.38C137.795 179.38 138.364 178.81 138.364 178.108C138.364 177.405 137.795 176.836 137.092 176.836C136.39 176.836 135.82 177.405 135.82 178.108Z" fill="white"/>
</g>
<g opacity="0.9">
<path opacity="0.2" fill-rule="evenodd" clip-rule="evenodd" d="M135.184 188.308C135.184 189.362 136.038 190.216 137.092 190.216C138.146 190.216 139 189.362 139 188.308C139 187.254 138.146 186.4 137.092 186.4C136.038 186.4 135.184 187.254 135.184 188.308Z" fill="white"/>
<path fill-rule="evenodd" clip-rule="evenodd" d="M135.82 188.308C135.82 189.01 136.39 189.58 137.092 189.58C137.795 189.58 138.364 189.01 138.364 188.308C138.364 187.605 137.795 187.036 137.092 187.036C136.39 187.036 135.82 187.605 135.82 188.308Z" fill="white"/>
</g>
<g opacity="0.2">
<path opacity="0.2" fill-rule="evenodd" clip-rule="evenodd" d="M32.9473 178.191C33.8694 177.944 34.4192 177.006 34.1754 176.096C33.9315 175.186 32.9864 174.649 32.0643 174.896C31.1422 175.143 30.5923 176.081 30.8362 176.991C31.08 177.901 32.0252 178.438 32.9473 178.191Z" fill="white"/>
<path fill-rule="evenodd" clip-rule="evenodd" d="M32.8001 177.642C33.4148 177.477 33.7814 176.852 33.6188 176.245C33.4563 175.639 32.8261 175.28 32.2114 175.445C31.5967 175.61 31.2301 176.235 31.3927 176.842C31.5552 177.449 32.1853 177.807 32.8001 177.642Z" fill="white"/>
</g>
<g opacity="0.3">
<path opacity="0.2" fill-rule="evenodd" clip-rule="evenodd" d="M40.1636 185.088C41.0857 184.841 41.6356 183.903 41.3917 182.993C41.1479 182.083 40.2027 181.545 39.2806 181.792C38.3585 182.039 37.8087 182.977 38.0525 183.887C38.2964 184.797 39.2415 185.335 40.1636 185.088Z" fill="white"/>
<path fill-rule="evenodd" clip-rule="evenodd" d="M40.0164 184.539C40.6312 184.374 40.9977 183.748 40.8352 183.142C40.6726 182.535 40.0425 182.177 39.4278 182.342C38.813 182.506 38.4465 183.132 38.609 183.738C38.7716 184.345 39.4017 184.703 40.0164 184.539Z" fill="white"/>
</g>
<g opacity="0.4">
<path opacity="0.2" fill-rule="evenodd" clip-rule="evenodd" d="M47.495 190.187C48.4171 189.94 48.9669 189.002 48.7231 188.092C48.4793 187.182 47.5341 186.645 46.612 186.892C45.6899 187.139 45.14 188.077 45.3839 188.987C45.6277 189.897 46.5729 190.434 47.495 190.187Z" fill="white"/>
<path fill-rule="evenodd" clip-rule="evenodd" d="M47.3478 189.638C47.9625 189.473 48.3291 188.848 48.1665 188.241C48.004 187.635 47.3739 187.276 46.7591 187.441C46.1444 187.606 45.7778 188.231 45.9404 188.838C46.1029 189.445 46.7331 189.803 47.3478 189.638Z" fill="white"/>
</g>
<g opacity="0.5">
<path opacity="0.2" fill-rule="evenodd" clip-rule="evenodd" d="M54.9735 195.836C55.8956 195.589 56.4455 194.651 56.2016 193.741C55.9578 192.831 55.0126 192.294 54.0905 192.541C53.1684 192.788 52.6186 193.726 52.8624 194.636C53.1062 195.546 54.0514 196.083 54.9735 195.836Z" fill="white"/>
<path fill-rule="evenodd" clip-rule="evenodd" d="M54.8263 195.287C55.441 195.122 55.8076 194.497 55.6451 193.89C55.4825 193.283 54.8524 192.925 54.2376 193.09C53.6229 193.255 53.2564 193.88 53.4189 194.487C53.5815 195.093 54.2116 195.452 54.8263 195.287Z" fill="white"/>
</g>
<g opacity="0.6">
<path opacity="0.2" fill-rule="evenodd" clip-rule="evenodd" d="M64.2368 199.241C65.1589 198.994 65.7087 198.056 65.4649 197.146C65.221 196.236 64.2759 195.698 63.3538 195.945C62.4317 196.192 61.8818 197.13 62.1256 198.04C62.3695 198.95 63.3147 199.488 64.2368 199.241Z" fill="white"/>
<path fill-rule="evenodd" clip-rule="evenodd" d="M64.0896 198.691C64.7043 198.527 65.0709 197.901 64.9083 197.295C64.7457 196.688 64.1156 196.33 63.5009 196.495C62.8862 196.659 62.5196 197.285 62.6822 197.891C62.8447 198.498 63.4748 198.856 64.0896 198.691Z" fill="white"/>
</g>
<g opacity="0.7">
<path opacity="0.2" fill-rule="evenodd" clip-rule="evenodd" d="M73.4999 202.645C74.422 202.398 74.9719 201.46 74.7281 200.55C74.4842 199.64 73.539 199.103 72.6169 199.35C71.6948 199.597 71.145 200.535 71.3888 201.445C71.6327 202.355 72.5778 202.892 73.4999 202.645Z" fill="white"/>
<path fill-rule="evenodd" clip-rule="evenodd" d="M73.3527 202.096C73.9675 201.931 74.334 201.306 74.1715 200.699C74.0089 200.093 73.3788 199.734 72.7641 199.899C72.1493 200.064 71.7828 200.689 71.9453 201.296C72.1079 201.903 72.738 202.261 73.3527 202.096Z" fill="white"/>
</g>
<g opacity="0.9">
<path opacity="0.2" fill-rule="evenodd" clip-rule="evenodd" d="M83.5818 204.653C84.504 204.406 85.0538 203.468 84.81 202.558C84.5661 201.648 83.621 201.111 82.6988 201.358C81.7767 201.605 81.2269 202.543 81.4707 203.453C81.7146 204.363 82.6597 204.9 83.5818 204.653Z" fill="white"/>
<path fill-rule="evenodd" clip-rule="evenodd" d="M83.4347 204.104C84.0494 203.939 84.416 203.314 84.2534 202.707C84.0908 202.101 83.4607 201.742 82.846 201.907C82.2313 202.072 81.8647 202.697 82.0272 203.304C82.1898 203.91 82.8199 204.269 83.4347 204.104Z" fill="white"/>
</g>
<g opacity="0.9">
<path opacity="0.2" fill-rule="evenodd" clip-rule="evenodd" d="M93.1072 206.81C94.0293 206.563 94.5792 205.625 94.3354 204.715C94.0915 203.805 93.1463 203.268 92.2242 203.515C91.3021 203.762 90.7523 204.7 90.9961 205.61C91.24 206.52 92.1851 207.057 93.1072 206.81Z" fill="white"/>
<path fill-rule="evenodd" clip-rule="evenodd" d="M92.96 206.261C93.5748 206.096 93.9413 205.471 93.7788 204.864C93.6162 204.258 92.9861 203.899 92.3714 204.064C91.7566 204.229 91.3901 204.854 91.5526 205.461C91.7152 206.067 92.3453 206.426 92.96 206.261Z" fill="white"/>
</g>
<g opacity="0.2">
<path opacity="0.2" fill-rule="evenodd" clip-rule="evenodd" d="M236.313 176.006C235.383 175.792 234.801 174.873 235.013 173.955C235.225 173.037 236.151 172.467 237.081 172.682C238.011 172.897 238.593 173.815 238.381 174.733C238.169 175.651 237.244 176.221 236.313 176.006Z" fill="white"/>
<path fill-rule="evenodd" clip-rule="evenodd" d="M236.441 175.452C235.821 175.309 235.433 174.697 235.574 174.085C235.716 173.473 236.333 173.093 236.953 173.236C237.573 173.379 237.961 173.991 237.82 174.603C237.679 175.215 237.061 175.595 236.441 175.452Z" fill="white"/>
</g>
<g opacity="0.3">
<path opacity="0.2" fill-rule="evenodd" clip-rule="evenodd" d="M229.342 183.15C228.412 182.936 227.83 182.017 228.042 181.099C228.254 180.181 229.179 179.611 230.11 179.826C231.04 180.041 231.622 180.959 231.41 181.877C231.198 182.795 230.272 183.365 229.342 183.15Z" fill="white"/>
<path fill-rule="evenodd" clip-rule="evenodd" d="M229.47 182.596C228.85 182.453 228.462 181.841 228.603 181.229C228.744 180.617 229.362 180.237 229.982 180.38C230.602 180.523 230.99 181.135 230.849 181.747C230.707 182.359 230.09 182.739 229.47 182.596Z" fill="white"/>
</g>
<g opacity="0.4">
<path opacity="0.2" fill-rule="evenodd" clip-rule="evenodd" d="M222.193 188.503C221.263 188.288 220.681 187.37 220.893 186.452C221.105 185.534 222.03 184.964 222.961 185.178C223.891 185.393 224.473 186.311 224.261 187.229C224.049 188.147 223.123 188.717 222.193 188.503Z" fill="white"/>
<path fill-rule="evenodd" clip-rule="evenodd" d="M222.321 187.949C221.701 187.805 221.313 187.193 221.454 186.581C221.595 185.969 222.213 185.589 222.833 185.732C223.453 185.876 223.841 186.488 223.7 187.1C223.558 187.712 222.941 188.092 222.321 187.949Z" fill="white"/>
</g>
<g opacity="0.5">
<path opacity="0.2" fill-rule="evenodd" clip-rule="evenodd" d="M214.916 194.409C213.986 194.194 213.404 193.276 213.616 192.358C213.828 191.44 214.754 190.87 215.684 191.085C216.614 191.299 217.196 192.218 216.984 193.136C216.772 194.054 215.846 194.624 214.916 194.409Z" fill="white"/>
<path fill-rule="evenodd" clip-rule="evenodd" d="M215.044 193.855C214.424 193.712 214.036 193.1 214.177 192.488C214.319 191.876 214.936 191.496 215.556 191.639C216.176 191.782 216.564 192.394 216.423 193.006C216.282 193.618 215.664 193.998 215.044 193.855Z" fill="white"/>
</g>
<g opacity="0.6">
<path opacity="0.2" fill-rule="evenodd" clip-rule="evenodd" d="M205.778 198.135C204.847 197.92 204.265 197.002 204.477 196.084C204.689 195.166 205.615 194.596 206.545 194.811C207.475 195.025 208.057 195.944 207.846 196.862C207.634 197.779 206.708 198.35 205.778 198.135Z" fill="white"/>
<path fill-rule="evenodd" clip-rule="evenodd" d="M205.906 197.581C205.285 197.438 204.897 196.825 205.039 196.213C205.18 195.602 205.797 195.221 206.417 195.365C207.037 195.508 207.425 196.12 207.284 196.732C207.143 197.344 206.526 197.724 205.906 197.581Z" fill="white"/>
</g>
<g opacity="0.7">
<path opacity="0.2" fill-rule="evenodd" clip-rule="evenodd" d="M196.639 201.861C195.709 201.646 195.126 200.728 195.338 199.81C195.55 198.892 196.476 198.322 197.406 198.536C198.336 198.751 198.919 199.669 198.707 200.587C198.495 201.505 197.569 202.075 196.639 201.861Z" fill="white"/>
<path fill-rule="evenodd" clip-rule="evenodd" d="M196.767 201.307C196.147 201.163 195.758 200.551 195.9 199.939C196.041 199.327 196.658 198.947 197.278 199.09C197.899 199.234 198.287 199.846 198.145 200.458C198.004 201.07 197.387 201.45 196.767 201.307Z" fill="white"/>
</g>
<g opacity="0.9">
<path opacity="0.2" fill-rule="evenodd" clip-rule="evenodd" d="M186.633 204.219C185.703 204.004 185.121 203.086 185.333 202.168C185.545 201.25 186.47 200.68 187.401 200.895C188.331 201.11 188.913 202.028 188.701 202.946C188.489 203.864 187.563 204.434 186.633 204.219Z" fill="white"/>
<path fill-rule="evenodd" clip-rule="evenodd" d="M186.761 203.665C186.141 203.522 185.753 202.91 185.894 202.298C186.035 201.686 186.653 201.306 187.273 201.449C187.893 201.592 188.281 202.204 188.14 202.816C187.998 203.428 187.381 203.808 186.761 203.665Z" fill="white"/>
</g>
<g opacity="0.9">
<path opacity="0.2" fill-rule="evenodd" clip-rule="evenodd" d="M177.189 206.707C176.259 206.493 175.676 205.574 175.888 204.656C176.1 203.738 177.026 203.168 177.956 203.383C178.886 203.598 179.469 204.516 179.257 205.434C179.045 206.352 178.119 206.922 177.189 206.707Z" fill="white"/>
<path fill-rule="evenodd" clip-rule="evenodd" d="M177.317 206.153C176.697 206.01 176.308 205.398 176.45 204.786C176.591 204.174 177.208 203.794 177.828 203.937C178.448 204.08 178.837 204.692 178.695 205.304C178.554 205.916 177.937 206.296 177.317 206.153Z" fill="white"/>
</g>
<defs>
<filter id="filter0_f" x="54.7308" y="0.817183" width="165.994" height="158.366" filterUnits="userSpaceOnUse" color-interpolation-filters="sRGB">
<feFlood flood-opacity="0" result="BackgroundImageFix"/>
<feBlend mode="normal" in="SourceGraphic" in2="BackgroundImageFix" result="shape"/>
<feGaussianBlur stdDeviation="13.5914" result="effect1_foregroundBlur"/>
</filter>
<filter id="filter1_f" x="0.330854" y="51.8172" width="274.338" height="180.366" filterUnits="userSpaceOnUse" color-interpolation-filters="sRGB">
<feFlood flood-opacity="0" result="BackgroundImageFix"/>
<feBlend mode="normal" in="SourceGraphic" in2="BackgroundImageFix" result="shape"/>
<feGaussianBlur stdDeviation="13.5914" result="effect1_foregroundBlur"/>
</filter>
<filter id="filter2_f" x="61.8172" y="171.817" width="138.366" height="138.366" filterUnits="userSpaceOnUse" color-interpolation-filters="sRGB">
<feFlood flood-opacity="0" result="BackgroundImageFix"/>
<feBlend mode="normal" in="SourceGraphic" in2="BackgroundImageFix" result="shape"/>
<feGaussianBlur stdDeviation="13.5914" result="effect1_foregroundBlur"/>
</filter>
<filter id="filter3_f" x="77.8172" y="171.817" width="118.472" height="118.472" filterUnits="userSpaceOnUse" color-interpolation-filters="sRGB">
<feFlood flood-opacity="0" result="BackgroundImageFix"/>
<feBlend mode="normal" in="SourceGraphic" in2="BackgroundImageFix" result="shape"/>
<feGaussianBlur stdDeviation="13.5914" result="effect1_foregroundBlur"/>
</filter>
<linearGradient id="paint0_linear" x1="136.485" y1="53.5373" x2="136.485" y2="143.485" gradientUnits="userSpaceOnUse">
<stop stop-color="#FFC5B1"/>
<stop offset="1" stop-color="#FF5782" stop-opacity="0.01"/>
</linearGradient>
<linearGradient id="paint1_linear" x1="52.4854" y1="53.5373" x2="52.4854" y2="143.485" gradientUnits="userSpaceOnUse">
<stop stop-color="#FFC5B1"/>
<stop offset="1" stop-color="#FF5782" stop-opacity="0.01"/>
</linearGradient>
<linearGradient id="paint2_linear" x1="136.485" y1="55.5373" x2="136.485" y2="145.485" gradientUnits="userSpaceOnUse">
<stop stop-color="#FFC5B1"/>
<stop offset="1" stop-color="#FF5782" stop-opacity="0.01"/>
</linearGradient>
<linearGradient id="paint3_linear" x1="52.4854" y1="55.5373" x2="52.4854" y2="145.485" gradientUnits="userSpaceOnUse">
<stop stop-color="#FFC5B1"/>
<stop offset="1" stop-color="#FF5782" stop-opacity="0.01"/>
</linearGradient>
<linearGradient id="paint4_linear" x1="81.2165" y1="32.0853" x2="81.2165" y2="137.384" gradientUnits="userSpaceOnUse">
<stop stop-color="#480067" stop-opacity="0.222883"/>
<stop offset="0.826943" stop-color="#5A0065" stop-opacity="0.222883"/>
<stop offset="1" stop-color="#5F006C" stop-opacity="0.0996377"/>
</linearGradient>
<linearGradient id="paint5_linear" x1="81.3751" y1="33.053" x2="81.3751" y2="120.7" gradientUnits="userSpaceOnUse">
<stop stop-color="#FFB1B0"/>
<stop offset="0.785024" stop-color="#FF6387"/>
<stop offset="1" stop-color="#FF5782" stop-opacity="0.01"/>
</linearGradient>
<linearGradient id="paint6_linear" x1="60.3327" y1="-18.1777" x2="60.3327" y2="152.855" gradientUnits="userSpaceOnUse">
<stop stop-color="#FFC5B1"/>
<stop offset="0.81913" stop-color="#FF6B8B"/>
<stop offset="1" stop-color="#FF5782" stop-opacity="0.01"/>
</linearGradient>
<linearGradient id="paint7_linear" x1="20.8876" y1="79" x2="20.8876" y2="212.591" gradientUnits="userSpaceOnUse">
<stop stop-color="#481D70" stop-opacity="0.222883"/>
<stop offset="0.826943" stop-color="#481D70" stop-opacity="0.222883"/>
<stop offset="1" stop-color="#481D70" stop-opacity="0.0996377"/>
</linearGradient>
<linearGradient id="paint8_linear" x1="240.937" y1="229" x2="240.937" y2="113.125" gradientUnits="userSpaceOnUse">
<stop stop-color="#737BFF" stop-opacity="0.01"/>
<stop offset="0.165396" stop-color="#5E86FD" stop-opacity="0.216717"/>
<stop offset="0.525839" stop-color="#3999F9" stop-opacity="0.589833"/>
<stop offset="0.846565" stop-color="#0AADF5" stop-opacity="0.925499"/>
<stop offset="1" stop-color="#00B2F4"/>
</linearGradient>
<linearGradient id="paint9_linear" x1="86.4697" y1="199" x2="86.4697" y2="288.061" gradientUnits="userSpaceOnUse">
<stop stop-color="#481D70" stop-opacity="0.222883"/>
<stop offset="0.826943" stop-color="#481D70" stop-opacity="0.222883"/>
<stop offset="1" stop-color="#481D70" stop-opacity="0.0996377"/>
</linearGradient>
<linearGradient id="paint10_linear" x1="104.6" y1="201.518" x2="104.6" y2="266.425" gradientUnits="userSpaceOnUse">
<stop stop-color="#480067" stop-opacity="0.222883"/>
<stop offset="0.826943" stop-color="#5A0065" stop-opacity="0.222883"/>
<stop offset="1" stop-color="#5F006C" stop-opacity="0.0996377"/>
</linearGradient>
<linearGradient id="paint11_linear" x1="116.196" y1="237.992" x2="128.027" y2="257.156" gradientUnits="userSpaceOnUse">
<stop stop-color="#9CE9CA"/>
<stop offset="1" stop-color="#00CED9"/>
</linearGradient>
<linearGradient id="paint12_linear" x1="116.081" y1="227.621" x2="127.911" y2="246.785" gradientUnits="userSpaceOnUse">
<stop stop-color="#9CE9CA"/>
<stop offset="1" stop-color="#00CED9"/>
</linearGradient>
</defs>
</svg>
