<svg width="933" height="558" viewBox="0 0 933 558" fill="none" xmlns="http://www.w3.org/2000/svg">
<g opacity="0.522135" filter="url(#filter0_f)">
<path fill-rule="evenodd" clip-rule="evenodd" d="M283.381 102.147L312.478 92.1619L825.886 29.1233L848.195 40.4471L859.187 64.3842L902.645 387.823C902.645 387.823 892.6 408.022 888.295 410.825C883.991 413.627 858.065 437.307 858.065 437.307L366.348 497.682C366.348 497.682 335.03 493.231 327.2 487.055C319.37 480.88 312.064 451.96 312.064 451.96L273.309 136.321L283.381 102.147Z" fill="url(#paint0_linear)"/>
</g>
<path fill-rule="evenodd" clip-rule="evenodd" d="M271.349 120.364C269.532 105.564 280.057 92.0922 294.858 90.2749L831.825 24.3436C846.626 22.5263 860.097 33.0513 861.914 47.8519L904.328 393.285C906.145 408.085 895.62 421.557 880.82 423.374L343.852 489.305C329.052 491.123 315.58 480.598 313.763 465.797L271.349 120.364Z" fill="url(#paint1_linear)"/>
<path d="M271.796 120.309C270.009 105.755 280.359 92.5085 294.912 90.7216L831.88 24.7902C846.434 23.0033 859.681 33.3529 861.468 47.9067L903.881 393.34C905.668 407.893 895.319 421.14 880.765 422.927L343.798 488.859C329.244 490.646 315.997 480.296 314.21 465.742L271.796 120.309Z" stroke="#F0F1F6" stroke-opacity="0.233894" stroke-width="0.9"/>
<path opacity="0.4482" d="M312.448 105.012C312.296 103.779 313.173 102.656 314.407 102.505L815.815 40.9393C817.049 40.7879 818.171 41.665 818.323 42.8984L863.107 407.639C863.259 408.873 862.382 409.995 861.148 410.147L359.74 471.712C358.506 471.863 357.384 470.986 357.232 469.753L312.448 105.012Z" fill="#E6F0FD" stroke="#C7D8EC" stroke-width="0.9"/>
<path fill-rule="evenodd" clip-rule="evenodd" d="M388.336 149.469C388.215 148.482 388.916 147.584 389.903 147.463L410.272 144.962C411.258 144.841 412.156 145.542 412.278 146.529L414.779 166.898C414.9 167.884 414.198 168.782 413.211 168.904L392.843 171.404C391.856 171.526 390.958 170.824 390.837 169.837L388.336 149.469Z" fill="url(#paint2_linear)"/>
<path fill-rule="evenodd" clip-rule="evenodd" d="M350.822 99.6052L815.901 42.5006C816.888 42.3795 817.786 43.0812 817.907 44.0679L822.71 83.1819L355.844 140.506L350.822 99.6052Z" fill="white"/>
<path fill-rule="evenodd" clip-rule="evenodd" d="M385.825 112.522C385.622 110.869 386.797 109.365 388.45 109.162V109.162C390.103 108.959 391.607 110.134 391.81 111.787V111.787C392.013 113.44 390.838 114.944 389.185 115.147V115.147C387.532 115.35 386.028 114.175 385.825 112.522V112.522Z" fill="#FF8E95"/>
<path fill-rule="evenodd" clip-rule="evenodd" d="M390.066 246.028L835.982 191.276L842.544 244.718L396.627 299.47L390.066 246.028Z" fill="white"/>
<path fill-rule="evenodd" clip-rule="evenodd" d="M399.75 251.17C399.689 250.677 400.04 250.228 400.533 250.167L470.094 241.627C470.587 241.566 471.036 241.917 471.096 242.41L471.424 245.077C471.485 245.57 471.134 246.019 470.64 246.08L401.08 254.621C400.587 254.682 400.138 254.331 400.077 253.837L399.75 251.17Z" fill="#C8D7E9"/>
<path opacity="0.615319" fill-rule="evenodd" clip-rule="evenodd" d="M400.843 260.077C400.783 259.584 401.134 259.135 401.627 259.074L489.024 248.343C489.517 248.283 489.966 248.634 490.027 249.127L490.136 250.013C490.196 250.506 489.845 250.955 489.352 251.016L401.955 261.746C401.462 261.807 401.013 261.456 400.952 260.963L400.843 260.077Z" fill="#C8D7E9"/>
<path opacity="0.316916" fill-rule="evenodd" clip-rule="evenodd" d="M778.325 208.306C778.204 207.32 778.905 206.422 779.892 206.3L821.802 201.155C822.789 201.033 823.687 201.735 823.808 202.722L825.557 216.962C825.678 217.949 824.976 218.847 823.99 218.968L782.079 224.114C781.093 224.235 780.194 223.534 780.073 222.547L778.325 208.306Z" fill="url(#paint3_linear)"/>
<rect x="383.285" y="190.805" width="449.265" height="53.8429" transform="rotate(-7 383.285 190.805)" fill="white"/>
<path fill-rule="evenodd" clip-rule="evenodd" d="M393.188 197.729C393.127 197.236 393.478 196.786 393.972 196.726L463.532 188.185C464.025 188.124 464.474 188.475 464.535 188.969L464.862 191.635C464.923 192.129 464.572 192.578 464.079 192.638L394.518 201.179C394.025 201.24 393.576 200.889 393.516 200.396L393.188 197.729Z" fill="#C8D7E9"/>
<path opacity="0.615319" fill-rule="evenodd" clip-rule="evenodd" d="M394.282 206.636C394.221 206.142 394.572 205.693 395.065 205.633L482.462 194.902C482.955 194.841 483.404 195.192 483.465 195.685L483.574 196.571C483.634 197.064 483.283 197.513 482.79 197.574L395.393 208.305C394.9 208.365 394.451 208.015 394.39 207.521L394.282 206.636Z" fill="#C8D7E9"/>
<path fill-rule="evenodd" clip-rule="evenodd" d="M771.544 153.083C771.423 152.097 772.125 151.199 773.111 151.078L815.022 145.932C816.008 145.81 816.907 146.512 817.028 147.499L818.776 161.739C818.897 162.726 818.196 163.624 817.209 163.745L775.299 168.891C774.312 169.013 773.414 168.311 773.293 167.324L771.544 153.083Z" fill="url(#paint4_linear)"/>
<path fill-rule="evenodd" clip-rule="evenodd" d="M396.846 301.251L842.763 246.499L849.324 299.941L403.408 354.693L396.846 301.251Z" fill="white"/>
<path fill-rule="evenodd" clip-rule="evenodd" d="M406.749 308.175C406.689 307.681 407.039 307.232 407.533 307.172L477.093 298.631C477.586 298.57 478.035 298.921 478.096 299.415L478.423 302.081C478.484 302.575 478.133 303.024 477.64 303.084L408.08 311.625C407.586 311.686 407.137 311.335 407.077 310.842L406.749 308.175Z" fill="#C8D7E9"/>
<path opacity="0.615319" fill-rule="evenodd" clip-rule="evenodd" d="M407.843 317.082C407.782 316.588 408.133 316.139 408.626 316.079L496.023 305.348C496.516 305.287 496.965 305.638 497.026 306.131L497.135 307.017C497.195 307.51 496.845 307.959 496.351 308.02L408.954 318.751C408.461 318.811 408.012 318.461 407.951 317.967L407.843 317.082Z" fill="#C8D7E9"/>
<path opacity="0.316916" fill-rule="evenodd" clip-rule="evenodd" d="M785.105 263.529C784.984 262.543 785.686 261.645 786.673 261.523L828.583 256.377C829.57 256.256 830.468 256.958 830.589 257.945L832.337 272.185C832.458 273.172 831.757 274.07 830.77 274.191L788.86 279.337C787.873 279.458 786.975 278.757 786.854 277.77L785.105 263.529Z" fill="url(#paint5_linear)"/>
<path fill-rule="evenodd" clip-rule="evenodd" d="M403.627 356.474L849.543 301.722L856.105 355.164L410.189 409.915L403.627 356.474Z" fill="white"/>
<path fill-rule="evenodd" clip-rule="evenodd" d="M413.53 363.398C413.469 362.904 413.82 362.455 414.313 362.395L483.873 353.854C484.367 353.793 484.816 354.144 484.876 354.637L485.204 357.304C485.264 357.798 484.913 358.247 484.42 358.307L414.86 366.848C414.367 366.909 413.918 366.558 413.857 366.065L413.53 363.398Z" fill="#C8D7E9"/>
<path opacity="0.615319" fill-rule="evenodd" clip-rule="evenodd" d="M414.623 372.305C414.563 371.811 414.914 371.362 415.407 371.302L502.804 360.571C503.297 360.51 503.746 360.861 503.807 361.354L503.915 362.24C503.976 362.733 503.625 363.182 503.132 363.243L415.735 373.974C415.242 374.034 414.793 373.684 414.732 373.19L414.623 372.305Z" fill="#C8D7E9"/>
<path opacity="0.316916" fill-rule="evenodd" clip-rule="evenodd" d="M791.886 318.752C791.765 317.766 792.466 316.868 793.453 316.746L835.363 311.6C836.35 311.479 837.248 312.181 837.369 313.168L839.118 327.408C839.239 328.395 838.537 329.293 837.551 329.414L795.64 334.56C794.654 334.681 793.755 333.98 793.634 332.993L791.886 318.752Z" fill="url(#paint6_linear)"/>
<path fill-rule="evenodd" clip-rule="evenodd" d="M410.407 411.697L856.324 356.945L862.666 408.6C862.787 409.587 862.086 410.485 861.099 410.606L416.969 465.138L410.407 411.697Z" fill="white"/>
<path fill-rule="evenodd" clip-rule="evenodd" d="M420.31 418.621C420.25 418.127 420.6 417.678 421.094 417.618L490.654 409.077C491.147 409.016 491.596 409.367 491.657 409.86L491.984 412.527C492.045 413.021 491.694 413.47 491.201 413.53L421.641 422.071C421.147 422.132 420.698 421.781 420.638 421.288L420.31 418.621Z" fill="#C8D7E9"/>
<path opacity="0.615319" fill-rule="evenodd" clip-rule="evenodd" d="M421.404 427.528C421.343 427.034 421.694 426.585 422.187 426.525L509.584 415.794C510.077 415.733 510.527 416.084 510.587 416.577L510.696 417.463C510.756 417.956 510.406 418.405 509.912 418.466L422.515 429.197C422.022 429.257 421.573 428.906 421.513 428.413L421.404 427.528Z" fill="#C8D7E9"/>
<path opacity="0.316916" fill-rule="evenodd" clip-rule="evenodd" d="M798.666 373.975C798.545 372.989 799.247 372.09 800.234 371.969L842.144 366.823C843.131 366.702 844.029 367.404 844.15 368.391L845.898 382.631C846.02 383.618 845.318 384.516 844.331 384.637L802.421 389.783C801.434 389.904 800.536 389.203 800.415 388.216L798.666 373.975Z" fill="url(#paint7_linear)"/>
<path fill-rule="evenodd" clip-rule="evenodd" d="M761.273 61.1479C761.151 60.1612 761.853 59.2631 762.84 59.1419L805.155 53.9462C806.142 53.8251 807.04 54.5268 807.161 55.5135L808.927 69.8967C809.048 70.8834 808.347 71.7815 807.36 71.9026L765.045 77.0983C764.058 77.2194 763.16 76.5178 763.039 75.5311L761.273 61.1479Z" fill="url(#paint8_linear)"/>
<path opacity="0.957937" fill-rule="evenodd" clip-rule="evenodd" d="M312.136 106.169C312.015 105.182 312.717 104.284 313.703 104.163L370.774 97.1554L415.971 465.261L358.901 472.268C357.914 472.389 357.016 471.688 356.895 470.701L312.136 106.169Z" fill="#20324B"/>
<path fill-rule="evenodd" clip-rule="evenodd" d="M420.271 145.653C420.21 145.16 420.561 144.711 421.055 144.65L490.096 136.173C490.589 136.113 491.038 136.463 491.099 136.957L491.492 140.158C491.553 140.651 491.202 141.1 490.708 141.161L421.667 149.638C421.174 149.699 420.725 149.348 420.664 148.855L420.271 145.653Z" fill="#C8D7E9"/>
<path opacity="0.615319" fill-rule="evenodd" clip-rule="evenodd" d="M421.496 155.629C421.435 155.136 421.786 154.687 422.28 154.626L510.275 143.822C510.768 143.761 511.217 144.112 511.278 144.605L511.426 145.811C511.486 146.305 511.136 146.754 510.642 146.814L422.647 157.619C422.154 157.679 421.705 157.329 421.644 156.835L421.496 155.629Z" fill="#C8D7E9"/>
<g opacity="0.522135" filter="url(#filter1_f)">
<path fill-rule="evenodd" clip-rule="evenodd" d="M26.2531 134.705L35.9884 127.098L216.633 104.917L225.585 117.879L231.435 142.444L272.496 466.126C272.496 466.126 270.448 485.341 269.112 487.778C267.775 490.216 260.259 511.632 260.259 511.632L87.2465 532.875C87.2465 532.875 75.5768 526.013 72.2624 519.284C68.948 512.555 64.0404 483.346 64.0404 483.346L25.2907 167.755L26.2531 134.705Z" fill="url(#paint9_linear)"/>
</g>
<path fill-rule="evenodd" clip-rule="evenodd" d="M23.2128 150.831C21.4628 136.579 31.598 123.607 45.8504 121.857L202.673 102.601C216.925 100.851 229.897 110.987 231.647 125.239L274.302 472.63C276.052 486.882 265.916 499.855 251.664 501.605L94.8418 520.86C80.5895 522.61 67.617 512.475 65.867 498.223L23.2128 150.831Z" fill="url(#paint10_linear)"/>
<path d="M23.6594 150.777C21.9397 136.771 31.8995 124.023 45.9052 122.303L202.727 103.048C216.733 101.328 229.481 111.288 231.201 125.294L273.855 472.685C275.575 486.691 265.615 499.439 251.609 501.158L94.787 520.414C80.7813 522.133 68.0334 512.173 66.3137 498.168L23.6594 150.777Z" stroke="#F0F1F6" stroke-opacity="0.233894" stroke-width="0.9"/>
<g filter="url(#filter2_i)">
<path fill-rule="evenodd" clip-rule="evenodd" d="M171.425 496.344C178.551 495.469 183.619 488.983 182.744 481.857C181.869 474.731 175.383 469.663 168.256 470.538C161.13 471.413 156.063 477.899 156.938 485.026C157.813 492.152 164.299 497.219 171.425 496.344Z" fill="url(#paint11_linear)"/>
</g>
<path d="M182.297 481.912C183.142 488.791 178.25 495.053 171.37 495.898C164.491 496.742 158.229 491.85 157.384 484.971C156.539 478.091 161.432 471.829 168.311 470.985C175.191 470.14 181.452 475.032 182.297 481.912Z" stroke="#F0F1F6" stroke-opacity="0.233894" stroke-width="0.9"/>
<g opacity="0.4482">
<path fill-rule="evenodd" clip-rule="evenodd" d="M42.6263 161.243C42.4446 159.763 43.4971 158.416 44.9771 158.234L213.313 137.565C214.793 137.383 216.14 138.436 216.322 139.916L253.565 443.238C253.747 444.718 252.694 446.065 251.214 446.247L82.8785 466.916C81.3985 467.098 80.0513 466.045 79.8696 464.565L42.6263 161.243Z" fill="#E6F0FD"/>
<path d="M43.073 161.188C42.9215 159.955 43.7986 158.832 45.032 158.681L213.368 138.012C214.601 137.86 215.724 138.737 215.875 139.971L253.119 443.293C253.27 444.526 252.393 445.649 251.159 445.8L82.8237 466.469C81.5903 466.621 80.4677 465.744 80.3162 464.51L43.073 161.188Z" stroke="#C7D8EC" stroke-opacity="0.13536" stroke-width="0.9"/>
</g>
<mask id="mask0" mask-type="alpha" maskUnits="userSpaceOnUse" x="42" y="137" width="212" height="330">
<path fill-rule="evenodd" clip-rule="evenodd" d="M42.6263 161.243C42.4446 159.763 43.4971 158.416 44.9771 158.234L213.313 137.565C214.793 137.383 216.14 138.436 216.322 139.916L253.565 443.238C253.747 444.718 252.694 446.065 251.214 446.247L82.8785 466.916C81.3985 467.098 80.0513 466.045 79.8696 464.565L42.6263 161.243Z" fill="white"/>
<path d="M43.073 161.188C42.9215 159.955 43.7986 158.832 45.032 158.681L213.368 138.012C214.601 137.86 215.724 138.737 215.875 139.971L253.119 443.293C253.27 444.526 252.393 445.649 251.159 445.8L82.8237 466.469C81.5903 466.621 80.4677 465.744 80.3162 464.51L43.073 161.188Z" stroke="white" stroke-width="0.9"/>
</mask>
<g mask="url(#mask0)">
<rect x="45.9709" y="180.277" width="173" height="41" transform="rotate(-7 45.9709 180.277)" fill="white"/>
<rect x="182.799" y="170.224" width="26" height="12" rx="1" transform="rotate(-7 182.799 170.224)" fill="url(#paint12_linear)"/>
<rect opacity="0.957937" x="42.2973" y="158.563" width="175" height="21" transform="rotate(-7 42.2973 158.563)" fill="#20324B"/>
<path fill-rule="evenodd" clip-rule="evenodd" d="M208.522 150.244C209.071 150.176 209.46 149.677 209.393 149.129C209.326 148.581 208.827 148.191 208.279 148.258C207.73 148.326 207.341 148.825 207.408 149.373C207.475 149.921 207.974 150.311 208.522 150.244Z" fill="white"/>
<path fill-rule="evenodd" clip-rule="evenodd" d="M64.7388 333.13L236.449 312.046L239.618 337.852L67.9074 358.936L64.7388 333.13Z" fill="white"/>
<rect x="201.449" y="322.389" width="26" height="12" rx="1" transform="rotate(-7 201.449 322.389)" fill="url(#paint13_linear)"/>
<rect x="73.4104" y="338.11" width="31" height="2" rx="1" transform="rotate(-7 73.4104 338.11)" fill="#C8D7E9"/>
<rect opacity="0.615319" x="73.8979" y="342.08" width="31" height="1" rx="0.5" transform="rotate(-7 73.8979 342.08)" fill="#C8D7E9"/>
<rect opacity="0.615319" x="74.2635" y="345.058" width="28" height="1" rx="0.5" transform="rotate(-7 74.2635 345.058)" fill="#C8D7E9"/>
<path fill-rule="evenodd" clip-rule="evenodd" d="M68.0293 359.928L239.74 338.845L242.908 364.651L71.1979 385.734L68.0293 359.928Z" fill="white"/>
<rect opacity="0.316916" x="204.739" y="349.187" width="26" height="12" rx="1" transform="rotate(-7 204.739 349.187)" fill="url(#paint14_linear)"/>
<rect x="76.7009" y="364.909" width="31" height="2" rx="1" transform="rotate(-7 76.7009 364.909)" fill="#C8D7E9"/>
<rect opacity="0.615319" x="77.1884" y="368.879" width="31" height="1" rx="0.5" transform="rotate(-7 77.1884 368.879)" fill="#C8D7E9"/>
<rect opacity="0.615319" x="77.554" y="371.856" width="28" height="1" rx="0.5" transform="rotate(-7 77.554 371.856)" fill="#C8D7E9"/>
<path fill-rule="evenodd" clip-rule="evenodd" d="M71.3198 386.727L243.03 365.644L246.199 391.45L74.4884 412.533L71.3198 386.727Z" fill="white"/>
<rect opacity="0.316916" x="208.03" y="375.986" width="26" height="12" rx="1" transform="rotate(-7 208.03 375.986)" fill="url(#paint15_linear)"/>
<rect x="79.9914" y="391.707" width="31" height="2" rx="1" transform="rotate(-7 79.9914 391.707)" fill="#C8D7E9"/>
<rect opacity="0.615319" x="80.4789" y="395.678" width="31" height="1" rx="0.5" transform="rotate(-7 80.4789 395.678)" fill="#C8D7E9"/>
<rect opacity="0.615319" x="80.8445" y="398.655" width="28" height="1" rx="0.5" transform="rotate(-7 80.8445 398.655)" fill="#C8D7E9"/>
<path fill-rule="evenodd" clip-rule="evenodd" d="M74.6103 413.526L246.321 392.442L249.489 418.249L77.7789 439.332L74.6103 413.526Z" fill="white"/>
<rect opacity="0.316916" x="211.32" y="402.785" width="26" height="12" rx="1" transform="rotate(-7 211.32 402.785)" fill="url(#paint16_linear)"/>
<rect x="83.2819" y="418.506" width="31" height="2" rx="1" transform="rotate(-7 83.2819 418.506)" fill="#C8D7E9"/>
<rect opacity="0.615319" x="83.7693" y="422.476" width="31" height="1" rx="0.5" transform="rotate(-7 83.7693 422.476)" fill="#C8D7E9"/>
<rect opacity="0.615319" x="84.1349" y="425.454" width="28" height="1" rx="0.5" transform="rotate(-7 84.1349 425.454)" fill="#C8D7E9"/>
<path fill-rule="evenodd" clip-rule="evenodd" d="M77.9007 440.325L249.611 419.241L252.78 445.047L81.0693 466.131L77.9007 440.325Z" fill="white"/>
<rect opacity="0.316916" x="214.611" y="429.584" width="26" height="12" rx="1" transform="rotate(-7 214.611 429.584)" fill="url(#paint17_linear)"/>
<rect x="86.5723" y="445.305" width="31" height="2" rx="1" transform="rotate(-7 86.5723 445.305)" fill="#C8D7E9"/>
<rect opacity="0.615319" x="87.0598" y="449.275" width="31" height="1" rx="0.5" transform="rotate(-7 87.0598 449.275)" fill="#C8D7E9"/>
<rect opacity="0.615319" x="87.4254" y="452.253" width="28" height="1" rx="0.5" transform="rotate(-7 87.4254 452.253)" fill="#C8D7E9"/>
<path fill-rule="evenodd" clip-rule="evenodd" d="M51.0894 221.964L222.8 200.881L225.969 226.687L54.258 247.771L51.0894 221.964Z" fill="white"/>
<rect x="59.761" y="226.945" width="12" height="12" rx="1" transform="rotate(-7 59.761 226.945)" fill="url(#paint18_linear)"/>
<rect x="187.799" y="211.224" width="26" height="12" rx="1" transform="rotate(-7 187.799 211.224)" fill="url(#paint19_linear)"/>
<rect x="74.6492" y="225.117" width="31" height="2" rx="1" transform="rotate(-7 74.6492 225.117)" fill="#C8D7E9"/>
<rect opacity="0.615319" x="75.1367" y="229.087" width="31" height="1" rx="0.5" transform="rotate(-7 75.1367 229.087)" fill="#C8D7E9"/>
<rect opacity="0.615319" x="75.5023" y="232.064" width="28" height="1" rx="0.5" transform="rotate(-7 75.5023 232.064)" fill="#C8D7E9"/>
<rect x="53.761" y="186.945" width="12" height="12" rx="1" transform="rotate(-7 53.761 186.945)" fill="url(#paint20_linear)"/>
<rect x="68.6492" y="185.117" width="31" height="2" rx="1" transform="rotate(-7 68.6492 185.117)" fill="#C8D7E9"/>
<rect opacity="0.615319" x="69.1367" y="189.087" width="31" height="1" rx="0.5" transform="rotate(-7 69.1367 189.087)" fill="#C8D7E9"/>
<rect opacity="0.615319" x="69.5023" y="192.064" width="28" height="1" rx="0.5" transform="rotate(-7 69.5023 192.064)" fill="#C8D7E9"/>
</g>
<defs>
<filter id="filter0_f" x="244.084" y="0.701387" width="688.349" height="527.332" filterUnits="userSpaceOnUse" color-interpolation-filters="sRGB">
<feFlood flood-opacity="0" result="BackgroundImageFix"/>
<feBlend mode="normal" in="SourceGraphic" in2="BackgroundImageFix" result="shape"/>
<feGaussianBlur stdDeviation="12.2323" result="effect1_foregroundBlur"/>
</filter>
<filter id="filter1_f" x="0.826174" y="80.4527" width="296.134" height="476.887" filterUnits="userSpaceOnUse" color-interpolation-filters="sRGB">
<feFlood flood-opacity="0" result="BackgroundImageFix"/>
<feBlend mode="normal" in="SourceGraphic" in2="BackgroundImageFix" result="shape"/>
<feGaussianBlur stdDeviation="12.2323" result="effect1_foregroundBlur"/>
</filter>
<filter id="filter2_i" x="156.839" y="470.44" width="26.0027" height="27.0027" filterUnits="userSpaceOnUse" color-interpolation-filters="sRGB">
<feFlood flood-opacity="0" result="BackgroundImageFix"/>
<feBlend mode="normal" in="SourceGraphic" in2="BackgroundImageFix" result="shape"/>
<feColorMatrix in="SourceAlpha" type="matrix" values="0 0 0 0 0 0 0 0 0 0 0 0 0 0 0 0 0 0 127 0" result="hardAlpha"/>
<feOffset dy="1"/>
<feGaussianBlur stdDeviation="1.5"/>
<feComposite in2="hardAlpha" operator="arithmetic" k2="-1" k3="1"/>
<feColorMatrix type="matrix" values="0 0 0 0 0.894118 0 0 0 0 0.894118 0 0 0 0 0.901961 0 0 0 0.380491 0"/>
<feBlend mode="normal" in2="shape" result="effect1_innerShadow"/>
</filter>
<linearGradient id="paint0_linear" x1="250.79" y1="99.7362" x2="303.645" y2="530.21" gradientUnits="userSpaceOnUse">
<stop stop-color="#525981" stop-opacity="0.222883"/>
<stop offset="0.90098" stop-color="#2D324F" stop-opacity="0.222883"/>
<stop offset="1" stop-color="#292D4A" stop-opacity="0.0996377"/>
</linearGradient>
<linearGradient id="paint1_linear" x1="316.44" y1="487.597" x2="911.992" y2="414.472" gradientUnits="userSpaceOnUse">
<stop stop-color="white"/>
<stop offset="0.0202749" stop-color="#F9FBFB"/>
<stop offset="0.0457175" stop-color="white"/>
<stop offset="0.946132" stop-color="white"/>
<stop offset="0.976303" stop-color="#FCFDFD"/>
<stop offset="1" stop-color="white"/>
</linearGradient>
<linearGradient id="paint2_linear" x1="386.378" y1="145.871" x2="389.194" y2="168.805" gradientUnits="userSpaceOnUse">
<stop stop-color="#FFC5B1"/>
<stop offset="1" stop-color="#FF5782"/>
</linearGradient>
<linearGradient id="paint3_linear" x1="795.799" y1="197.41" x2="791.186" y2="224.325" gradientUnits="userSpaceOnUse">
<stop stop-color="#C2F1A1"/>
<stop offset="1" stop-color="#8EE067"/>
</linearGradient>
<linearGradient id="paint4_linear" x1="789.018" y1="142.188" x2="784.406" y2="169.102" gradientUnits="userSpaceOnUse">
<stop stop-color="#C2F1A1"/>
<stop offset="1" stop-color="#8EE067"/>
</linearGradient>
<linearGradient id="paint5_linear" x1="802.579" y1="252.633" x2="797.967" y2="279.548" gradientUnits="userSpaceOnUse">
<stop stop-color="#C2F1A1"/>
<stop offset="1" stop-color="#8EE067"/>
</linearGradient>
<linearGradient id="paint6_linear" x1="809.36" y1="307.856" x2="804.747" y2="334.771" gradientUnits="userSpaceOnUse">
<stop stop-color="#C2F1A1"/>
<stop offset="1" stop-color="#8EE067"/>
</linearGradient>
<linearGradient id="paint7_linear" x1="816.141" y1="363.079" x2="811.528" y2="389.994" gradientUnits="userSpaceOnUse">
<stop stop-color="#C2F1A1"/>
<stop offset="1" stop-color="#8EE067"/>
</linearGradient>
<linearGradient id="paint8_linear" x1="761.053" y1="59.3613" x2="763.258" y2="77.3177" gradientUnits="userSpaceOnUse">
<stop stop-color="#00E2C8"/>
<stop offset="1" stop-color="#327FF6"/>
</linearGradient>
<linearGradient id="paint9_linear" x1="14.283" y1="129.763" x2="67.1305" y2="560.17" gradientUnits="userSpaceOnUse">
<stop stop-color="#525981" stop-opacity="0.222883"/>
<stop offset="0.90098" stop-color="#2D324F" stop-opacity="0.222883"/>
<stop offset="1" stop-color="#292D4A" stop-opacity="0.0996377"/>
</linearGradient>
<linearGradient id="paint10_linear" x1="68.4219" y1="519.03" x2="278.617" y2="493.222" gradientUnits="userSpaceOnUse">
<stop stop-color="white"/>
<stop offset="0.0202749" stop-color="#F9FBFB"/>
<stop offset="0.0457175" stop-color="white"/>
<stop offset="0.946132" stop-color="white"/>
<stop offset="0.976303" stop-color="#FCFDFD"/>
<stop offset="1" stop-color="white"/>
</linearGradient>
<linearGradient id="paint11_linear" x1="158.482" y1="497.605" x2="184.506" y2="494.41" gradientUnits="userSpaceOnUse">
<stop stop-color="white"/>
<stop offset="0.0202749" stop-color="#F9FBFB"/>
<stop offset="0.0457175" stop-color="white"/>
<stop offset="0.946132" stop-color="white"/>
<stop offset="0.976303" stop-color="#FCFDFD"/>
<stop offset="1" stop-color="white"/>
</linearGradient>
<linearGradient id="paint12_linear" x1="182.799" y1="170.224" x2="182.799" y2="182.224" gradientUnits="userSpaceOnUse">
<stop stop-color="#00E2C8"/>
<stop offset="1" stop-color="#327FF6"/>
</linearGradient>
<linearGradient id="paint13_linear" x1="212.043" y1="317.785" x2="206.044" y2="334.725" gradientUnits="userSpaceOnUse">
<stop stop-color="#C2F1A1"/>
<stop offset="1" stop-color="#8EE067"/>
</linearGradient>
<linearGradient id="paint14_linear" x1="215.333" y1="344.584" x2="209.335" y2="361.524" gradientUnits="userSpaceOnUse">
<stop stop-color="#C2F1A1"/>
<stop offset="1" stop-color="#8EE067"/>
</linearGradient>
<linearGradient id="paint15_linear" x1="218.624" y1="371.383" x2="212.625" y2="388.323" gradientUnits="userSpaceOnUse">
<stop stop-color="#C2F1A1"/>
<stop offset="1" stop-color="#8EE067"/>
</linearGradient>
<linearGradient id="paint16_linear" x1="221.914" y1="398.181" x2="215.916" y2="415.121" gradientUnits="userSpaceOnUse">
<stop stop-color="#C2F1A1"/>
<stop offset="1" stop-color="#8EE067"/>
</linearGradient>
<linearGradient id="paint17_linear" x1="225.205" y1="424.98" x2="219.206" y2="441.92" gradientUnits="userSpaceOnUse">
<stop stop-color="#C2F1A1"/>
<stop offset="1" stop-color="#8EE067"/>
</linearGradient>
<linearGradient id="paint18_linear" x1="65.761" y1="222.117" x2="56.1049" y2="234.117" gradientUnits="userSpaceOnUse">
<stop stop-color="#FF7272"/>
<stop offset="1" stop-color="#FFBE3E"/>
</linearGradient>
<linearGradient id="paint19_linear" x1="187.799" y1="211.224" x2="187.799" y2="223.224" gradientUnits="userSpaceOnUse">
<stop stop-color="#00E2C8"/>
<stop offset="1" stop-color="#327FF6"/>
</linearGradient>
<linearGradient id="paint20_linear" x1="59.761" y1="182.117" x2="50.1049" y2="194.117" gradientUnits="userSpaceOnUse">
<stop stop-color="#FF7272"/>
<stop offset="1" stop-color="#FFBE3E"/>
</linearGradient>
</defs>
</svg>
