<svg width="320" height="469" viewBox="0 0 320 469" fill="none" xmlns="http://www.w3.org/2000/svg">
<path fill-rule="evenodd" clip-rule="evenodd" d="M0 0H320V348.925L0 469V0Z" fill="url(#paint0_linear)"/>
<mask id="mask0" mask-type="alpha" maskUnits="userSpaceOnUse" x="0" y="0" width="320" height="469">
<path fill-rule="evenodd" clip-rule="evenodd" d="M0 0H320V348.925L0 469V0Z" fill="white"/>
</mask>
<g mask="url(#mask0)">
<path opacity="0.462013" fill-rule="evenodd" clip-rule="evenodd" d="M-41.1299 121.922L64.4455 105.2L69.3438 136.127L-36.2316 152.848L-41.1299 121.922Z" fill="url(#paint1_linear)"/>
<rect x="-78.3623" y="64.4136" width="249.556" height="31.3122" transform="rotate(-9 -78.3623 64.4136)" fill="url(#paint2_linear)"/>
<rect x="243.829" y="61.5745" width="249.556" height="31.3122" transform="rotate(-9 243.829 61.5745)" fill="url(#paint3_linear)"/>
<rect opacity="0.231941" x="-83.2607" y="33.4868" width="320" height="31.3122" transform="rotate(-9 -83.2607 33.4868)" fill="url(#paint4_linear)"/>
<rect x="-87.6719" y="2.3269" width="119.778" height="31.3122" transform="rotate(-9 -87.6719 2.3269)" fill="url(#paint5_linear)"/>
<rect opacity="0.334692" x="-40.7605" y="90.1606" width="234.222" height="31.3122" transform="rotate(-9 -40.7605 90.1606)" fill="url(#paint6_linear)"/>
<rect opacity="0.791893" x="212.293" y="98.272" width="161.681" height="31.3122" transform="rotate(-9 212.293 98.272)" fill="url(#paint7_linear)"/>
<rect opacity="0.791893" x="231.458" y="126.939" width="161.681" height="31.3122" transform="rotate(-9 231.458 126.939)" fill="url(#paint8_linear)"/>
<path opacity="0.132869" fill-rule="evenodd" clip-rule="evenodd" d="M331.032 120.563C304.812 114.401 180.898 143.018 112.49 146.624C92.8494 151.41 215.423 146.624 215.423 146.624L331.032 149.333C331.032 149.333 357.501 128.709 331.032 120.563Z" fill="url(#paint9_linear)"/>
<path opacity="0.132869" fill-rule="evenodd" clip-rule="evenodd" d="M116.222 145.302L219.155 145.302L334.764 148.01L116.222 145.302Z" fill="url(#paint10_linear)"/>
<path opacity="0.132869" fill-rule="evenodd" clip-rule="evenodd" d="M331.032 140.55C304.812 134.388 180.898 163.005 112.49 166.61C92.8494 171.397 215.423 166.61 215.423 166.61L331.032 169.319C331.032 169.319 357.501 148.696 331.032 140.55Z" fill="url(#paint11_linear)"/>
<path opacity="0.132869" fill-rule="evenodd" clip-rule="evenodd" d="M116.222 165.288L219.155 165.288L334.764 167.997L116.222 165.288Z" fill="url(#paint12_linear)"/>
</g>
<defs>
<linearGradient id="paint0_linear" x1="113.579" y1="-511.989" x2="-414.426" y2="36.8678" gradientUnits="userSpaceOnUse">
<stop stop-color="#F56AF9"/>
<stop offset="1" stop-color="#945EDC"/>
</linearGradient>
<linearGradient id="paint1_linear" x1="58.7964" y1="103.985" x2="-23.6129" y2="150.199" gradientUnits="userSpaceOnUse">
<stop stop-color="#FED0FF" stop-opacity="0.01"/>
<stop offset="1" stop-color="#FFB6ED"/>
</linearGradient>
<linearGradient id="paint2_linear" x1="151.631" y1="64.2511" x2="65.5756" y2="163.172" gradientUnits="userSpaceOnUse">
<stop stop-color="#B76FF6" stop-opacity="0.01"/>
<stop offset="1" stop-color="#A362F4"/>
</linearGradient>
<linearGradient id="paint3_linear" x1="278.915" y1="85.964" x2="302.14" y2="31.4259" gradientUnits="userSpaceOnUse">
<stop stop-color="#B76FF6" stop-opacity="0.01"/>
<stop offset="1" stop-color="#A362F4"/>
</linearGradient>
<linearGradient id="paint4_linear" x1="70.7533" y1="40.1852" x2="40.1069" y2="97.6618" gradientUnits="userSpaceOnUse">
<stop stop-color="#F8A5C5" stop-opacity="0.01"/>
<stop offset="1" stop-color="#F481E5"/>
</linearGradient>
<linearGradient id="paint5_linear" x1="30.1361" y1="2.86978" x2="-85.4884" y2="2.86978" gradientUnits="userSpaceOnUse">
<stop stop-color="#D280F8" stop-opacity="0.01"/>
<stop offset="1" stop-color="#A458EC"/>
</linearGradient>
<linearGradient id="paint6_linear" x1="193.213" y1="89.0162" x2="100.626" y2="-44.6589" gradientUnits="userSpaceOnUse">
<stop stop-color="#EEC9FF" stop-opacity="0.01"/>
<stop offset="1" stop-color="#F15CDA"/>
</linearGradient>
<linearGradient id="paint7_linear" x1="315.132" y1="102.853" x2="235.711" y2="102.853" gradientUnits="userSpaceOnUse">
<stop stop-color="#DD81FF"/>
<stop offset="1" stop-color="#FBA1FF" stop-opacity="0.083673"/>
</linearGradient>
<linearGradient id="paint8_linear" x1="334.297" y1="131.481" x2="254.477" y2="131.481" gradientUnits="userSpaceOnUse">
<stop stop-color="#FFAEB4"/>
<stop offset="1" stop-color="#FFA1E2" stop-opacity="0.01"/>
</linearGradient>
<linearGradient id="paint9_linear" x1="372.584" y1="112.54" x2="372.584" y2="149.333" gradientUnits="userSpaceOnUse">
<stop stop-color="#B6A6FF"/>
<stop offset="1" stop-color="#937FF1"/>
</linearGradient>
<linearGradient id="paint10_linear" x1="361.156" y1="144.647" x2="361.156" y2="148.01" gradientUnits="userSpaceOnUse">
<stop stop-color="#B6A6FF"/>
<stop offset="1" stop-color="#937FF1"/>
</linearGradient>
<linearGradient id="paint11_linear" x1="372.584" y1="132.526" x2="372.584" y2="169.319" gradientUnits="userSpaceOnUse">
<stop stop-color="#B6A6FF"/>
<stop offset="1" stop-color="#937FF1"/>
</linearGradient>
<linearGradient id="paint12_linear" x1="361.156" y1="164.634" x2="361.156" y2="167.997" gradientUnits="userSpaceOnUse">
<stop stop-color="#B6A6FF"/>
<stop offset="1" stop-color="#937FF1"/>
</linearGradient>
</defs>
</svg>
