<svg width="1024" height="463" viewBox="0 0 1024 463" fill="none" xmlns="http://www.w3.org/2000/svg">
<path opacity="0.462013" fill-rule="evenodd" clip-rule="evenodd" d="M-131.625 389.961L206.217 336.452L221.88 435.347L-115.961 488.856L-131.625 389.961Z" fill="url(#paint0_linear)"/>
<rect x="-250.746" y="206.077" width="798.578" height="100.127" transform="rotate(-9 -250.746 206.077)" fill="url(#paint1_linear)"/>
<rect x="780.251" y="196.885" width="798.578" height="100.127" transform="rotate(-9 780.251 196.885)" fill="url(#paint2_linear)"/>
<rect opacity="0.231941" x="-266.409" y="107.183" width="1024" height="100.127" transform="rotate(-9 -266.409 107.183)" fill="url(#paint3_linear)"/>
<rect x="-280.513" y="7.54297" width="383.289" height="100.127" transform="rotate(-9 -280.513 7.54297)" fill="url(#paint4_linear)"/>
<rect opacity="0.334692" x="-130.431" y="288.397" width="749.511" height="100.127" transform="rotate(-9 -130.431 288.397)" fill="url(#paint5_linear)"/>
<rect opacity="0.791893" x="679.323" y="314.245" width="517.38" height="100.127" transform="rotate(-9 679.323 314.245)" fill="url(#paint6_linear)"/>
<rect opacity="0.791893" x="740.639" y="405.909" width="517.38" height="100.127" transform="rotate(-9 740.639 405.909)" fill="url(#paint7_linear)"/>
<defs>
<linearGradient id="paint0_linear" x1="188.14" y1="332.568" x2="-75.5122" y2="480.502" gradientUnits="userSpaceOnUse">
<stop stop-color="#FED0FF" stop-opacity="0.01"/>
<stop offset="1" stop-color="#FFB6ED"/>
</linearGradient>
<linearGradient id="paint1_linear" x1="485.233" y1="205.558" x2="210.081" y2="522.075" gradientUnits="userSpaceOnUse">
<stop stop-color="#B76FF6" stop-opacity="0.01"/>
<stop offset="1" stop-color="#A362F4"/>
</linearGradient>
<linearGradient id="paint2_linear" x1="892.523" y1="274.875" x2="966.753" y2="100.44" gradientUnits="userSpaceOnUse">
<stop stop-color="#B76FF6" stop-opacity="0.01"/>
<stop offset="1" stop-color="#A362F4"/>
</linearGradient>
<linearGradient id="paint3_linear" x1="226.436" y1="128.602" x2="128.477" y2="312.454" gradientUnits="userSpaceOnUse">
<stop stop-color="#F8A5C5" stop-opacity="0.01"/>
<stop offset="1" stop-color="#F481E5"/>
</linearGradient>
<linearGradient id="paint4_linear" x1="96.472" y1="9.27894" x2="-273.526" y2="9.27894" gradientUnits="userSpaceOnUse">
<stop stop-color="#D280F8" stop-opacity="0.01"/>
<stop offset="1" stop-color="#A458EC"/>
</linearGradient>
<linearGradient id="paint5_linear" x1="618.286" y1="284.737" x2="322.291" y2="-142.915" gradientUnits="userSpaceOnUse">
<stop stop-color="#EEC9FF" stop-opacity="0.01"/>
<stop offset="1" stop-color="#F15CDA"/>
</linearGradient>
<linearGradient id="paint6_linear" x1="1008.41" y1="328.771" x2="752.984" y2="328.771" gradientUnits="userSpaceOnUse">
<stop stop-color="#FFAEB4"/>
<stop offset="1" stop-color="#FFA1E2" stop-opacity="0.01"/>
</linearGradient>
<linearGradient id="paint7_linear" x1="1069.72" y1="420.435" x2="814.3" y2="420.435" gradientUnits="userSpaceOnUse">
<stop stop-color="#FFAEB4"/>
<stop offset="1" stop-color="#FFA1E2" stop-opacity="0.01"/>
</linearGradient>
</defs>
</svg>
