<svg width="907" height="545" viewBox="0 0 907 545" fill="none" xmlns="http://www.w3.org/2000/svg">
<g opacity="0.522135" filter="url(#filter0_f)">
<path fill-rule="evenodd" clip-rule="evenodd" d="M258.736 101.958L287.847 92.081L801.254 29.0425L823.534 40.127L834.473 63.6341L877.245 381.481C877.245 381.481 867.16 401.357 862.851 404.121C858.542 406.885 832.573 430.216 832.573 430.216L340.855 490.591C340.855 490.591 309.555 486.282 301.74 480.227C293.925 474.173 286.681 445.761 286.681 445.761L248.595 135.571L258.736 101.958Z" fill="url(#paint0_linear)"/>
</g>
<path fill-rule="evenodd" clip-rule="evenodd" d="M246.598 119.311C244.781 104.51 255.306 91.039 270.107 89.2217L807.074 23.2904C821.875 21.4731 835.346 31.9982 837.163 46.7987L879.577 392.232C881.395 407.032 870.869 420.504 856.069 422.321L319.101 488.252C304.301 490.069 290.83 479.544 289.012 464.744L246.598 119.311Z" fill="url(#paint1_linear)"/>
<path d="M247.045 119.256C245.258 104.702 255.608 91.4554 270.162 89.6684L807.129 23.7371C821.683 21.9501 834.93 32.2997 836.717 46.8535L879.131 392.286C880.918 406.84 870.568 420.087 856.014 421.874L319.047 487.805C304.493 489.592 291.246 479.243 289.459 464.689L247.045 119.256Z" stroke="#F0F1F6" stroke-opacity="0.233894" stroke-width="0.9"/>
<path fill-rule="evenodd" clip-rule="evenodd" d="M287.152 104.962C286.97 103.482 288.023 102.135 289.503 101.953L790.342 40.4577C791.822 40.2759 793.169 41.3284 793.351 42.8085L838.028 406.676C838.21 408.156 837.157 409.503 835.677 409.685L334.838 471.18C333.358 471.362 332.011 470.309 331.829 468.829L287.152 104.962Z" fill="url(#paint2_linear)"/>
<g opacity="0.3" filter="url(#filter1_f)">
<rect x="340.123" y="175.331" width="451" height="34" transform="rotate(-7 340.123 175.331)" fill="url(#paint3_linear)"/>
</g>
<rect x="339.757" y="172.353" width="451" height="34" rx="5" transform="rotate(-7 339.757 172.353)" fill="white"/>
<path opacity="0.615319" fill-rule="evenodd" clip-rule="evenodd" d="M707.147 144.875C706.777 141.86 708.921 139.116 711.935 138.745L752.63 133.749C755.645 133.379 758.389 135.523 758.759 138.538C759.129 141.552 756.985 144.297 753.97 144.667L713.276 149.663C710.261 150.034 707.517 147.89 707.147 144.875Z" fill="#C8D7E9"/>
<path fill-rule="evenodd" clip-rule="evenodd" d="M603.356 161.145C605.549 160.876 607.108 158.88 606.839 156.687C606.569 154.494 604.574 152.935 602.381 153.204C600.188 153.474 598.629 155.469 598.898 157.662C599.168 159.855 601.163 161.414 603.356 161.145Z" fill="url(#paint4_linear)"/>
<path opacity="0.615319" fill-rule="evenodd" clip-rule="evenodd" d="M616.581 153.98C616.548 153.706 616.743 153.456 617.017 153.422L660.689 148.06C660.963 148.027 661.212 148.221 661.246 148.496L661.612 151.473C661.645 151.747 661.45 151.997 661.176 152.03L617.504 157.393C617.23 157.426 616.981 157.231 616.947 156.957L616.581 153.98Z" fill="#C8D7E9"/>
<path opacity="0.615319" fill-rule="evenodd" clip-rule="evenodd" d="M363.395 196.653C369.151 195.947 373.244 190.708 372.537 184.952C371.83 179.196 366.591 175.103 360.835 175.81C355.08 176.517 350.987 181.756 351.693 187.511C352.4 193.267 357.639 197.36 363.395 196.653Z" fill="#C8D7E9"/>
<path opacity="0.615319" fill-rule="evenodd" clip-rule="evenodd" d="M382.34 182.741C382.307 182.467 382.502 182.217 382.776 182.184L421.485 177.431C421.759 177.397 422.009 177.592 422.042 177.866L422.408 180.844C422.442 181.118 422.247 181.367 421.973 181.401L383.263 186.154C382.989 186.188 382.74 185.993 382.706 185.719L382.34 182.741Z" fill="#C8D7E9"/>
<path opacity="0.615319" fill-rule="evenodd" clip-rule="evenodd" d="M503.431 167.873C503.397 167.599 503.592 167.349 503.866 167.316L552.501 161.344C552.775 161.31 553.025 161.505 553.058 161.779L553.424 164.757C553.458 165.031 553.263 165.28 552.989 165.314L504.354 171.286C504.08 171.319 503.83 171.124 503.797 170.85L503.431 167.873Z" fill="#C8D7E9"/>
<g opacity="0.3" filter="url(#filter2_f)">
<rect x="345.851" y="221.98" width="451" height="34" transform="rotate(-7 345.851 221.98)" fill="url(#paint5_linear)"/>
</g>
<rect x="345.485" y="219.003" width="451" height="34" rx="5" transform="rotate(-7 345.485 219.003)" fill="white"/>
<path opacity="0.615319" fill-rule="evenodd" clip-rule="evenodd" d="M712.875 191.525C712.504 188.51 714.648 185.766 717.663 185.395L758.358 180.399C761.373 180.029 764.117 182.173 764.487 185.187C764.857 188.202 762.713 190.947 759.698 191.317L719.004 196.313C715.989 196.684 713.245 194.54 712.875 191.525Z" fill="#C8D7E9"/>
<path fill-rule="evenodd" clip-rule="evenodd" d="M609.084 207.795C611.276 207.525 612.836 205.53 612.567 203.337C612.297 201.144 610.302 199.585 608.109 199.854C605.916 200.124 604.357 202.119 604.626 204.312C604.895 206.505 606.891 208.064 609.084 207.795Z" fill="url(#paint6_linear)"/>
<path opacity="0.615319" fill-rule="evenodd" clip-rule="evenodd" d="M622.309 200.63C622.276 200.355 622.47 200.106 622.745 200.072L666.417 194.71C666.691 194.676 666.94 194.871 666.974 195.145L667.339 198.123C667.373 198.397 667.178 198.647 666.904 198.68L623.232 204.043C622.958 204.076 622.708 203.881 622.675 203.607L622.309 200.63Z" fill="#C8D7E9"/>
<path opacity="0.615319" fill-rule="evenodd" clip-rule="evenodd" d="M369.123 243.303C374.878 242.597 378.971 237.358 378.265 231.602C377.558 225.846 372.319 221.753 366.563 222.46C360.808 223.167 356.715 228.405 357.421 234.161C358.128 239.917 363.367 244.01 369.123 243.303Z" fill="#C8D7E9"/>
<path opacity="0.615319" fill-rule="evenodd" clip-rule="evenodd" d="M388.068 229.391C388.035 229.117 388.23 228.867 388.504 228.834L427.213 224.081C427.487 224.047 427.737 224.242 427.77 224.516L428.136 227.494C428.169 227.768 427.975 228.017 427.7 228.051L388.991 232.804C388.717 232.837 388.468 232.643 388.434 232.368L388.068 229.391Z" fill="#C8D7E9"/>
<path opacity="0.615319" fill-rule="evenodd" clip-rule="evenodd" d="M509.159 214.523C509.125 214.249 509.32 213.999 509.594 213.965L558.229 207.994C558.503 207.96 558.753 208.155 558.786 208.429L559.152 211.407C559.185 211.681 558.991 211.93 558.716 211.964L510.082 217.936C509.808 217.969 509.558 217.774 509.525 217.5L509.159 214.523Z" fill="#C8D7E9"/>
<g opacity="0.3" filter="url(#filter3_f)">
<rect x="351.578" y="268.63" width="451" height="34" transform="rotate(-7 351.578 268.63)" fill="url(#paint7_linear)"/>
</g>
<rect x="351.213" y="265.653" width="451" height="34" rx="5" transform="rotate(-7 351.213 265.653)" fill="white"/>
<path opacity="0.615319" fill-rule="evenodd" clip-rule="evenodd" d="M718.602 238.174C718.232 235.159 720.376 232.415 723.391 232.045L764.086 227.048C767.1 226.678 769.845 228.822 770.215 231.837C770.585 234.852 768.441 237.596 765.426 237.966L724.732 242.963C721.717 243.333 718.973 241.189 718.602 238.174Z" fill="url(#paint8_linear)"/>
<path fill-rule="evenodd" clip-rule="evenodd" d="M614.812 254.444C617.004 254.175 618.564 252.179 618.294 249.987C618.025 247.794 616.029 246.235 613.837 246.504C611.644 246.773 610.085 248.769 610.354 250.962C610.623 253.154 612.619 254.714 614.812 254.444Z" fill="url(#paint9_linear)"/>
<path opacity="0.615319" fill-rule="evenodd" clip-rule="evenodd" d="M628.037 247.279C628.003 247.005 628.198 246.756 628.472 246.722L672.144 241.36C672.418 241.326 672.668 241.521 672.702 241.795L673.067 244.773C673.101 245.047 672.906 245.296 672.632 245.33L628.96 250.692C628.686 250.726 628.436 250.531 628.403 250.257L628.037 247.279Z" fill="#C8D7E9"/>
<path fill-rule="evenodd" clip-rule="evenodd" d="M374.85 289.953C380.606 289.246 384.699 284.007 383.993 278.252C383.286 272.496 378.047 268.403 372.291 269.11C366.535 269.816 362.442 275.055 363.149 280.811C363.856 286.567 369.095 290.66 374.85 289.953Z" fill="url(#paint10_linear)"/>
<path opacity="0.615319" fill-rule="evenodd" clip-rule="evenodd" d="M393.796 276.04C393.763 275.766 393.957 275.517 394.232 275.483L432.941 270.73C433.215 270.697 433.464 270.892 433.498 271.166L433.864 274.143C433.897 274.417 433.702 274.667 433.428 274.701L394.719 279.453C394.445 279.487 394.195 279.292 394.162 279.018L393.796 276.04Z" fill="#C8D7E9"/>
<path opacity="0.615319" fill-rule="evenodd" clip-rule="evenodd" d="M514.887 261.172C514.853 260.898 515.048 260.649 515.322 260.615L563.957 254.643C564.231 254.61 564.48 254.805 564.514 255.079L564.88 258.056C564.913 258.331 564.718 258.58 564.444 258.614L515.81 264.585C515.535 264.619 515.286 264.424 515.252 264.15L514.887 261.172Z" fill="#C8D7E9"/>
<g opacity="0.3" filter="url(#filter4_f)">
<rect x="357.306" y="315.28" width="451" height="34" transform="rotate(-7 357.306 315.28)" fill="url(#paint11_linear)"/>
</g>
<rect x="356.941" y="312.302" width="451" height="34" rx="5" transform="rotate(-7 356.941 312.302)" fill="white"/>
<path opacity="0.615319" fill-rule="evenodd" clip-rule="evenodd" d="M724.33 284.824C723.96 281.809 726.104 279.065 729.119 278.695L769.813 273.698C772.828 273.328 775.573 275.472 775.943 278.487C776.313 281.502 774.169 284.246 771.154 284.616L730.46 289.613C727.445 289.983 724.701 287.839 724.33 284.824Z" fill="#C8D7E9"/>
<path opacity="0.615319" fill-rule="evenodd" clip-rule="evenodd" d="M620.539 301.094C622.732 300.825 624.291 298.829 624.022 296.636C623.753 294.444 621.757 292.884 619.565 293.154C617.372 293.423 615.813 295.419 616.082 297.611C616.351 299.804 618.347 301.363 620.539 301.094Z" fill="#C8D7E9"/>
<path opacity="0.615319" fill-rule="evenodd" clip-rule="evenodd" d="M633.765 293.929C633.731 293.655 633.926 293.405 634.2 293.372L677.872 288.009C678.146 287.976 678.396 288.171 678.429 288.445L678.795 291.422C678.829 291.696 678.634 291.946 678.36 291.98L634.688 297.342C634.414 297.376 634.164 297.181 634.13 296.907L633.765 293.929Z" fill="#C8D7E9"/>
<path opacity="0.615319" fill-rule="evenodd" clip-rule="evenodd" d="M380.578 336.603C386.334 335.896 390.427 330.657 389.72 324.901C389.014 319.146 383.775 315.052 378.019 315.759C372.263 316.466 368.17 321.705 368.877 327.461C369.584 333.216 374.823 337.309 380.578 336.603Z" fill="#C8D7E9"/>
<path opacity="0.615319" fill-rule="evenodd" clip-rule="evenodd" d="M399.524 322.69C399.49 322.416 399.685 322.167 399.959 322.133L438.669 317.38C438.943 317.346 439.192 317.541 439.226 317.815L439.591 320.793C439.625 321.067 439.43 321.317 439.156 321.35L400.447 326.103C400.173 326.137 399.923 325.942 399.89 325.668L399.524 322.69Z" fill="#C8D7E9"/>
<path opacity="0.615319" fill-rule="evenodd" clip-rule="evenodd" d="M520.615 307.822C520.581 307.548 520.776 307.298 521.05 307.265L569.685 301.293C569.959 301.259 570.208 301.454 570.242 301.728L570.607 304.706C570.641 304.98 570.446 305.23 570.172 305.263L521.537 311.235C521.263 311.269 521.014 311.074 520.98 310.8L520.615 307.822Z" fill="#C8D7E9"/>
<g opacity="0.3" filter="url(#filter5_f)">
<rect x="363.034" y="361.929" width="451" height="34" transform="rotate(-7 363.034 361.929)" fill="url(#paint12_linear)"/>
</g>
<rect x="362.669" y="358.952" width="451" height="34" rx="5" transform="rotate(-7 362.669 358.952)" fill="white"/>
<path opacity="0.615319" fill-rule="evenodd" clip-rule="evenodd" d="M730.058 331.474C729.688 328.459 731.832 325.715 734.847 325.344L775.541 320.348C778.556 319.978 781.3 322.122 781.671 325.136C782.041 328.151 779.897 330.896 776.882 331.266L736.188 336.262C733.173 336.633 730.428 334.489 730.058 331.474Z" fill="#C8D7E9"/>
<path opacity="0.615319" fill-rule="evenodd" clip-rule="evenodd" d="M626.267 347.744C628.46 347.474 630.019 345.479 629.75 343.286C629.481 341.093 627.485 339.534 625.292 339.803C623.1 340.073 621.541 342.068 621.81 344.261C622.079 346.454 624.075 348.013 626.267 347.744Z" fill="#C8D7E9"/>
<path opacity="0.615319" fill-rule="evenodd" clip-rule="evenodd" d="M639.493 340.579C639.459 340.304 639.654 340.055 639.928 340.021L683.6 334.659C683.874 334.625 684.124 334.82 684.157 335.094L684.523 338.072C684.557 338.346 684.362 338.596 684.088 338.629L640.416 343.992C640.141 344.025 639.892 343.83 639.858 343.556L639.493 340.579Z" fill="#C8D7E9"/>
<path opacity="0.615319" fill-rule="evenodd" clip-rule="evenodd" d="M386.306 383.252C392.062 382.546 396.155 377.307 395.448 371.551C394.742 365.795 389.503 361.702 383.747 362.409C377.991 363.116 373.898 368.354 374.605 374.11C375.312 379.866 380.55 383.959 386.306 383.252Z" fill="#C8D7E9"/>
<path opacity="0.615319" fill-rule="evenodd" clip-rule="evenodd" d="M405.252 369.34C405.218 369.066 405.413 368.816 405.687 368.783L444.397 364.03C444.671 363.996 444.92 364.191 444.954 364.465L445.319 367.443C445.353 367.717 445.158 367.966 444.884 368L406.175 372.753C405.901 372.786 405.651 372.592 405.618 372.317L405.252 369.34Z" fill="#C8D7E9"/>
<path opacity="0.615319" fill-rule="evenodd" clip-rule="evenodd" d="M526.342 354.472C526.309 354.198 526.504 353.948 526.778 353.914L575.413 347.943C575.687 347.909 575.936 348.104 575.97 348.378L576.335 351.356C576.369 351.63 576.174 351.879 575.9 351.913L527.265 357.885C526.991 357.918 526.742 357.723 526.708 357.449L526.342 354.472Z" fill="#C8D7E9"/>
<g opacity="0.3" filter="url(#filter6_f)">
<rect x="368.762" y="408.579" width="451" height="34" transform="rotate(-7 368.762 408.579)" fill="url(#paint13_linear)"/>
</g>
<rect x="368.396" y="405.602" width="451" height="34" rx="5" transform="rotate(-7 368.396 405.602)" fill="white"/>
<path opacity="0.615319" fill-rule="evenodd" clip-rule="evenodd" d="M735.786 378.123C735.416 375.108 737.56 372.364 740.575 371.994L781.269 366.997C784.284 366.627 787.028 368.771 787.398 371.786C787.769 374.801 785.625 377.545 782.61 377.915L741.915 382.912C738.9 383.282 736.156 381.138 735.786 378.123Z" fill="#C8D7E9"/>
<path opacity="0.615319" fill-rule="evenodd" clip-rule="evenodd" d="M631.995 394.393C634.188 394.124 635.747 392.128 635.478 389.936C635.209 387.743 633.213 386.184 631.02 386.453C628.828 386.722 627.268 388.718 627.538 390.911C627.807 393.103 629.803 394.663 631.995 394.393Z" fill="#C8D7E9"/>
<path opacity="0.615319" fill-rule="evenodd" clip-rule="evenodd" d="M645.221 387.228C645.187 386.954 645.382 386.705 645.656 386.671L689.328 381.309C689.602 381.275 689.852 381.47 689.885 381.744L690.251 384.722C690.284 384.996 690.09 385.245 689.815 385.279L646.143 390.641C645.869 390.675 645.62 390.48 645.586 390.206L645.221 387.228Z" fill="#C8D7E9"/>
<path opacity="0.615319" fill-rule="evenodd" clip-rule="evenodd" d="M392.034 429.902C397.79 429.195 401.883 423.956 401.176 418.201C400.469 412.445 395.231 408.352 389.475 409.059C383.719 409.765 379.626 415.004 380.333 420.76C381.039 426.516 386.278 430.609 392.034 429.902Z" fill="#C8D7E9"/>
<path opacity="0.615319" fill-rule="evenodd" clip-rule="evenodd" d="M410.98 415.989C410.946 415.715 411.141 415.466 411.415 415.432L450.124 410.679C450.398 410.646 450.648 410.841 450.682 411.115L451.047 414.092C451.081 414.366 450.886 414.616 450.612 414.65L411.903 419.402C411.628 419.436 411.379 419.241 411.345 418.967L410.98 415.989Z" fill="#C8D7E9"/>
<path opacity="0.615319" fill-rule="evenodd" clip-rule="evenodd" d="M532.07 401.121C532.037 400.847 532.232 400.598 532.506 400.564L581.14 394.592C581.415 394.559 581.664 394.754 581.698 395.028L582.063 398.005C582.097 398.28 581.902 398.529 581.628 398.563L532.993 404.534C532.719 404.568 532.47 404.373 532.436 404.099L532.07 401.121Z" fill="#C8D7E9"/>
<path d="M315.729 99.7402L790.364 41.4623C791.351 41.3412 792.249 42.0428 792.37 43.0295L796.416 75.9821L319.994 134.479L315.729 99.7402Z" fill="url(#paint14_linear)"/>
<path fill-rule="evenodd" clip-rule="evenodd" d="M772.865 68.7986C776.977 68.2938 779.9 64.5518 779.395 60.4405C778.891 56.3293 775.148 53.4056 771.037 53.9104C766.926 54.4152 764.002 58.1573 764.507 62.2686C765.012 66.3798 768.754 69.3034 772.865 68.7986Z" fill="white"/>
<mask id="mask0" mask-type="alpha" maskUnits="userSpaceOnUse" x="763" y="52" width="18" height="18">
<path fill-rule="evenodd" clip-rule="evenodd" d="M772.865 68.7986C776.977 68.2938 779.9 64.5518 779.395 60.4405C778.891 56.3293 775.148 53.4056 771.037 53.9104C766.926 54.4152 764.002 58.1573 764.507 62.2686C765.012 66.3798 768.754 69.3034 772.865 68.7986Z" fill="white"/>
</mask>
<g mask="url(#mask0)">
<path fill-rule="evenodd" clip-rule="evenodd" d="M765.994 69.5409C765.556 65.973 768.094 62.7254 771.661 62.2873L772.969 62.1267C776.537 61.6887 779.785 64.2259 780.223 67.7938L765.994 69.5409Z" fill="url(#paint15_linear)"/>
<path fill-rule="evenodd" clip-rule="evenodd" d="M769.228 58.4802C768.678 56.8624 769.753 55.1474 771.45 54.9391C773.146 54.7309 774.605 56.1346 774.462 57.8376L774.346 59.2138C774.251 60.3484 773.373 61.2607 772.243 61.3995C771.113 61.5382 770.04 60.8654 769.673 59.7875L769.228 58.4802Z" fill="#C8D7E9"/>
<mask id="mask1" mask-type="alpha" maskUnits="userSpaceOnUse" x="768" y="54" width="7" height="8">
<path fill-rule="evenodd" clip-rule="evenodd" d="M769.228 58.4802C768.678 56.8624 769.753 55.1474 771.45 54.9391C773.146 54.7309 774.605 56.1346 774.462 57.8376L774.346 59.2138C774.251 60.3484 773.373 61.2607 772.243 61.3995C771.113 61.5382 770.04 60.8654 769.673 59.7875L769.228 58.4802Z" fill="white"/>
</mask>
<g mask="url(#mask1)">
<path fill-rule="evenodd" clip-rule="evenodd" d="M770.439 58.8989C768.758 59.1053 767.313 57.7145 767.455 56.0273L767.573 54.6206C767.668 53.4859 768.546 52.5736 769.676 52.4349C770.806 52.2961 771.879 52.9689 772.246 54.0468L772.357 54.3736L772.386 54.0296C772.481 52.895 773.359 51.9827 774.489 51.8439C775.619 51.7052 776.692 52.378 777.059 53.4559L777.504 54.7632C778.054 56.381 776.978 58.096 775.282 58.3042C774.201 58.437 773.216 57.9147 772.681 57.0774C772.358 58.0209 771.524 58.7656 770.439 58.8989Z" fill="url(#paint16_linear)"/>
</g>
</g>
<path fill-rule="evenodd" clip-rule="evenodd" d="M698.007 70.4339C697.636 67.4189 699.78 64.6748 702.795 64.3046L743.49 59.3079C746.505 58.9377 749.249 61.0817 749.619 64.0967C749.989 67.1116 747.845 69.8558 744.83 70.2259L704.136 75.2226C701.121 75.5928 698.377 73.4488 698.007 70.4339Z" fill="white"/>
<path fill-rule="evenodd" clip-rule="evenodd" d="M332.567 113.793C332.499 113.245 332.889 112.746 333.437 112.678L411.849 103.051C412.397 102.983 412.896 103.373 412.963 103.921L413.329 106.899C413.396 107.447 413.006 107.946 412.458 108.013L334.047 117.641C333.499 117.708 333 117.319 332.932 116.77L332.567 113.793Z" fill="#C8D7E9"/>
<path fill-rule="evenodd" clip-rule="evenodd" d="M319.994 134.479L796.416 75.982L799.463 100.796L323.041 159.293L319.994 134.479Z" fill="url(#paint17_linear)"/>
<path fill-rule="evenodd" clip-rule="evenodd" d="M701.48 98.7213C701.412 98.1731 701.802 97.6742 702.35 97.6069L730.142 94.1945C730.69 94.1272 731.189 94.5171 731.256 95.0652L731.622 98.0429C731.689 98.591 731.299 99.09 730.751 99.1573L702.96 102.57C702.412 102.637 701.913 102.247 701.845 101.699L701.48 98.7213Z" fill="#C8D7E9"/>
<path fill-rule="evenodd" clip-rule="evenodd" d="M593.292 112.005C593.225 111.457 593.615 110.958 594.163 110.891L616.992 108.088C617.54 108.021 618.039 108.41 618.106 108.959L618.472 111.936C618.539 112.484 618.149 112.983 617.601 113.051L594.772 115.854C594.224 115.921 593.725 115.531 593.658 114.983L593.292 112.005Z" fill="#C8D7E9"/>
<path fill-rule="evenodd" clip-rule="evenodd" d="M498.008 123.705C497.941 123.157 498.33 122.658 498.879 122.59L536.595 117.959C537.143 117.892 537.642 118.282 537.71 118.83L538.075 121.808C538.143 122.356 537.753 122.855 537.205 122.922L499.488 127.553C498.94 127.62 498.441 127.231 498.373 126.682L498.008 123.705Z" fill="#C8D7E9"/>
<path fill-rule="evenodd" clip-rule="evenodd" d="M336.223 143.569C336.156 143.021 336.545 142.522 337.093 142.455L354.959 140.261C355.507 140.194 356.006 140.584 356.074 141.132L356.439 144.109C356.507 144.658 356.117 145.157 355.569 145.224L337.703 147.418C337.155 147.485 336.656 147.095 336.588 146.547L336.223 143.569Z" fill="#C8D7E9"/>
<path fill-rule="evenodd" clip-rule="evenodd" d="M370.962 139.304C370.895 138.756 371.284 138.257 371.833 138.189L384.736 136.605C385.284 136.538 385.783 136.928 385.85 137.476L386.216 140.453C386.283 141.002 385.893 141.501 385.345 141.568L372.442 143.152C371.894 143.219 371.395 142.83 371.328 142.281L370.962 139.304Z" fill="#C8D7E9"/>
<path fill-rule="evenodd" clip-rule="evenodd" d="M287.042 104.069C286.921 103.082 287.623 102.184 288.61 102.063L315.607 98.7478L361.049 468.848L334.052 472.163C333.065 472.284 332.167 471.583 332.046 470.596L287.042 104.069Z" fill="url(#paint18_linear)"/>
<path opacity="0.5" fill-rule="evenodd" clip-rule="evenodd" d="M305.002 127.253C308.839 126.781 311.568 123.289 311.096 119.452C310.625 115.614 307.133 112.886 303.295 113.357C299.458 113.828 296.73 117.321 297.201 121.158C297.672 124.995 301.164 127.724 305.002 127.253Z" fill="white"/>
<path opacity="0.5" fill-rule="evenodd" clip-rule="evenodd" d="M321.941 265.217C324.134 264.947 325.693 262.952 325.424 260.759C325.155 258.566 323.159 257.007 320.967 257.276C318.774 257.545 317.215 259.541 317.484 261.734C317.753 263.927 319.749 265.486 321.941 265.217Z" fill="white"/>
<path opacity="0.5" fill-rule="evenodd" clip-rule="evenodd" d="M324.257 284.075C326.45 283.806 328.009 281.81 327.74 279.617C327.47 277.425 325.475 275.865 323.282 276.135C321.089 276.404 319.53 278.4 319.799 280.592C320.069 282.785 322.064 284.344 324.257 284.075Z" fill="white"/>
<path opacity="0.5" fill-rule="evenodd" clip-rule="evenodd" d="M326.451 301.941C328.643 301.671 330.203 299.676 329.933 297.483C329.664 295.29 327.668 293.731 325.476 294C323.283 294.27 321.724 296.265 321.993 298.458C322.262 300.651 324.258 302.21 326.451 301.941Z" fill="white"/>
<path opacity="0.5" fill-rule="evenodd" clip-rule="evenodd" d="M310.73 173.902C312.922 173.633 314.481 171.637 314.212 169.445C313.943 167.252 311.947 165.693 309.755 165.962C307.562 166.231 306.003 168.227 306.272 170.42C306.541 172.612 308.537 174.172 310.73 173.902Z" fill="white"/>
<path opacity="0.5" fill-rule="evenodd" clip-rule="evenodd" d="M313.045 192.761C315.238 192.492 316.797 190.496 316.528 188.303C316.258 186.11 314.263 184.551 312.07 184.82C309.877 185.09 308.318 187.085 308.587 189.278C308.857 191.471 310.852 193.03 313.045 192.761Z" fill="white"/>
<path opacity="0.5" fill-rule="evenodd" clip-rule="evenodd" d="M315.361 211.619C317.553 211.35 319.112 209.354 318.843 207.161C318.574 204.969 316.578 203.409 314.386 203.679C312.193 203.948 310.634 205.944 310.903 208.136C311.172 210.329 313.168 211.888 315.361 211.619Z" fill="white"/>
<path opacity="0.5" fill-rule="evenodd" clip-rule="evenodd" d="M317.676 230.477C319.869 230.208 321.428 228.212 321.159 226.02C320.89 223.827 318.894 222.268 316.701 222.537C314.508 222.806 312.949 224.802 313.218 226.995C313.488 229.187 315.483 230.747 317.676 230.477Z" fill="white"/>
<path opacity="0.5" fill-rule="evenodd" clip-rule="evenodd" d="M319.87 248.343C322.062 248.074 323.622 246.078 323.352 243.886C323.083 241.693 321.087 240.134 318.895 240.403C316.702 240.672 315.143 242.668 315.412 244.861C315.681 247.053 317.677 248.612 319.87 248.343Z" fill="white"/>
<g opacity="0.522135" filter="url(#filter7_f)">
<path fill-rule="evenodd" clip-rule="evenodd" d="M25.1722 133.971L36.9236 122.891L195.711 104.588L210.156 111.258L213.557 138.957L253.918 457.908C253.918 457.908 252.231 476.8 251.037 479.187C249.843 481.574 243.2 502.582 243.2 502.582L85.9151 521.894C85.9151 521.894 75.2297 515.033 72.1509 508.379C69.072 501.726 64.3355 472.933 64.3355 472.933L26.0098 160.795L25.1722 133.971Z" fill="url(#paint19_linear)"/>
</g>
<path fill-rule="evenodd" clip-rule="evenodd" d="M20.7222 142.347C19.2188 130.103 27.9261 118.958 40.1706 117.454L194.339 98.5249C206.583 97.0214 217.728 105.729 219.231 117.973L262.778 472.636C264.282 484.88 255.575 496.025 243.33 497.528L89.1621 516.458C76.9176 517.961 65.7727 509.254 64.2693 497.009L20.7222 142.347Z" fill="url(#paint20_linear)"/>
<path d="M20.9919 142.314C19.5067 130.218 28.1082 119.209 40.2037 117.724L194.372 98.7945C206.467 97.3093 217.477 105.911 218.962 118.006L262.509 472.669C263.994 484.764 255.393 495.774 243.297 497.259L89.129 516.188C77.0334 517.673 66.0241 509.072 64.5389 496.976L20.9919 142.314Z" stroke="#F0F1F6" stroke-opacity="0.233894" stroke-width="0.543335"/>
<g filter="url(#filter8_i)">
<rect x="106.162" y="132.524" width="28" height="4" rx="1.81112" transform="rotate(-7 106.162 132.524)" fill="url(#paint21_linear)"/>
</g>
<rect opacity="0.386436" x="106.162" y="132.524" width="28" height="4" rx="1.81112" transform="rotate(-7 106.162 132.524)" fill="url(#paint22_linear)"/>
<g filter="url(#filter9_i)">
<path fill-rule="evenodd" clip-rule="evenodd" d="M164.784 495.083C172.458 494.14 177.915 487.155 176.973 479.481C176.031 471.807 169.046 466.349 161.371 467.291C153.697 468.234 148.24 475.219 149.182 482.893C150.124 490.568 157.109 496.025 164.784 495.083Z" fill="url(#paint23_linear)"/>
</g>
<path opacity="0.386436" fill-rule="evenodd" clip-rule="evenodd" d="M164.784 495.083C172.458 494.14 177.915 487.155 176.973 479.481C176.031 471.807 169.046 466.349 161.371 467.291C153.697 468.234 148.24 475.219 149.182 482.893C150.124 490.568 157.109 496.025 164.784 495.083Z" fill="url(#paint24_linear)"/>
<path d="M36.5091 164.249C36.3745 163.153 37.1541 162.155 38.2504 162.02L206.983 141.303C208.08 141.168 209.078 141.948 209.212 143.044L246.431 446.164C246.471 446.495 246.236 446.796 245.905 446.837L74.4003 467.895C74.0694 467.935 73.7682 467.7 73.7275 467.369L36.5091 164.249Z" fill="url(#paint25_linear)"/>
<mask id="mask2" mask-type="alpha" maskUnits="userSpaceOnUse" x="36" y="141" width="211" height="327">
<path d="M36.5091 164.249C36.3745 163.153 37.1541 162.155 38.2504 162.02L206.983 141.303C208.08 141.168 209.078 141.948 209.212 143.044L246.431 446.164C246.471 446.495 246.236 446.796 245.905 446.837L74.4003 467.895C74.0694 467.935 73.7682 467.7 73.7275 467.369L36.5091 164.249Z" fill="white"/>
</mask>
<g mask="url(#mask2)">
<path opacity="0.615319" fill-rule="evenodd" clip-rule="evenodd" d="M131.726 439.195C131.356 436.18 133.5 433.436 136.515 433.065L177.209 428.069C180.224 427.698 182.968 429.842 183.339 432.857C183.709 435.872 181.565 438.616 178.55 438.987L137.856 443.983C134.841 444.354 132.096 442.21 131.726 439.195Z" fill="url(#paint26_linear)"/>
<g opacity="0.321501" filter="url(#filter10_f)">
<path fill-rule="evenodd" clip-rule="evenodd" d="M159.421 451.41C165.999 450.603 170.677 444.615 169.87 438.037C169.062 431.459 163.075 426.782 156.497 427.589C149.919 428.397 145.241 434.384 146.048 440.962C146.856 447.54 152.843 452.218 159.421 451.41Z" fill="url(#paint27_linear)"/>
</g>
<g opacity="0.3" filter="url(#filter11_f)">
<path fill-rule="evenodd" clip-rule="evenodd" d="M48.8016 215.13C48.465 212.39 50.4141 209.895 53.155 209.558L204.022 191.034C206.763 190.698 209.258 192.647 209.594 195.388L216.419 250.97C216.755 253.711 214.806 256.206 212.065 256.542L61.1983 275.066C58.4575 275.403 55.9628 273.454 55.6263 270.713L48.8016 215.13Z" fill="url(#paint28_linear)"/>
</g>
<path fill-rule="evenodd" clip-rule="evenodd" d="M48.3141 211.16C47.9776 208.419 49.9266 205.925 52.6675 205.588L203.534 187.064C206.275 186.727 208.77 188.677 209.107 191.417L215.931 247C216.268 249.741 214.319 252.236 211.578 252.572L60.7108 271.096C57.97 271.433 55.4753 269.484 55.1388 266.743L48.3141 211.16Z" fill="white"/>
<path opacity="0.615319" fill-rule="evenodd" clip-rule="evenodd" d="M114.91 244.795C114.876 244.521 115.071 244.272 115.345 244.238L154.054 239.485C154.328 239.451 154.578 239.646 154.611 239.92L154.977 242.898C155.011 243.172 154.816 243.422 154.542 243.455L115.832 248.208C115.558 248.242 115.309 248.047 115.275 247.773L114.91 244.795Z" fill="#C8D7E9"/>
<path opacity="0.615319" fill-rule="evenodd" clip-rule="evenodd" d="M132.488 232.058C137.97 231.385 141.868 226.395 141.195 220.914C140.522 215.432 135.533 211.534 130.051 212.207C124.569 212.88 120.671 217.869 121.344 223.351C122.017 228.833 127.007 232.731 132.488 232.058Z" fill="#C8D7E9"/>
<path fill-rule="evenodd" clip-rule="evenodd" d="M140.822 216.929C143.014 216.66 144.574 214.664 144.304 212.472C144.035 210.279 142.039 208.72 139.847 208.989C137.654 209.258 136.095 211.254 136.364 213.447C136.633 215.639 138.629 217.199 140.822 216.929Z" fill="url(#paint29_linear)" stroke="white" stroke-width="2"/>
<g opacity="0.3" filter="url(#filter12_f)">
<path fill-rule="evenodd" clip-rule="evenodd" d="M58.0637 290.564C57.7271 287.823 59.6762 285.329 62.417 284.992L213.284 266.468C216.025 266.131 218.52 268.08 218.856 270.821L225.681 326.404C226.017 329.145 224.068 331.639 221.327 331.976L70.4604 350.5C67.7196 350.837 65.2249 348.887 64.8883 346.147L58.0637 290.564Z" fill="url(#paint30_linear)"/>
</g>
<path fill-rule="evenodd" clip-rule="evenodd" d="M57.5762 286.594C57.2396 283.853 59.1887 281.358 61.9296 281.022L212.797 262.498C215.537 262.161 218.032 264.11 218.369 266.851L225.193 322.434C225.53 325.174 223.581 327.669 220.84 328.006L69.9729 346.53C67.2321 346.866 64.7374 344.917 64.4009 342.176L57.5762 286.594Z" fill="white"/>
<path opacity="0.615319" fill-rule="evenodd" clip-rule="evenodd" d="M124.172 320.229C124.138 319.955 124.333 319.705 124.607 319.671L163.316 314.919C163.59 314.885 163.84 315.08 163.873 315.354L164.239 318.332C164.273 318.606 164.078 318.855 163.804 318.889L125.094 323.642C124.82 323.675 124.571 323.48 124.537 323.206L124.172 320.229Z" fill="#C8D7E9"/>
<path opacity="0.615319" fill-rule="evenodd" clip-rule="evenodd" d="M141.75 307.491C147.232 306.818 151.13 301.829 150.457 296.347C149.784 290.866 144.795 286.967 139.313 287.64C133.831 288.314 129.933 293.303 130.606 298.785C131.279 304.266 136.269 308.164 141.75 307.491Z" fill="#C8D7E9"/>
<path fill-rule="evenodd" clip-rule="evenodd" d="M150.084 292.363C152.276 292.094 153.836 290.098 153.566 287.905C153.297 285.713 151.301 284.153 149.109 284.423C146.916 284.692 145.357 286.688 145.626 288.88C145.895 291.073 147.891 292.632 150.084 292.363Z" fill="url(#paint31_linear)" stroke="white" stroke-width="2"/>
<g opacity="0.3" filter="url(#filter13_f)">
<path fill-rule="evenodd" clip-rule="evenodd" d="M67.3257 365.998C66.9892 363.257 68.9383 360.762 71.6791 360.426L222.546 341.901C225.287 341.565 227.782 343.514 228.118 346.255L234.943 401.837C235.279 404.578 233.33 407.073 230.589 407.409L79.7225 425.934C76.9816 426.27 74.4869 424.321 74.1504 421.58L67.3257 365.998Z" fill="url(#paint32_linear)"/>
</g>
<path fill-rule="evenodd" clip-rule="evenodd" d="M66.8382 362.027C66.5017 359.287 68.4508 356.792 71.1916 356.455L222.059 337.931C224.799 337.595 227.294 339.544 227.631 342.285L234.455 397.867C234.792 400.608 232.843 403.103 230.102 403.439L79.235 421.963C76.4941 422.3 73.9994 420.351 73.6629 417.61L66.8382 362.027Z" fill="white"/>
<path opacity="0.615319" fill-rule="evenodd" clip-rule="evenodd" d="M133.434 395.662C133.4 395.388 133.595 395.139 133.869 395.105L172.578 390.352C172.852 390.319 173.102 390.513 173.136 390.788L173.501 393.765C173.535 394.039 173.34 394.289 173.066 394.322L134.356 399.075C134.082 399.109 133.833 398.914 133.799 398.64L133.434 395.662Z" fill="#C8D7E9"/>
<path opacity="0.615319" fill-rule="evenodd" clip-rule="evenodd" d="M151.012 382.925C156.494 382.252 160.392 377.262 159.719 371.781C159.046 366.299 154.057 362.401 148.575 363.074C143.093 363.747 139.195 368.737 139.868 374.218C140.541 379.7 145.531 383.598 151.012 382.925Z" fill="#C8D7E9"/>
<path fill-rule="evenodd" clip-rule="evenodd" d="M159.346 367.797C161.538 367.527 163.098 365.532 162.828 363.339C162.559 361.146 160.563 359.587 158.371 359.856C156.178 360.125 154.619 362.121 154.888 364.314C155.157 366.507 157.153 368.066 159.346 367.797Z" fill="url(#paint33_linear)" stroke="white" stroke-width="2"/>
<path fill-rule="evenodd" clip-rule="evenodd" d="M36.6231 164.235C36.4885 163.139 37.2681 162.141 38.3645 162.007L207.097 141.289C208.194 141.154 209.192 141.934 209.326 143.03L211.52 160.896L38.8168 182.101L36.6231 164.235Z" fill="url(#paint34_linear)"/>
<path fill-rule="evenodd" clip-rule="evenodd" d="M38.5809 181.123L211.284 159.917L213.721 179.768L41.0183 200.973L38.5809 181.123Z" fill="url(#paint35_linear)"/>
<path fill-rule="evenodd" clip-rule="evenodd" d="M188.674 171.761C188.606 171.213 188.996 170.714 189.544 170.647L201.455 169.184C202.003 169.117 202.502 169.507 202.569 170.055L202.813 172.04C202.88 172.588 202.491 173.087 201.942 173.154L190.032 174.617C189.484 174.684 188.985 174.294 188.917 173.746L188.674 171.761Z" fill="#C8D7E9"/>
<path opacity="0.5" fill-rule="evenodd" clip-rule="evenodd" d="M95.9224 164.007C95.8551 163.459 96.2449 162.96 96.7931 162.893L150.391 156.312C150.939 156.244 151.438 156.634 151.505 157.182L151.749 159.167C151.816 159.716 151.426 160.214 150.878 160.282L97.2806 166.863C96.7324 166.93 96.2335 166.54 96.1661 165.992L95.9224 164.007Z" fill="white"/>
<g filter="url(#filter14_i)">
<path fill-rule="evenodd" clip-rule="evenodd" d="M164.784 495.083C172.458 494.14 177.915 487.155 176.973 479.481C176.031 471.807 169.046 466.349 161.371 467.291C153.697 468.234 148.24 475.219 149.182 482.893C150.124 490.568 157.109 496.025 164.784 495.083Z" fill="url(#paint36_linear)"/>
</g>
</g>
<defs>
<filter id="filter0_f" x="219.453" y="0.620424" width="687.488" height="520.322" filterUnits="userSpaceOnUse" color-interpolation-filters="sRGB">
<feFlood flood-opacity="0" result="BackgroundImageFix"/>
<feBlend mode="normal" in="SourceGraphic" in2="BackgroundImageFix" result="shape"/>
<feGaussianBlur stdDeviation="12.2323" result="effect1_foregroundBlur"/>
</filter>
<filter id="filter1_f" x="315.658" y="95.9029" width="500.711" height="137.639" filterUnits="userSpaceOnUse" color-interpolation-filters="sRGB">
<feFlood flood-opacity="0" result="BackgroundImageFix"/>
<feBlend mode="normal" in="SourceGraphic" in2="BackgroundImageFix" result="shape"/>
<feGaussianBlur stdDeviation="12.2323" result="effect1_foregroundBlur"/>
</filter>
<filter id="filter2_f" x="321.386" y="142.553" width="500.711" height="137.639" filterUnits="userSpaceOnUse" color-interpolation-filters="sRGB">
<feFlood flood-opacity="0" result="BackgroundImageFix"/>
<feBlend mode="normal" in="SourceGraphic" in2="BackgroundImageFix" result="shape"/>
<feGaussianBlur stdDeviation="12.2323" result="effect1_foregroundBlur"/>
</filter>
<filter id="filter3_f" x="327.114" y="189.202" width="500.711" height="137.639" filterUnits="userSpaceOnUse" color-interpolation-filters="sRGB">
<feFlood flood-opacity="0" result="BackgroundImageFix"/>
<feBlend mode="normal" in="SourceGraphic" in2="BackgroundImageFix" result="shape"/>
<feGaussianBlur stdDeviation="12.2323" result="effect1_foregroundBlur"/>
</filter>
<filter id="filter4_f" x="332.842" y="235.852" width="500.711" height="137.639" filterUnits="userSpaceOnUse" color-interpolation-filters="sRGB">
<feFlood flood-opacity="0" result="BackgroundImageFix"/>
<feBlend mode="normal" in="SourceGraphic" in2="BackgroundImageFix" result="shape"/>
<feGaussianBlur stdDeviation="12.2323" result="effect1_foregroundBlur"/>
</filter>
<filter id="filter5_f" x="338.57" y="282.502" width="500.711" height="137.639" filterUnits="userSpaceOnUse" color-interpolation-filters="sRGB">
<feFlood flood-opacity="0" result="BackgroundImageFix"/>
<feBlend mode="normal" in="SourceGraphic" in2="BackgroundImageFix" result="shape"/>
<feGaussianBlur stdDeviation="12.2323" result="effect1_foregroundBlur"/>
</filter>
<filter id="filter6_f" x="344.297" y="329.151" width="500.711" height="137.639" filterUnits="userSpaceOnUse" color-interpolation-filters="sRGB">
<feFlood flood-opacity="0" result="BackgroundImageFix"/>
<feBlend mode="normal" in="SourceGraphic" in2="BackgroundImageFix" result="shape"/>
<feGaussianBlur stdDeviation="12.2323" result="effect1_foregroundBlur"/>
</filter>
<filter id="filter7_f" x="0.669796" y="80.7012" width="279.41" height="463.993" filterUnits="userSpaceOnUse" color-interpolation-filters="sRGB">
<feFlood flood-opacity="0" result="BackgroundImageFix"/>
<feBlend mode="normal" in="SourceGraphic" in2="BackgroundImageFix" result="shape"/>
<feGaussianBlur stdDeviation="10.4586" result="effect1_foregroundBlur"/>
</filter>
<filter id="filter8_i" x="106.162" y="129.112" width="28.2788" height="7.38253" filterUnits="userSpaceOnUse" color-interpolation-filters="sRGB">
<feFlood flood-opacity="0" result="BackgroundImageFix"/>
<feBlend mode="normal" in="SourceGraphic" in2="BackgroundImageFix" result="shape"/>
<feColorMatrix in="SourceAlpha" type="matrix" values="0 0 0 0 0 0 0 0 0 0 0 0 0 0 0 0 0 0 127 0" result="hardAlpha"/>
<feOffset/>
<feGaussianBlur stdDeviation="2.5"/>
<feComposite in2="hardAlpha" operator="arithmetic" k2="-1" k3="1"/>
<feColorMatrix type="matrix" values="0 0 0 0 0.894118 0 0 0 0 0.894118 0 0 0 0 0.901961 0 0 0 0.259115 0"/>
<feBlend mode="normal" in2="shape" result="effect1_innerShadow"/>
</filter>
<filter id="filter9_i" x="147.476" y="465.585" width="31.2036" height="31.2036" filterUnits="userSpaceOnUse" color-interpolation-filters="sRGB">
<feFlood flood-opacity="0" result="BackgroundImageFix"/>
<feBlend mode="normal" in="SourceGraphic" in2="BackgroundImageFix" result="shape"/>
<feColorMatrix in="SourceAlpha" type="matrix" values="0 0 0 0 0 0 0 0 0 0 0 0 0 0 0 0 0 0 127 0" result="hardAlpha"/>
<feOffset/>
<feGaussianBlur stdDeviation="2.5"/>
<feComposite in2="hardAlpha" operator="arithmetic" k2="-1" k3="1"/>
<feColorMatrix type="matrix" values="0 0 0 0 0.894118 0 0 0 0 0.894118 0 0 0 0 0.901961 0 0 0 0.294158 0"/>
<feBlend mode="normal" in2="shape" result="effect1_innerShadow"/>
</filter>
<filter id="filter10_f" x="120.121" y="401.662" width="75.675" height="75.675" filterUnits="userSpaceOnUse" color-interpolation-filters="sRGB">
<feFlood flood-opacity="0" result="BackgroundImageFix"/>
<feBlend mode="normal" in="SourceGraphic" in2="BackgroundImageFix" result="shape"/>
<feGaussianBlur stdDeviation="12.2323" result="effect1_foregroundBlur"/>
</filter>
<filter id="filter11_f" x="23.7277" y="165.96" width="217.765" height="134.18" filterUnits="userSpaceOnUse" color-interpolation-filters="sRGB">
<feFlood flood-opacity="0" result="BackgroundImageFix"/>
<feBlend mode="normal" in="SourceGraphic" in2="BackgroundImageFix" result="shape"/>
<feGaussianBlur stdDeviation="12.2323" result="effect1_foregroundBlur"/>
</filter>
<filter id="filter12_f" x="32.9898" y="241.394" width="217.765" height="134.18" filterUnits="userSpaceOnUse" color-interpolation-filters="sRGB">
<feFlood flood-opacity="0" result="BackgroundImageFix"/>
<feBlend mode="normal" in="SourceGraphic" in2="BackgroundImageFix" result="shape"/>
<feGaussianBlur stdDeviation="12.2323" result="effect1_foregroundBlur"/>
</filter>
<filter id="filter13_f" x="42.2518" y="316.827" width="217.765" height="134.18" filterUnits="userSpaceOnUse" color-interpolation-filters="sRGB">
<feFlood flood-opacity="0" result="BackgroundImageFix"/>
<feBlend mode="normal" in="SourceGraphic" in2="BackgroundImageFix" result="shape"/>
<feGaussianBlur stdDeviation="12.2323" result="effect1_foregroundBlur"/>
</filter>
<filter id="filter14_i" x="147.476" y="465.585" width="31.2036" height="31.2036" filterUnits="userSpaceOnUse" color-interpolation-filters="sRGB">
<feFlood flood-opacity="0" result="BackgroundImageFix"/>
<feBlend mode="normal" in="SourceGraphic" in2="BackgroundImageFix" result="shape"/>
<feColorMatrix in="SourceAlpha" type="matrix" values="0 0 0 0 0 0 0 0 0 0 0 0 0 0 0 0 0 0 127 0" result="hardAlpha"/>
<feOffset/>
<feGaussianBlur stdDeviation="2.5"/>
<feComposite in2="hardAlpha" operator="arithmetic" k2="-1" k3="1"/>
<feColorMatrix type="matrix" values="0 0 0 0 0.894118 0 0 0 0 0.894118 0 0 0 0 0.901961 0 0 0 0.302593 0"/>
<feBlend mode="normal" in2="shape" result="effect1_innerShadow"/>
</filter>
<linearGradient id="paint0_linear" x1="226.158" y1="99.6554" x2="278.101" y2="522.697" gradientUnits="userSpaceOnUse">
<stop stop-color="#525981" stop-opacity="0.222883"/>
<stop offset="0.90098" stop-color="#2D324F" stop-opacity="0.222883"/>
<stop offset="1" stop-color="#292D4A" stop-opacity="0.0996377"/>
</linearGradient>
<linearGradient id="paint1_linear" x1="291.689" y1="486.544" x2="887.241" y2="413.419" gradientUnits="userSpaceOnUse">
<stop stop-color="white"/>
<stop offset="0.0202749" stop-color="#F9FBFB"/>
<stop offset="0.0457175" stop-color="white"/>
<stop offset="0.946132" stop-color="white"/>
<stop offset="0.976303" stop-color="#FCFDFD"/>
<stop offset="1" stop-color="white"/>
</linearGradient>
<linearGradient id="paint2_linear" x1="1127.74" y1="502.264" x2="1067.62" y2="-10.7269" gradientUnits="userSpaceOnUse">
<stop stop-color="white"/>
<stop offset="1" stop-color="#EBF2FA"/>
</linearGradient>
<linearGradient id="paint3_linear" x1="326.538" y1="175.331" x2="326.538" y2="211.379" gradientUnits="userSpaceOnUse">
<stop stop-color="#525981" stop-opacity="0.222883"/>
<stop offset="0.90098" stop-color="#2D324F" stop-opacity="0.222883"/>
<stop offset="1" stop-color="#292D4A" stop-opacity="0.0996377"/>
</linearGradient>
<linearGradient id="paint4_linear" x1="587.218" y1="137.502" x2="568.206" y2="174.366" gradientUnits="userSpaceOnUse">
<stop stop-color="#63E9FF"/>
<stop offset="1" stop-color="#9577FE"/>
</linearGradient>
<linearGradient id="paint5_linear" x1="332.265" y1="221.98" x2="332.265" y2="258.029" gradientUnits="userSpaceOnUse">
<stop stop-color="#525981" stop-opacity="0.222883"/>
<stop offset="0.90098" stop-color="#2D324F" stop-opacity="0.222883"/>
<stop offset="1" stop-color="#292D4A" stop-opacity="0.0996377"/>
</linearGradient>
<linearGradient id="paint6_linear" x1="601.846" y1="194.944" x2="603.508" y2="208.479" gradientUnits="userSpaceOnUse">
<stop stop-color="#FFC5B1"/>
<stop offset="1" stop-color="#FF5782"/>
</linearGradient>
<linearGradient id="paint7_linear" x1="337.993" y1="268.63" x2="337.993" y2="304.678" gradientUnits="userSpaceOnUse">
<stop stop-color="#525981" stop-opacity="0.222883"/>
<stop offset="0.90098" stop-color="#2D324F" stop-opacity="0.222883"/>
<stop offset="1" stop-color="#292D4A" stop-opacity="0.0996377"/>
</linearGradient>
<linearGradient id="paint8_linear" x1="673.664" y1="211.962" x2="677.394" y2="252.056" gradientUnits="userSpaceOnUse">
<stop stop-color="#9CE9CA"/>
<stop offset="1" stop-color="#00CED9"/>
</linearGradient>
<linearGradient id="paint9_linear" x1="589.353" y1="220.298" x2="587.577" y2="270.022" gradientUnits="userSpaceOnUse">
<stop stop-color="#63E9FF"/>
<stop offset="1" stop-color="#9577FE"/>
</linearGradient>
<linearGradient id="paint10_linear" x1="308.021" y1="200.32" x2="303.358" y2="330.843" gradientUnits="userSpaceOnUse">
<stop stop-color="#63E9FF"/>
<stop offset="1" stop-color="#9577FE"/>
</linearGradient>
<linearGradient id="paint11_linear" x1="343.721" y1="315.28" x2="343.721" y2="351.328" gradientUnits="userSpaceOnUse">
<stop stop-color="#525981" stop-opacity="0.222883"/>
<stop offset="0.90098" stop-color="#2D324F" stop-opacity="0.222883"/>
<stop offset="1" stop-color="#292D4A" stop-opacity="0.0996377"/>
</linearGradient>
<linearGradient id="paint12_linear" x1="349.449" y1="361.929" x2="349.449" y2="397.978" gradientUnits="userSpaceOnUse">
<stop stop-color="#525981" stop-opacity="0.222883"/>
<stop offset="0.90098" stop-color="#2D324F" stop-opacity="0.222883"/>
<stop offset="1" stop-color="#292D4A" stop-opacity="0.0996377"/>
</linearGradient>
<linearGradient id="paint13_linear" x1="355.177" y1="408.579" x2="355.177" y2="444.627" gradientUnits="userSpaceOnUse">
<stop stop-color="#525981" stop-opacity="0.222883"/>
<stop offset="0.90098" stop-color="#2D324F" stop-opacity="0.222883"/>
<stop offset="1" stop-color="#292D4A" stop-opacity="0.0996377"/>
</linearGradient>
<linearGradient id="paint14_linear" x1="3151.3" y1="111.755" x2="3108.53" y2="-236.579" gradientUnits="userSpaceOnUse">
<stop stop-color="white"/>
<stop offset="1" stop-color="#EBF2FA"/>
</linearGradient>
<linearGradient id="paint15_linear" x1="731.899" y1="43.4027" x2="733.943" y2="84.2355" gradientUnits="userSpaceOnUse">
<stop stop-color="#63E9FF"/>
<stop offset="1" stop-color="#9577FE"/>
</linearGradient>
<linearGradient id="paint16_linear" x1="742.38" y1="32.0196" x2="743.25" y2="72.7927" gradientUnits="userSpaceOnUse">
<stop stop-color="#63E9FF"/>
<stop offset="1" stop-color="#9577FE"/>
</linearGradient>
<linearGradient id="paint17_linear" x1="-287.618" y1="207.442" x2="-277.541" y2="289.436" gradientUnits="userSpaceOnUse">
<stop stop-color="white"/>
<stop stop-color="white"/>
<stop offset="1" stop-color="#EBF2FA"/>
</linearGradient>
<linearGradient id="paint18_linear" x1="259.094" y1="76.3422" x2="436.187" y2="102.282" gradientUnits="userSpaceOnUse">
<stop stop-color="#63E9FF"/>
<stop offset="1" stop-color="#9577FE"/>
</linearGradient>
<linearGradient id="paint19_linear" x1="15.9064" y1="125.471" x2="67.8494" y2="548.512" gradientUnits="userSpaceOnUse">
<stop stop-color="#525981" stop-opacity="0.222883"/>
<stop offset="0.90098" stop-color="#2D324F" stop-opacity="0.222883"/>
<stop offset="1" stop-color="#292D4A" stop-opacity="0.0996377"/>
</linearGradient>
<linearGradient id="paint20_linear" x1="271.586" y1="500.163" x2="220.401" y2="83.2941" gradientUnits="userSpaceOnUse">
<stop stop-color="white"/>
<stop offset="0.0202749" stop-color="#F9FBFB"/>
<stop offset="0.0457175" stop-color="white"/>
<stop offset="0.946132" stop-color="white"/>
<stop offset="0.976303" stop-color="#FCFDFD"/>
<stop offset="1" stop-color="white"/>
</linearGradient>
<linearGradient id="paint21_linear" x1="106.162" y1="136.474" x2="134.398" y2="136.474" gradientUnits="userSpaceOnUse">
<stop stop-color="white"/>
<stop offset="0.0202749" stop-color="#F9FBFB"/>
<stop offset="0.0457175" stop-color="white"/>
<stop offset="0.946132" stop-color="white"/>
<stop offset="0.976303" stop-color="#FCFDFD"/>
<stop offset="1" stop-color="white"/>
</linearGradient>
<linearGradient id="paint22_linear" x1="105.739" y1="132.524" x2="105.739" y2="136.524" gradientUnits="userSpaceOnUse">
<stop stop-color="#F9FBFD"/>
<stop offset="1" stop-color="white"/>
</linearGradient>
<linearGradient id="paint23_linear" x1="150.845" y1="496.441" x2="178.871" y2="493" gradientUnits="userSpaceOnUse">
<stop stop-color="white"/>
<stop offset="0.0202749" stop-color="#F9FBFB"/>
<stop offset="0.0457175" stop-color="white"/>
<stop offset="0.946132" stop-color="white"/>
<stop offset="0.976303" stop-color="#FCFDFD"/>
<stop offset="1" stop-color="white"/>
</linearGradient>
<linearGradient id="paint24_linear" x1="147.056" y1="469.049" x2="150.468" y2="496.84" gradientUnits="userSpaceOnUse">
<stop stop-color="#F9FBFD"/>
<stop offset="1" stop-color="white"/>
</linearGradient>
<linearGradient id="paint25_linear" x1="352.799" y1="540.055" x2="306.363" y2="114.974" gradientUnits="userSpaceOnUse">
<stop stop-color="white"/>
<stop offset="1" stop-color="#EBF2FA"/>
</linearGradient>
<linearGradient id="paint26_linear" x1="86.7883" y1="412.982" x2="90.5174" y2="453.076" gradientUnits="userSpaceOnUse">
<stop stop-color="#9CE9CA"/>
<stop offset="1" stop-color="#00CED9"/>
</linearGradient>
<linearGradient id="paint27_linear" x1="143.868" y1="429.14" x2="146.97" y2="454.396" gradientUnits="userSpaceOnUse">
<stop stop-color="#525981" stop-opacity="0.222883"/>
<stop offset="0.90098" stop-color="#2D324F" stop-opacity="0.222883"/>
<stop offset="1" stop-color="#292D4A" stop-opacity="0.0996377"/>
</linearGradient>
<linearGradient id="paint28_linear" x1="43.3488" y1="210.762" x2="51.8768" y2="280.217" gradientUnits="userSpaceOnUse">
<stop stop-color="#525981" stop-opacity="0.222883"/>
<stop offset="0.90098" stop-color="#2D324F" stop-opacity="0.222883"/>
<stop offset="1" stop-color="#292D4A" stop-opacity="0.0996377"/>
</linearGradient>
<linearGradient id="paint29_linear" x1="124.684" y1="193.287" x2="105.672" y2="230.151" gradientUnits="userSpaceOnUse">
<stop stop-color="#63E9FF"/>
<stop offset="1" stop-color="#9577FE"/>
</linearGradient>
<linearGradient id="paint30_linear" x1="52.6109" y1="286.196" x2="61.1388" y2="355.651" gradientUnits="userSpaceOnUse">
<stop stop-color="#525981" stop-opacity="0.222883"/>
<stop offset="0.90098" stop-color="#2D324F" stop-opacity="0.222883"/>
<stop offset="1" stop-color="#292D4A" stop-opacity="0.0996377"/>
</linearGradient>
<linearGradient id="paint31_linear" x1="142.846" y1="279.513" x2="144.507" y2="293.048" gradientUnits="userSpaceOnUse">
<stop stop-color="#FFC5B1"/>
<stop offset="1" stop-color="#FF5782"/>
</linearGradient>
<linearGradient id="paint32_linear" x1="61.873" y1="361.63" x2="70.4009" y2="431.084" gradientUnits="userSpaceOnUse">
<stop stop-color="#525981" stop-opacity="0.222883"/>
<stop offset="0.90098" stop-color="#2D324F" stop-opacity="0.222883"/>
<stop offset="1" stop-color="#292D4A" stop-opacity="0.0996377"/>
</linearGradient>
<linearGradient id="paint33_linear" x1="133.887" y1="333.651" x2="132.111" y2="383.374" gradientUnits="userSpaceOnUse">
<stop stop-color="#63E9FF"/>
<stop offset="1" stop-color="#9577FE"/>
</linearGradient>
<linearGradient id="paint34_linear" x1="-72.9151" y1="158.913" x2="-67.5643" y2="202.491" gradientUnits="userSpaceOnUse">
<stop stop-color="#6CD2FE"/>
<stop offset="1" stop-color="#8892FE"/>
</linearGradient>
<linearGradient id="paint35_linear" x1="-181.765" y1="206.864" x2="-173.694" y2="272.457" gradientUnits="userSpaceOnUse">
<stop stop-color="white"/>
<stop stop-color="white"/>
<stop offset="1" stop-color="#EBF2FA"/>
</linearGradient>
<linearGradient id="paint36_linear" x1="150.845" y1="496.441" x2="178.871" y2="493" gradientUnits="userSpaceOnUse">
<stop stop-color="white"/>
<stop offset="0.0202749" stop-color="#F9FBFB"/>
<stop offset="0.0457175" stop-color="white"/>
<stop offset="0.946132" stop-color="white"/>
<stop offset="0.976303" stop-color="#FCFDFD"/>
<stop offset="1" stop-color="white"/>
</linearGradient>
</defs>
</svg>
