<svg width="1210" height="561" viewBox="0 0 1210 561" fill="none" xmlns="http://www.w3.org/2000/svg">
<path fill-rule="evenodd" clip-rule="evenodd" d="M0 0H1240V417.371L0 561V0Z" fill="url(#paint0_linear)"/>
<mask id="mask0" mask-type="alpha" maskUnits="userSpaceOnUse" x="0" y="0" width="1240" height="561">
<path fill-rule="evenodd" clip-rule="evenodd" d="M0 0H1240V417.371L0 561V0Z" fill="white"/>
</mask>
<g mask="url(#mask0)">
<path opacity="0.462013" fill-rule="evenodd" clip-rule="evenodd" d="M-159.38 472.408L249.724 407.613L268.703 527.44L-140.402 592.235L-159.38 472.408Z" fill="url(#paint1_linear)"/>
<rect x="-303.652" y="249.593" width="967.028" height="121.321" transform="rotate(-9 -303.652 249.593)" fill="url(#paint2_linear)"/>
<rect x="944.838" y="238.57" width="967.028" height="121.321" transform="rotate(-9 944.838 238.57)" fill="url(#paint3_linear)"/>
<rect opacity="0.231941" x="-322.63" y="129.766" width="1240" height="121.321" transform="rotate(-9 -322.63 129.766)" fill="url(#paint4_linear)"/>
<rect x="-339.721" y="9.03638" width="464.139" height="121.321" transform="rotate(-9 -339.721 9.03638)" fill="url(#paint5_linear)"/>
<rect opacity="0.334692" x="-157.947" y="349.349" width="907.611" height="121.321" transform="rotate(-9 -157.947 349.349)" fill="url(#paint6_linear)"/>
<rect opacity="0.791893" x="822.632" y="380.759" width="626.514" height="121.321" transform="rotate(-9 822.632 380.759)" fill="url(#paint7_linear)"/>
<rect opacity="0.791893" x="896.894" y="491.829" width="626.514" height="121.321" transform="rotate(-9 896.894 491.829)" fill="url(#paint8_linear)"/>
<path opacity="0.132869" fill-rule="evenodd" clip-rule="evenodd" d="M1282.75 467.127C1181.15 443.252 700.98 554.129 435.9 568.1C359.792 586.645 834.764 568.1 834.764 568.1L1282.75 578.596C1282.75 578.596 1385.32 498.689 1282.75 467.127Z" fill="url(#paint9_linear)"/>
<path opacity="0.132869" fill-rule="evenodd" clip-rule="evenodd" d="M1282.75 544.566C1181.15 520.691 700.98 631.568 435.9 645.538C359.792 664.084 834.764 645.538 834.764 645.538L1282.75 656.035C1282.75 656.035 1385.32 576.128 1282.75 544.566Z" fill="url(#paint10_linear)"/>
</g>
<defs>
<linearGradient id="paint0_linear" x1="440.12" y1="-612.422" x2="95.1525" y2="549.243" gradientUnits="userSpaceOnUse">
<stop stop-color="#F56AF9"/>
<stop offset="1" stop-color="#945EDC"/>
</linearGradient>
<linearGradient id="paint1_linear" x1="227.834" y1="402.904" x2="-91.4906" y2="581.994" gradientUnits="userSpaceOnUse">
<stop stop-color="#FED0FF" stop-opacity="0.01"/>
<stop offset="1" stop-color="#FFB6ED"/>
</linearGradient>
<linearGradient id="paint2_linear" x1="587.572" y1="248.963" x2="254.153" y2="632.277" gradientUnits="userSpaceOnUse">
<stop stop-color="#B76FF6" stop-opacity="0.01"/>
<stop offset="1" stop-color="#A362F4"/>
</linearGradient>
<linearGradient id="paint3_linear" x1="1080.79" y1="333.069" x2="1170.77" y2="121.751" gradientUnits="userSpaceOnUse">
<stop stop-color="#B76FF6" stop-opacity="0.01"/>
<stop offset="1" stop-color="#A362F4"/>
</linearGradient>
<linearGradient id="paint4_linear" x1="274.174" y1="155.719" x2="155.441" y2="378.426" gradientUnits="userSpaceOnUse">
<stop stop-color="#F8A5C5" stop-opacity="0.01"/>
<stop offset="1" stop-color="#F481E5"/>
</linearGradient>
<linearGradient id="paint5_linear" x1="116.785" y1="11.1398" x2="-331.26" y2="11.1398" gradientUnits="userSpaceOnUse">
<stop stop-color="#D280F8" stop-opacity="0.01"/>
<stop offset="1" stop-color="#A458EC"/>
</linearGradient>
<linearGradient id="paint6_linear" x1="748.702" y1="344.914" x2="389.981" y2="-173.055" gradientUnits="userSpaceOnUse">
<stop stop-color="#EEC9FF" stop-opacity="0.01"/>
<stop offset="1" stop-color="#F15CDA"/>
</linearGradient>
<linearGradient id="paint7_linear" x1="1221.13" y1="398.358" x2="911.831" y2="398.358" gradientUnits="userSpaceOnUse">
<stop stop-color="#FFAEB4"/>
<stop offset="1" stop-color="#FFA1E2" stop-opacity="0.01"/>
</linearGradient>
<linearGradient id="paint8_linear" x1="1295.39" y1="509.429" x2="986.093" y2="509.429" gradientUnits="userSpaceOnUse">
<stop stop-color="#FFAEB4"/>
<stop offset="1" stop-color="#FFA1E2" stop-opacity="0.01"/>
</linearGradient>
<linearGradient id="paint9_linear" x1="1443.76" y1="436.039" x2="1443.76" y2="578.596" gradientUnits="userSpaceOnUse">
<stop stop-color="#B6A6FF"/>
<stop offset="1" stop-color="#937FF1"/>
</linearGradient>
<linearGradient id="paint10_linear" x1="1443.76" y1="513.478" x2="1443.76" y2="656.035" gradientUnits="userSpaceOnUse">
<stop stop-color="#B6A6FF"/>
<stop offset="1" stop-color="#937FF1"/>
</linearGradient>
</defs>
</svg>
