<svg width="710" height="533" viewBox="0 0 710 533" fill="none" xmlns="http://www.w3.org/2000/svg">
<g opacity="0.522135" filter="url(#filter0_f)">
<path fill-rule="evenodd" clip-rule="evenodd" d="M43.9846 36.5404L75.5144 29.1516H617.402L639.153 45.3545L647.526 74.4891L651.42 453.293C651.42 453.293 638.397 475.145 633.563 477.765C628.73 480.385 598.749 504 598.749 504H79.7546C79.7546 504 47.7584 494.441 40.4055 486.218C33.0526 477.995 29.1482 443.641 29.1482 443.641V74.4891L43.9846 36.5404Z" fill="url(#paint0_linear)"/>
</g>
<rect x="26" y="26" width="625.42" height="460.141" rx="10.5185" fill="url(#paint1_linear)"/>
<rect x="26.4733" y="26.4733" width="624.474" height="459.194" rx="10.0452" stroke="#F0F1F6" stroke-opacity="0.233894" stroke-width="0.946667"/>
<mask id="mask0" mask-type="alpha" maskUnits="userSpaceOnUse" x="26" y="26" width="626" height="461">
<rect x="26" y="26" width="625.42" height="460.141" rx="10.5185" fill="white"/>
<rect x="26.4733" y="26.4733" width="624.474" height="459.194" rx="10.0452" stroke="white" stroke-width="0.946667"/>
</mask>
<g mask="url(#mask0)">
<path opacity="0.4482" fill-rule="evenodd" clip-rule="evenodd" d="M23.9014 28.105C23.9014 26.3622 25.3142 24.9495 27.0569 24.9495H648.265C650.008 24.9495 651.42 26.3623 651.42 28.105V485.086C651.42 486.829 650.008 488.242 648.265 488.242H27.057C25.3142 488.242 23.9014 486.829 23.9014 485.086V28.105Z" fill="#E6F0FD"/>
<path fill-rule="evenodd" clip-rule="evenodd" d="M112.048 94.2883C112.048 93.1264 112.99 92.1846 114.152 92.1846H138.277C139.439 92.1846 140.381 93.1264 140.381 94.2883V118.446C140.381 119.608 139.439 120.549 138.277 120.549H114.152C112.99 120.549 112.048 119.608 112.048 118.446V94.2883Z" fill="url(#paint2_linear)"/>
<path fill-rule="evenodd" clip-rule="evenodd" d="M73.2214 26H650.366C651.528 26 652.47 26.9419 652.47 28.1037V76.4264H73.2214V26Z" fill="white"/>
<path fill-rule="evenodd" clip-rule="evenodd" d="M114.146 48.5868C114.146 46.5584 115.791 44.9099 117.819 44.9099C119.848 44.9099 121.492 46.5584 121.492 48.5868C121.492 50.6152 119.848 52.2638 117.819 52.2638C115.791 52.2638 114.146 50.6152 114.146 48.5868Z" fill="#FF8E95"/>
<path fill-rule="evenodd" clip-rule="evenodd" d="M99.4553 211.763H651.42V278.685H99.4553V211.763Z" fill="white"/>
<path fill-rule="evenodd" clip-rule="evenodd" d="M110.495 219.507C110.495 218.926 110.966 218.455 111.546 218.455H197.757C198.338 218.455 198.809 218.926 198.809 219.507V222.98C198.809 223.561 198.338 224.032 197.757 224.032H111.546C110.966 224.032 110.495 223.561 110.495 222.98V219.507Z" fill="#C8D7E9"/>
<path opacity="0.615319" fill-rule="evenodd" clip-rule="evenodd" d="M110.495 230.661C110.495 230.08 110.966 229.609 111.546 229.609H219.836C220.417 229.609 220.888 230.08 220.888 230.661V231.903C220.888 232.484 220.417 232.955 219.836 232.955H111.546C110.966 232.955 110.495 232.484 110.495 231.903V230.661Z" fill="#C8D7E9"/>
<path opacity="0.316916" fill-rule="evenodd" clip-rule="evenodd" d="M578.561 223.905C578.561 222.743 579.503 221.801 580.665 221.801H632.758C633.919 221.801 634.861 222.743 634.861 223.905V242.005C634.861 243.167 633.919 244.108 632.758 244.108H580.665C579.503 244.108 578.561 243.167 578.561 242.005V223.905Z" fill="url(#paint3_linear)"/>
<rect x="99.4553" y="142.611" width="551.965" height="66.9214" fill="white"/>
<path fill-rule="evenodd" clip-rule="evenodd" d="M110.495 152.586C110.495 152.005 110.966 151.534 111.546 151.534H197.757C198.338 151.534 198.809 152.005 198.809 152.586V156.059C198.809 156.64 198.338 157.111 197.757 157.111H111.546C110.966 157.111 110.495 156.64 110.495 156.059V152.586Z" fill="#C8D7E9"/>
<path opacity="0.615319" fill-rule="evenodd" clip-rule="evenodd" d="M110.495 163.739C110.495 163.158 110.966 162.688 111.546 162.688H219.836C220.417 162.688 220.888 163.158 220.888 163.739V164.982C220.888 165.563 220.417 166.034 219.836 166.034H111.546C110.966 166.034 110.495 165.563 110.495 164.982V163.739Z" fill="#C8D7E9"/>
<path opacity="0.316916" fill-rule="evenodd" clip-rule="evenodd" d="M578.561 154.753C578.561 153.591 579.503 152.649 580.665 152.649H632.758C633.919 152.649 634.861 153.591 634.861 154.753V172.853C634.861 174.014 633.919 174.956 632.758 174.956H580.665C579.503 174.956 578.561 174.014 578.561 172.853V154.753Z" fill="url(#paint4_linear)"/>
<path fill-rule="evenodd" clip-rule="evenodd" d="M99.4553 280.915H651.42V347.837H99.4553V280.915Z" fill="white"/>
<path fill-rule="evenodd" clip-rule="evenodd" d="M110.495 290.89C110.495 290.309 110.966 289.838 111.546 289.838H197.757C198.338 289.838 198.809 290.309 198.809 290.89V294.363C198.809 294.944 198.338 295.415 197.757 295.415H111.546C110.966 295.415 110.495 294.944 110.495 294.363V290.89Z" fill="#C8D7E9"/>
<path opacity="0.615319" fill-rule="evenodd" clip-rule="evenodd" d="M110.495 302.044C110.495 301.463 110.966 300.992 111.546 300.992H219.836C220.417 300.992 220.888 301.463 220.888 302.044V303.286C220.888 303.867 220.417 304.338 219.836 304.338H111.546C110.966 304.338 110.495 303.867 110.495 303.286V302.044Z" fill="#C8D7E9"/>
<path opacity="0.316916" fill-rule="evenodd" clip-rule="evenodd" d="M578.561 293.057C578.561 291.895 579.503 290.953 580.665 290.953H632.758C633.919 290.953 634.861 291.895 634.861 293.057V311.157C634.861 312.319 633.919 313.26 632.758 313.26H580.665C579.503 313.26 578.561 312.319 578.561 311.157V293.057Z" fill="url(#paint5_linear)"/>
<path fill-rule="evenodd" clip-rule="evenodd" d="M99.4553 419.219H651.42V484.037C651.42 485.199 650.478 486.141 649.317 486.141H99.4553V419.219Z" fill="white"/>
<path fill-rule="evenodd" clip-rule="evenodd" d="M110.495 429.194C110.495 428.613 110.966 428.142 111.546 428.142H197.757C198.338 428.142 198.809 428.613 198.809 429.194V432.667C198.809 433.248 198.338 433.719 197.757 433.719H111.546C110.966 433.719 110.495 433.248 110.495 432.667V429.194Z" fill="#C8D7E9"/>
<path opacity="0.615319" fill-rule="evenodd" clip-rule="evenodd" d="M110.495 440.348C110.495 439.767 110.966 439.296 111.546 439.296H219.836C220.417 439.296 220.888 439.767 220.888 440.348V441.59C220.888 442.171 220.417 442.642 219.836 442.642H111.546C110.966 442.642 110.495 442.171 110.495 441.59V440.348Z" fill="#C8D7E9"/>
<path opacity="0.316916" fill-rule="evenodd" clip-rule="evenodd" d="M578.561 431.361C578.561 430.199 579.503 429.258 580.665 429.258H632.758C633.919 429.258 634.861 430.199 634.861 431.361V449.461C634.861 450.623 633.919 451.565 632.758 451.565H580.665C579.503 451.565 578.561 450.623 578.561 449.461V431.361Z" fill="url(#paint6_linear)"/>
<path fill-rule="evenodd" clip-rule="evenodd" d="M579.014 42.8115C579.014 41.6496 579.956 40.7078 581.118 40.7078H632.527C633.689 40.7078 634.631 41.6496 634.631 42.8115V60.6656C634.631 61.8274 633.689 62.7693 632.527 62.7693H581.118C579.956 62.7693 579.014 61.8274 579.014 60.6656V42.8115Z" fill="url(#paint7_linear)"/>
<path opacity="0.957937" fill-rule="evenodd" clip-rule="evenodd" d="M26 28.1037C26 26.9418 26.9419 26 28.1037 26H97.3567V487.191H28.1037C26.9419 487.191 26 486.249 26 485.088V28.1037Z" fill="#20324B"/>
<path fill-rule="evenodd" clip-rule="evenodd" d="M149.825 95.3375C149.825 94.7566 150.296 94.2856 150.877 94.2856H236.92C237.501 94.2856 237.971 94.7566 237.971 95.3375V98.4865C237.971 99.0675 237.501 99.5384 236.92 99.5384H150.877C150.296 99.5384 149.825 99.0675 149.825 98.4865V95.3375Z" fill="#C8D7E9"/>
<path opacity="0.615319" fill-rule="evenodd" clip-rule="evenodd" d="M149.825 106.894C149.825 106.313 150.296 105.842 150.877 105.842H258.956C259.537 105.842 260.008 106.313 260.008 106.894V107.942C260.008 108.523 259.537 108.993 258.956 108.993H150.877C150.296 108.993 149.825 108.523 149.825 107.942V106.894Z" fill="#C8D7E9"/>
</g>
<g opacity="0.522135" filter="url(#filter1_f)">
<path fill-rule="evenodd" clip-rule="evenodd" d="M152.241 328.685L179.677 327.508H651.201L670.128 330.089L677.414 334.73L680.803 395.07C680.803 395.07 669.47 398.551 665.264 398.968C661.058 399.386 634.97 403.147 634.97 403.147H183.367C183.367 403.147 155.525 401.625 149.127 400.315C142.729 399.005 139.331 393.533 139.331 393.533V334.73L152.241 328.685Z" fill="url(#paint8_linear)"/>
</g>
<path fill-rule="evenodd" clip-rule="evenodd" d="M133.035 328.006H685V394.927H133.035V328.006Z" fill="white"/>
<path d="M158.743 378.459C158.743 381.941 155.924 384.762 152.448 384.762C148.972 384.762 146.153 381.941 146.153 378.459C146.153 374.978 148.972 372.157 152.448 372.157C155.924 372.157 158.743 374.978 158.743 378.459Z" stroke="#DDE6F1" stroke-width="1.05185"/>
<path fill-rule="evenodd" clip-rule="evenodd" d="M152.448 384.237C155.636 384.237 158.22 381.651 158.22 378.459C158.22 375.268 155.636 372.681 152.448 372.681C149.261 372.681 146.677 375.268 146.677 378.459C146.677 381.651 149.261 384.237 152.448 384.237Z" fill="#8EE067"/>
<path fill-rule="evenodd" clip-rule="evenodd" d="M144.074 337.981C144.074 337.4 144.545 336.929 145.126 336.929H231.337C231.918 336.929 232.389 337.4 232.389 337.981V341.454C232.389 342.035 231.918 342.505 231.337 342.505H145.126C144.545 342.505 144.074 342.035 144.074 341.454V337.981Z" fill="#C8D7E9"/>
<path opacity="0.615319" fill-rule="evenodd" clip-rule="evenodd" d="M144.074 349.134C144.074 348.553 144.545 348.082 145.126 348.082H253.416C253.997 348.082 254.467 348.553 254.467 349.134V350.376C254.467 350.957 253.997 351.428 253.416 351.428H145.126C144.545 351.428 144.074 350.957 144.074 350.376V349.134Z" fill="#C8D7E9"/>
<path fill-rule="evenodd" clip-rule="evenodd" d="M612.141 340.148C612.141 338.986 613.083 338.044 614.244 338.044H666.337C667.499 338.044 668.441 338.986 668.441 340.148V358.247C668.441 359.409 667.499 360.351 666.337 360.351H614.244C613.083 360.351 612.141 359.409 612.141 358.247V340.148Z" fill="url(#paint9_linear)"/>
<defs>
<filter id="filter0_f" x="0.555893" y="0.559311" width="679.457" height="532.033" filterUnits="userSpaceOnUse" color-interpolation-filters="sRGB">
<feFlood flood-opacity="0" result="BackgroundImageFix"/>
<feBlend mode="normal" in="SourceGraphic" in2="BackgroundImageFix" result="shape"/>
<feGaussianBlur stdDeviation="14.2962" result="effect1_foregroundBlur"/>
</filter>
<filter id="filter1_f" x="110.739" y="298.916" width="598.656" height="132.824" filterUnits="userSpaceOnUse" color-interpolation-filters="sRGB">
<feFlood flood-opacity="0" result="BackgroundImageFix"/>
<feBlend mode="normal" in="SourceGraphic" in2="BackgroundImageFix" result="shape"/>
<feGaussianBlur stdDeviation="14.2962" result="effect1_foregroundBlur"/>
</filter>
<linearGradient id="paint0_linear" x1="10.404" y1="29.1516" x2="10.404" y2="532.607" gradientUnits="userSpaceOnUse">
<stop stop-color="#525981" stop-opacity="0.222883"/>
<stop offset="0.90098" stop-color="#2D324F" stop-opacity="0.222883"/>
<stop offset="1" stop-color="#292D4A" stop-opacity="0.0996377"/>
</linearGradient>
<linearGradient id="paint1_linear" x1="26" y1="480.376" x2="656.702" y2="480.376" gradientUnits="userSpaceOnUse">
<stop stop-color="white"/>
<stop offset="0.0202749" stop-color="#F9FBFB"/>
<stop offset="0.0457175" stop-color="white"/>
<stop offset="0.946132" stop-color="white"/>
<stop offset="0.976303" stop-color="#FCFDFD"/>
<stop offset="1" stop-color="white"/>
</linearGradient>
<linearGradient id="paint2_linear" x1="126.214" y1="80.7723" x2="103.384" y2="109.112" gradientUnits="userSpaceOnUse">
<stop stop-color="#FF7272"/>
<stop offset="1" stop-color="#FFBE3E"/>
</linearGradient>
<linearGradient id="paint3_linear" x1="601.501" y1="213.244" x2="591.639" y2="245.684" gradientUnits="userSpaceOnUse">
<stop stop-color="#C2F1A1"/>
<stop offset="1" stop-color="#8EE067"/>
</linearGradient>
<linearGradient id="paint4_linear" x1="601.501" y1="144.092" x2="591.639" y2="176.532" gradientUnits="userSpaceOnUse">
<stop stop-color="#C2F1A1"/>
<stop offset="1" stop-color="#8EE067"/>
</linearGradient>
<linearGradient id="paint5_linear" x1="601.501" y1="282.396" x2="591.639" y2="314.837" gradientUnits="userSpaceOnUse">
<stop stop-color="#C2F1A1"/>
<stop offset="1" stop-color="#8EE067"/>
</linearGradient>
<linearGradient id="paint6_linear" x1="601.501" y1="420.7" x2="591.639" y2="453.141" gradientUnits="userSpaceOnUse">
<stop stop-color="#C2F1A1"/>
<stop offset="1" stop-color="#8EE067"/>
</linearGradient>
<linearGradient id="paint7_linear" x1="579.014" y1="40.7078" x2="579.014" y2="62.7693" gradientUnits="userSpaceOnUse">
<stop stop-color="#00E2C8"/>
<stop offset="1" stop-color="#327FF6"/>
</linearGradient>
<linearGradient id="paint8_linear" x1="123.021" y1="327.508" x2="123.021" y2="407.704" gradientUnits="userSpaceOnUse">
<stop stop-color="#525981" stop-opacity="0.222883"/>
<stop offset="0.90098" stop-color="#2D324F" stop-opacity="0.222883"/>
<stop offset="1" stop-color="#292D4A" stop-opacity="0.0996377"/>
</linearGradient>
<linearGradient id="paint9_linear" x1="635.081" y1="329.486" x2="625.219" y2="361.927" gradientUnits="userSpaceOnUse">
<stop stop-color="#C2F1A1"/>
<stop offset="1" stop-color="#8EE067"/>
</linearGradient>
</defs>
</svg>
