<svg width="285" height="244" viewBox="0 0 285 244" fill="none" xmlns="http://www.w3.org/2000/svg">
<g opacity="0.818105">
<g filter="url(#filter0_f)">
<path fill-rule="evenodd" clip-rule="evenodd" d="M52.8815 52.3459L64.2505 51.5493L223.94 51.5493L231.783 53.2961L234.802 56.4371L236.206 97.275C236.206 97.275 231.51 99.6308 229.767 99.9133C228.024 100.196 217.214 102.742 217.214 102.742H65.7795C65.7795 102.742 54.2422 101.711 51.5909 100.825C48.9396 99.9381 47.5317 96.2345 47.5317 96.2345V56.4371L52.8815 52.3459Z" fill="url(#paint0_linear)"/>
</g>
<path fill-rule="evenodd" clip-rule="evenodd" d="M47 54.1736C47 51.4122 49.2386 49.1736 52 49.1736H235.46C238.221 49.1736 240.46 51.4122 240.46 54.1736V87.1281C240.46 89.8895 238.221 92.1281 235.46 92.1281H52C49.2386 92.1281 47 89.8895 47 87.1281V54.1736Z" fill="white"/>
<path fill-rule="evenodd" clip-rule="evenodd" d="M64.8527 75.7324C67.6463 75.7324 69.911 73.4573 69.911 70.6509C69.911 67.8444 67.6463 65.5693 64.8527 65.5693C62.0591 65.5693 59.7944 67.8444 59.7944 70.6509C59.7944 73.4573 62.0591 75.7324 64.8527 75.7324Z" fill="url(#paint1_linear)"/>
<path fill-rule="evenodd" clip-rule="evenodd" d="M220.786 68.4365C220.786 67.8842 221.234 67.4365 221.786 67.4365H227.042C227.594 67.4365 228.042 67.8842 228.042 68.4365V73.6104C228.042 74.1627 227.594 74.6104 227.042 74.6104H221.786C221.234 74.6104 220.786 74.1627 220.786 73.6104V68.4365Z" fill="url(#paint2_linear)"/>
<path fill-rule="evenodd" clip-rule="evenodd" d="M72.7295 66.3291C73.7155 66.3291 74.5148 65.5262 74.5148 64.5357C74.5148 63.5452 73.7155 62.7422 72.7295 62.7422C71.7435 62.7422 70.9442 63.5452 70.9442 64.5357C70.9442 65.5262 71.7435 66.3291 72.7295 66.3291Z" fill="url(#paint3_linear)"/>
<path fill-rule="evenodd" clip-rule="evenodd" d="M80.4974 62.5524C80.4974 62.0001 80.9452 61.5524 81.4974 61.5524H118.906C119.459 61.5524 119.906 62.0001 119.906 62.5524V63.4945C119.906 64.0467 119.458 64.4945 118.906 64.4945H81.4974C80.9451 64.4945 80.4974 64.0467 80.4974 63.4945V62.5524Z" fill="#C8D7E9"/>
<path fill-rule="evenodd" clip-rule="evenodd" d="M122.252 62.5524C122.252 62.0001 122.7 61.5524 123.252 61.5524H129.697C130.249 61.5524 130.697 62.0001 130.697 62.5524V63.4945C130.697 64.0467 130.249 64.4945 129.697 64.4945H123.252C122.7 64.4945 122.252 64.0467 122.252 63.4945V62.5524Z" fill="#C8D7E9"/>
<path opacity="0.615319" fill-rule="evenodd" clip-rule="evenodd" d="M80.4974 69.496C80.4974 69.0086 80.8926 68.6134 81.3801 68.6134H167.346C167.834 68.6134 168.229 69.0086 168.229 69.496C168.229 69.9835 167.834 70.3787 167.346 70.3787H81.3801C80.8926 70.3787 80.4974 69.9835 80.4974 69.496Z" fill="#C8D7E9"/>
<path opacity="0.615319" fill-rule="evenodd" clip-rule="evenodd" d="M80.4974 73.0265C80.4974 72.5391 80.8926 72.1439 81.3801 72.1439H167.346C167.834 72.1439 168.229 72.5391 168.229 73.0265C168.229 73.514 167.834 73.9092 167.346 73.9092H81.3801C80.8926 73.9092 80.4974 73.514 80.4974 73.0265Z" fill="#C8D7E9"/>
<rect opacity="0.615319" x="80.4974" y="75.6744" width="65.6813" height="1.76525" rx="0.882627" fill="#C8D7E9"/>
<path opacity="0.615319" fill-rule="evenodd" clip-rule="evenodd" d="M80.4974 80.0876C80.4974 79.6001 80.8926 79.205 81.3801 79.205H128.876C129.363 79.205 129.758 79.6001 129.758 80.0876C129.758 80.575 129.363 80.9702 128.876 80.9702H81.3801C80.8926 80.9702 80.4974 80.575 80.4974 80.0876Z" fill="#C8D7E9"/>
</g>
<g filter="url(#filter1_f)">
<path fill-rule="evenodd" clip-rule="evenodd" d="M33.9944 28.3459L47.5115 27.5493H242.517L251.842 29.2961L255.431 32.4371L257.101 73.275C257.101 73.275 251.517 75.6308 249.445 75.9133C247.373 76.1958 234.52 78.7417 234.52 78.7417H49.3294C49.3294 78.7417 35.6123 77.7112 32.46 76.8246C29.3077 75.9381 27.6339 72.2345 27.6339 72.2345V32.4371L33.9944 28.3459Z" fill="url(#paint4_linear)"/>
</g>
<path fill-rule="evenodd" clip-rule="evenodd" d="M32 28.1736C32 25.4122 34.2386 23.1736 37 23.1736H252C254.761 23.1736 257 25.4122 257 28.1736V61.1281C257 63.8895 254.761 66.1281 252 66.1281H37C34.2386 66.1281 32 63.8895 32 61.1281V28.1736Z" fill="white"/>
<path fill-rule="evenodd" clip-rule="evenodd" d="M32 30.1736C32 27.4122 34.2386 25.1736 37 25.1736H252C254.761 25.1736 257 27.4122 257 30.1736V63.1281C257 65.8895 254.761 68.1281 252 68.1281H37C34.2386 68.1281 32 65.8895 32 63.1281V30.1736Z" fill="url(#paint5_linear)"/>
<path fill-rule="evenodd" clip-rule="evenodd" d="M69.8542 36.6146C69.8542 36.0623 70.302 35.6146 70.8542 35.6146H113.64C114.192 35.6146 114.64 36.0623 114.64 36.6146V37.5567C114.64 38.109 114.192 38.5567 113.64 38.5567H70.8542C70.302 38.5567 69.8542 38.109 69.8542 37.5567V36.6146Z" fill="#C8D7E9"/>
<path fill-rule="evenodd" clip-rule="evenodd" d="M117.305 36.6146C117.305 36.0623 117.753 35.6146 118.305 35.6146H125.902C126.454 35.6146 126.902 36.0623 126.902 36.6146V37.5567C126.902 38.109 126.454 38.5567 125.902 38.5567H118.305C117.753 38.5567 117.305 38.109 117.305 37.5567V36.6146Z" fill="#C8D7E9"/>
<path opacity="0.615319" fill-rule="evenodd" clip-rule="evenodd" d="M69.8542 46.6917C69.8542 46.2042 70.2494 45.8091 70.7369 45.8091H168.672C169.16 45.8091 169.555 46.2042 169.555 46.6917C169.555 47.1792 169.16 47.5743 168.672 47.5743H70.7369C70.2494 47.5743 69.8542 47.1792 69.8542 46.6917Z" fill="#C8D7E9"/>
<path opacity="0.615319" fill-rule="evenodd" clip-rule="evenodd" d="M69.8542 50.2222C69.8542 49.7348 70.2494 49.3396 70.7369 49.3396H168.672C169.16 49.3396 169.555 49.7348 169.555 50.2222C169.555 50.7097 169.16 51.1049 168.672 51.1049H70.7369C70.2494 51.1049 69.8542 50.7097 69.8542 50.2222Z" fill="#C8D7E9"/>
<path opacity="0.615319" fill-rule="evenodd" clip-rule="evenodd" d="M69.8542 53.7527C69.8542 53.2653 70.2494 52.8701 70.7369 52.8701H143.614C144.101 52.8701 144.496 53.2653 144.496 53.7527C144.496 54.2402 144.101 54.6354 143.614 54.6354H70.7369C70.2494 54.6354 69.8542 54.2402 69.8542 53.7527Z" fill="#C8D7E9"/>
<path opacity="0.615319" fill-rule="evenodd" clip-rule="evenodd" d="M69.8542 57.2833C69.8542 56.7958 70.2494 56.4006 70.7369 56.4006H124.953C125.441 56.4006 125.836 56.7958 125.836 57.2833C125.836 57.7707 125.441 58.1659 124.953 58.1659H70.7369C70.2494 58.1659 69.8542 57.7707 69.8542 57.2833Z" fill="#C8D7E9"/>
<path fill-rule="evenodd" clip-rule="evenodd" d="M222.703 42.8903C222.703 42.338 223.15 41.8903 223.703 41.8903H231.226C231.779 41.8903 232.226 42.338 232.226 42.8903V50.4555C232.226 51.0078 231.779 51.4555 231.226 51.4555H223.703C223.15 51.4555 222.703 51.0078 222.703 50.4555V42.8903Z" fill="url(#paint6_linear)"/>
<path fill-rule="evenodd" clip-rule="evenodd" d="M52.8333 53.2269C56.4494 53.2269 59.3809 50.2827 59.3809 46.6508C59.3809 43.0189 56.4494 40.0747 52.8333 40.0747C49.2171 40.0747 46.2856 43.0189 46.2856 46.6508C46.2856 50.2827 49.2171 53.2269 52.8333 53.2269Z" fill="url(#paint7_linear)"/>
<g opacity="0.5">
<path fill-rule="evenodd" clip-rule="evenodd" d="M203.662 174.419C205.161 173.553 205.634 171.565 204.718 169.977C203.802 168.39 201.843 167.806 200.344 168.671C198.844 169.537 198.372 171.525 199.288 173.112C200.204 174.7 202.163 175.284 203.662 174.419Z" fill="url(#paint8_linear)"/>
<path fill-rule="evenodd" clip-rule="evenodd" d="M169.221 134.722C169.228 134.667 169.237 134.613 169.25 134.559C169.43 133.822 170.956 128.143 175.905 125.307C181.2 122.273 186.844 124.464 186.85 124.467C186.85 124.467 186.85 124.467 186.851 124.467C194.767 127.542 197.605 138.547 205.393 145.355C210.264 149.613 214.769 151.72 217.46 152.702C218.331 153.019 218.507 154.353 217.705 154.816L179.599 176.817C178.753 177.305 177.566 176.33 177.776 175.375C178.41 172.485 178.952 167.578 177.788 160.901C175.83 149.669 168.247 142.532 169.221 134.722Z" fill="url(#paint9_linear)"/>
</g>
<g opacity="0.5">
<path fill-rule="evenodd" clip-rule="evenodd" d="M80.2717 174.419C81.7711 175.284 83.7295 174.7 84.6458 173.113C85.5621 171.525 85.0894 169.537 83.59 168.671C82.0905 167.806 80.1322 168.39 79.2159 169.978C78.2995 171.565 78.7723 173.553 80.2717 174.419Z" fill="url(#paint10_linear)"/>
<path fill-rule="evenodd" clip-rule="evenodd" d="M97.4295 124.744C97.4807 124.722 97.5318 124.703 97.5852 124.688C98.3138 124.475 103.995 122.957 108.925 125.824C114.2 128.893 115.124 134.877 115.125 134.883C115.125 134.884 115.125 134.883 115.126 134.884C116.421 143.277 108.309 151.237 106.307 161.385C105.055 167.734 105.483 172.689 105.978 175.51C106.139 176.422 105.072 177.242 104.269 176.779L66.1636 154.779C65.3175 154.29 65.5689 152.775 66.5001 152.479C69.3207 151.583 73.8406 149.599 79.0414 145.252C87.7898 137.941 90.1793 127.805 97.4295 124.744Z" fill="url(#paint11_linear)"/>
</g>
<g filter="url(#filter2_f)">
<path fill-rule="evenodd" clip-rule="evenodd" d="M148.223 131.024C152.307 132.648 154.681 135.47 154.684 135.474L154.684 135.474C158.42 139.917 158.797 146.02 159.201 152.58C159.505 157.492 159.824 162.661 161.581 167.58C164.262 175.085 167.959 179.971 170.201 182.457C170.829 183.153 170.324 184.419 169.386 184.419H114.213C113.225 184.419 112.701 182.96 113.396 182.258C115.845 179.785 119.655 175.029 122.663 167.182C124.887 161.381 125.299 155.764 125.672 150.672C126.108 144.731 126.49 139.506 129.639 135.54C129.674 135.496 129.71 135.455 129.75 135.415C130.104 135.059 132.062 133.171 135.074 131.703C135.603 128.474 138.378 126.012 141.722 126.012C144.827 126.012 147.442 128.135 148.223 131.024ZM141.887 205C144.014 205 145.739 203.257 145.739 201.106C145.739 198.956 144.014 197.212 141.887 197.212C139.76 197.212 138.036 198.956 138.036 201.106C138.036 203.257 139.76 205 141.887 205Z" fill="url(#paint12_linear)"/>
</g>
<path fill-rule="evenodd" clip-rule="evenodd" d="M141.887 205C144.014 205 145.739 203.257 145.739 201.106C145.739 198.956 144.014 197.212 141.887 197.212C139.76 197.212 138.036 198.956 138.036 201.106C138.036 203.257 139.76 205 141.887 205Z" fill="url(#paint13_linear)"/>
<path fill-rule="evenodd" clip-rule="evenodd" d="M141.722 139.641C145.444 139.641 148.462 136.59 148.462 132.827C148.462 129.063 145.444 126.012 141.722 126.012C138 126.012 134.982 129.063 134.982 132.827C134.982 136.59 138 139.641 141.722 139.641Z" fill="url(#paint14_linear)"/>
<path fill-rule="evenodd" clip-rule="evenodd" d="M129.639 135.54C129.674 135.496 129.71 135.455 129.75 135.415C130.345 134.817 135.476 129.885 142.523 129.906C150.021 129.93 154.679 135.469 154.684 135.474C154.684 135.474 154.684 135.474 154.684 135.474C161.217 143.244 157.477 156.092 161.581 167.58C164.262 175.085 167.959 179.971 170.201 182.457C170.828 183.153 170.324 184.419 169.386 184.419H114.213C113.225 184.419 112.701 182.96 113.396 182.258C115.845 179.785 119.655 175.029 122.663 167.182C127.482 154.613 123.792 142.905 129.639 135.54Z" fill="url(#paint15_linear)"/>
<g opacity="0.2">
<path opacity="0.2" fill-rule="evenodd" clip-rule="evenodd" d="M66.4473 172.155C67.3694 171.907 67.9192 170.969 67.6754 170.059C67.4315 169.149 66.4864 168.612 65.5643 168.859C64.6422 169.106 64.0923 170.044 64.3362 170.954C64.58 171.864 65.5252 172.402 66.4473 172.155Z" fill="white"/>
<path fill-rule="evenodd" clip-rule="evenodd" d="M66.3001 171.605C66.9149 171.441 67.2814 170.815 67.1189 170.209C66.9563 169.602 66.3262 169.244 65.7115 169.408C65.0967 169.573 64.7302 170.198 64.8927 170.805C65.0553 171.412 65.6854 171.77 66.3001 171.605Z" fill="white"/>
</g>
<g opacity="0.3">
<path opacity="0.2" fill-rule="evenodd" clip-rule="evenodd" d="M73.6636 179.051C74.5857 178.804 75.1355 177.866 74.8917 176.956C74.6479 176.046 73.7027 175.508 72.7806 175.756C71.8585 176.003 71.3086 176.941 71.5525 177.851C71.7963 178.761 72.7415 179.298 73.6636 179.051Z" fill="white"/>
<path fill-rule="evenodd" clip-rule="evenodd" d="M73.5164 178.502C74.1312 178.337 74.4977 177.712 74.3352 177.105C74.1726 176.498 73.5425 176.14 72.9278 176.305C72.313 176.469 71.9465 177.095 72.109 177.701C72.2716 178.308 72.9017 178.666 73.5164 178.502Z" fill="white"/>
</g>
<g opacity="0.4">
<path opacity="0.2" fill-rule="evenodd" clip-rule="evenodd" d="M80.995 184.151C81.9171 183.903 82.4669 182.965 82.2231 182.055C81.9793 181.145 81.0341 180.608 80.112 180.855C79.1899 181.102 78.64 182.04 78.8839 182.95C79.1277 183.86 80.0729 184.398 80.995 184.151Z" fill="white"/>
<path fill-rule="evenodd" clip-rule="evenodd" d="M80.8479 183.601C81.4626 183.437 81.8292 182.811 81.6666 182.205C81.504 181.598 80.8739 181.24 80.2592 181.404C79.6445 181.569 79.2779 182.194 79.4405 182.801C79.603 183.408 80.2331 183.766 80.8479 183.601Z" fill="white"/>
</g>
<g opacity="0.5">
<path opacity="0.2" fill-rule="evenodd" clip-rule="evenodd" d="M88.4735 189.799C89.3956 189.552 89.9455 188.614 89.7016 187.704C89.4578 186.794 88.5126 186.257 87.5905 186.504C86.6684 186.751 86.1186 187.689 86.3624 188.599C86.6062 189.509 87.5514 190.046 88.4735 189.799Z" fill="white"/>
<path fill-rule="evenodd" clip-rule="evenodd" d="M88.3264 189.25C88.9411 189.085 89.3077 188.46 89.1451 187.853C88.9826 187.247 88.3524 186.888 87.7377 187.053C87.123 187.218 86.7564 187.843 86.919 188.45C87.0815 189.057 87.7116 189.415 88.3264 189.25Z" fill="white"/>
</g>
<g opacity="0.6">
<path opacity="0.2" fill-rule="evenodd" clip-rule="evenodd" d="M97.7367 193.204C98.6588 192.957 99.2086 192.019 98.9648 191.109C98.721 190.199 97.7758 189.662 96.8537 189.909C95.9316 190.156 95.3817 191.094 95.6256 192.004C95.8694 192.914 96.8146 193.451 97.7367 193.204Z" fill="white"/>
<path fill-rule="evenodd" clip-rule="evenodd" d="M97.5896 192.655C98.2043 192.49 98.5709 191.865 98.4083 191.258C98.2457 190.651 97.6156 190.293 97.0009 190.458C96.3862 190.623 96.0196 191.248 96.1822 191.855C96.3447 192.461 96.9748 192.82 97.5896 192.655Z" fill="white"/>
</g>
<g opacity="0.7">
<path opacity="0.2" fill-rule="evenodd" clip-rule="evenodd" d="M107 196.609C107.922 196.361 108.472 195.423 108.228 194.513C107.984 193.603 107.039 193.066 106.117 193.313C105.195 193.56 104.645 194.498 104.889 195.408C105.133 196.318 106.078 196.856 107 196.609Z" fill="white"/>
<path fill-rule="evenodd" clip-rule="evenodd" d="M106.853 196.059C107.467 195.895 107.834 195.269 107.671 194.663C107.509 194.056 106.879 193.698 106.264 193.862C105.649 194.027 105.283 194.652 105.445 195.259C105.608 195.866 106.238 196.224 106.853 196.059Z" fill="white"/>
</g>
<g opacity="0.9">
<path opacity="0.2" fill-rule="evenodd" clip-rule="evenodd" d="M117.082 198.616C118.004 198.369 118.554 197.431 118.31 196.521C118.066 195.611 117.121 195.074 116.199 195.321C115.277 195.568 114.727 196.506 114.971 197.416C115.215 198.326 116.16 198.864 117.082 198.616Z" fill="white"/>
<path fill-rule="evenodd" clip-rule="evenodd" d="M116.935 198.067C117.55 197.903 117.916 197.277 117.754 196.671C117.591 196.064 116.961 195.706 116.346 195.87C115.731 196.035 115.365 196.66 115.527 197.267C115.69 197.874 116.32 198.232 116.935 198.067Z" fill="white"/>
</g>
<g opacity="0.9">
<path opacity="0.2" fill-rule="evenodd" clip-rule="evenodd" d="M126.607 200.773C127.529 200.526 128.079 199.588 127.835 198.678C127.592 197.768 126.646 197.231 125.724 197.478C124.802 197.725 124.252 198.663 124.496 199.573C124.74 200.483 125.685 201.021 126.607 200.773Z" fill="white"/>
<path fill-rule="evenodd" clip-rule="evenodd" d="M126.46 200.224C127.075 200.06 127.441 199.434 127.279 198.828C127.116 198.221 126.486 197.863 125.871 198.027C125.257 198.192 124.89 198.817 125.053 199.424C125.215 200.031 125.845 200.389 126.46 200.224Z" fill="white"/>
</g>
<g opacity="0.2">
<path opacity="0.2" fill-rule="evenodd" clip-rule="evenodd" d="M215.813 171.969C214.883 171.755 214.301 170.836 214.513 169.919C214.725 169.001 215.651 168.43 216.581 168.645C217.511 168.86 218.093 169.778 217.881 170.696C217.669 171.614 216.744 172.184 215.813 171.969Z" fill="white"/>
<path fill-rule="evenodd" clip-rule="evenodd" d="M215.941 171.415C215.321 171.272 214.933 170.66 215.074 170.048C215.216 169.436 215.833 169.056 216.453 169.199C217.073 169.342 217.461 169.955 217.32 170.567C217.179 171.179 216.561 171.559 215.941 171.415Z" fill="white"/>
</g>
<g opacity="0.3">
<path opacity="0.2" fill-rule="evenodd" clip-rule="evenodd" d="M208.842 179.113C207.912 178.899 207.33 177.981 207.542 177.063C207.754 176.145 208.679 175.575 209.61 175.789C210.54 176.004 211.122 176.922 210.91 177.84C210.698 178.758 209.772 179.328 208.842 179.113Z" fill="white"/>
<path fill-rule="evenodd" clip-rule="evenodd" d="M208.97 178.559C208.35 178.416 207.962 177.804 208.103 177.192C208.244 176.58 208.862 176.2 209.482 176.343C210.102 176.486 210.49 177.099 210.349 177.711C210.207 178.323 209.59 178.703 208.97 178.559Z" fill="white"/>
</g>
<g opacity="0.4">
<path opacity="0.2" fill-rule="evenodd" clip-rule="evenodd" d="M201.693 184.466C200.763 184.251 200.181 183.333 200.393 182.415C200.605 181.497 201.53 180.927 202.461 181.142C203.391 181.356 203.973 182.275 203.761 183.193C203.549 184.11 202.623 184.681 201.693 184.466Z" fill="white"/>
<path fill-rule="evenodd" clip-rule="evenodd" d="M201.821 183.912C201.201 183.769 200.813 183.156 200.954 182.544C201.095 181.932 201.713 181.552 202.333 181.696C202.953 181.839 203.341 182.451 203.2 183.063C203.058 183.675 202.441 184.055 201.821 183.912Z" fill="white"/>
</g>
<g opacity="0.5">
<path opacity="0.2" fill-rule="evenodd" clip-rule="evenodd" d="M194.416 190.372C193.486 190.157 192.904 189.239 193.116 188.321C193.328 187.403 194.254 186.833 195.184 187.048C196.114 187.263 196.696 188.181 196.484 189.099C196.272 190.017 195.346 190.587 194.416 190.372Z" fill="white"/>
<path fill-rule="evenodd" clip-rule="evenodd" d="M194.544 189.818C193.924 189.675 193.536 189.063 193.677 188.451C193.819 187.839 194.436 187.459 195.056 187.602C195.676 187.745 196.064 188.357 195.923 188.969C195.782 189.581 195.164 189.961 194.544 189.818Z" fill="white"/>
</g>
<g opacity="0.6">
<path opacity="0.2" fill-rule="evenodd" clip-rule="evenodd" d="M185.278 194.098C184.347 193.883 183.765 192.965 183.977 192.047C184.189 191.129 185.115 190.559 186.045 190.774C186.975 190.989 187.557 191.907 187.346 192.825C187.134 193.743 186.208 194.313 185.278 194.098Z" fill="white"/>
<path fill-rule="evenodd" clip-rule="evenodd" d="M185.405 193.544C184.785 193.401 184.397 192.789 184.538 192.177C184.68 191.565 185.297 191.185 185.917 191.328C186.537 191.471 186.925 192.083 186.784 192.695C186.643 193.307 186.026 193.687 185.405 193.544Z" fill="white"/>
</g>
<g opacity="0.7">
<path opacity="0.2" fill-rule="evenodd" clip-rule="evenodd" d="M176.139 197.824C175.209 197.609 174.626 196.691 174.838 195.773C175.05 194.855 175.976 194.285 176.906 194.5C177.836 194.714 178.419 195.633 178.207 196.551C177.995 197.468 177.069 198.039 176.139 197.824Z" fill="white"/>
<path fill-rule="evenodd" clip-rule="evenodd" d="M176.267 197.27C175.647 197.127 175.258 196.514 175.4 195.902C175.541 195.291 176.158 194.91 176.778 195.054C177.398 195.197 177.787 195.809 177.645 196.421C177.504 197.033 176.887 197.413 176.267 197.27Z" fill="white"/>
</g>
<g opacity="0.9">
<path opacity="0.2" fill-rule="evenodd" clip-rule="evenodd" d="M166.133 200.182C165.203 199.968 164.621 199.049 164.833 198.131C165.044 197.213 165.97 196.643 166.901 196.858C167.831 197.073 168.413 197.991 168.201 198.909C167.989 199.827 167.063 200.397 166.133 200.182Z" fill="white"/>
<path fill-rule="evenodd" clip-rule="evenodd" d="M166.261 199.628C165.641 199.485 165.253 198.873 165.394 198.261C165.535 197.649 166.152 197.269 166.773 197.412C167.393 197.555 167.781 198.167 167.64 198.779C167.498 199.391 166.881 199.771 166.261 199.628Z" fill="white"/>
</g>
<g opacity="0.9">
<path opacity="0.2" fill-rule="evenodd" clip-rule="evenodd" d="M156.689 202.67C155.759 202.456 155.176 201.538 155.388 200.62C155.6 199.702 156.526 199.132 157.456 199.346C158.386 199.561 158.969 200.479 158.757 201.397C158.545 202.315 157.619 202.885 156.689 202.67Z" fill="white"/>
<path fill-rule="evenodd" clip-rule="evenodd" d="M156.817 202.116C156.197 201.973 155.808 201.361 155.95 200.749C156.091 200.137 156.708 199.757 157.328 199.9C157.948 200.043 158.337 200.656 158.195 201.268C158.054 201.88 157.437 202.26 156.817 202.116Z" fill="white"/>
</g>
<defs>
<filter id="filter0_f" x="20.3489" y="24.3665" width="243.04" height="105.558" filterUnits="userSpaceOnUse" color-interpolation-filters="sRGB">
<feFlood flood-opacity="0" result="BackgroundImageFix"/>
<feBlend mode="normal" in="SourceGraphic" in2="BackgroundImageFix" result="shape"/>
<feGaussianBlur stdDeviation="13.5914" result="effect1_foregroundBlur"/>
</filter>
<filter id="filter1_f" x="0.451094" y="0.366499" width="283.832" height="105.558" filterUnits="userSpaceOnUse" color-interpolation-filters="sRGB">
<feFlood flood-opacity="0" result="BackgroundImageFix"/>
<feBlend mode="normal" in="SourceGraphic" in2="BackgroundImageFix" result="shape"/>
<feGaussianBlur stdDeviation="13.5914" result="effect1_foregroundBlur"/>
</filter>
<filter id="filter2_f" x="85.8958" y="98.8296" width="111.766" height="133.353" filterUnits="userSpaceOnUse" color-interpolation-filters="sRGB">
<feFlood flood-opacity="0" result="BackgroundImageFix"/>
<feBlend mode="normal" in="SourceGraphic" in2="BackgroundImageFix" result="shape"/>
<feGaussianBlur stdDeviation="13.5914" result="effect1_foregroundBlur"/>
</filter>
<linearGradient id="paint0_linear" x1="46.3535" y1="53.5602" x2="46.3535" y2="105.392" gradientUnits="userSpaceOnUse">
<stop stop-color="#480067" stop-opacity="0.222883"/>
<stop offset="0.826943" stop-color="#5A0065" stop-opacity="0.222883"/>
<stop offset="1" stop-color="#5F006C" stop-opacity="0.0996377"/>
</linearGradient>
<linearGradient id="paint1_linear" x1="59.1632" y1="64.7227" x2="59.1632" y2="74.458" gradientUnits="userSpaceOnUse">
<stop stop-color="#FFC5B1"/>
<stop offset="1" stop-color="#FF5782"/>
</linearGradient>
<linearGradient id="paint2_linear" x1="228.042" y1="74.6104" x2="228.042" y2="67.4365" gradientUnits="userSpaceOnUse">
<stop stop-color="#737BFF"/>
<stop offset="1" stop-color="#00B2F4"/>
</linearGradient>
<linearGradient id="paint3_linear" x1="70.7214" y1="62.4434" x2="70.7214" y2="65.8794" gradientUnits="userSpaceOnUse">
<stop stop-color="#FFC5B1"/>
<stop offset="1" stop-color="#FF5782"/>
</linearGradient>
<linearGradient id="paint4_linear" x1="26.201" y1="29.5602" x2="26.201" y2="81.3919" gradientUnits="userSpaceOnUse">
<stop stop-color="#480067" stop-opacity="0.222883"/>
<stop offset="0.826943" stop-color="#5A0065" stop-opacity="0.222883"/>
<stop offset="1" stop-color="#5F006C" stop-opacity="0.0996377"/>
</linearGradient>
<linearGradient id="paint5_linear" x1="340.684" y1="67.1874" x2="340.684" y2="22.0742" gradientUnits="userSpaceOnUse">
<stop stop-color="white"/>
<stop offset="1" stop-color="#EBF2FA"/>
</linearGradient>
<linearGradient id="paint6_linear" x1="232.226" y1="51.4555" x2="232.226" y2="41.8903" gradientUnits="userSpaceOnUse">
<stop stop-color="#737BFF"/>
<stop offset="1" stop-color="#00B2F4"/>
</linearGradient>
<linearGradient id="paint7_linear" x1="45.4685" y1="38.9791" x2="45.4685" y2="51.5777" gradientUnits="userSpaceOnUse">
<stop stop-color="#FFC5B1"/>
<stop offset="1" stop-color="#FF5782"/>
</linearGradient>
<linearGradient id="paint8_linear" x1="197.629" y1="170.239" x2="200.947" y2="175.986" gradientUnits="userSpaceOnUse">
<stop stop-color="#00E2C8"/>
<stop offset="1" stop-color="#327FF6"/>
</linearGradient>
<linearGradient id="paint9_linear" x1="220.51" y1="151.629" x2="194.946" y2="112.743" gradientUnits="userSpaceOnUse">
<stop stop-color="#00E2C8"/>
<stop offset="1" stop-color="#327FF6" stop-opacity="0.01"/>
</linearGradient>
<linearGradient id="paint10_linear" x1="80.875" y1="167.104" x2="77.5567" y2="172.851" gradientUnits="userSpaceOnUse">
<stop stop-color="#00E2C8"/>
<stop offset="1" stop-color="#327FF6"/>
</linearGradient>
<linearGradient id="paint11_linear" x1="108.433" y1="177.615" x2="129.326" y2="136.033" gradientUnits="userSpaceOnUse">
<stop stop-color="#00E2C8"/>
<stop offset="1" stop-color="#327FF6" stop-opacity="0.01"/>
</linearGradient>
<linearGradient id="paint12_linear" x1="112.72" y1="129.115" x2="112.72" y2="209.089" gradientUnits="userSpaceOnUse">
<stop stop-color="#480067" stop-opacity="0.222883"/>
<stop offset="0.826943" stop-color="#5A0065" stop-opacity="0.222883"/>
<stop offset="1" stop-color="#5F006C" stop-opacity="0.0996377"/>
</linearGradient>
<linearGradient id="paint13_linear" x1="136.689" y1="197.212" x2="136.689" y2="207.723" gradientUnits="userSpaceOnUse">
<stop stop-color="#00E2C8"/>
<stop offset="1" stop-color="#327FF6"/>
</linearGradient>
<linearGradient id="paint14_linear" x1="132.626" y1="126.012" x2="132.626" y2="144.406" gradientUnits="userSpaceOnUse">
<stop stop-color="#00E2C8"/>
<stop offset="1" stop-color="#327FF6"/>
</linearGradient>
<linearGradient id="paint15_linear" x1="102.946" y1="129.906" x2="102.946" y2="203.48" gradientUnits="userSpaceOnUse">
<stop stop-color="#00E2C8"/>
<stop offset="1" stop-color="#327FF6"/>
</linearGradient>
</defs>
</svg>
