<svg width="206" height="147" viewBox="0 0 206 147" fill="none" xmlns="http://www.w3.org/2000/svg">
<path opacity="0.5" fill-rule="evenodd" clip-rule="evenodd" d="M67.9747 10C67.9747 4.47716 72.4518 0 77.9747 0H129.676C135.198 0 139.675 4.47715 139.675 10V49.1094C139.675 54.6323 135.198 59.1094 129.675 59.1094H77.9747C72.4518 59.1094 67.9747 54.6323 67.9747 49.1094V10Z" fill="url(#paint0_linear)"/>
<path fill-rule="evenodd" clip-rule="evenodd" d="M61.6898 20C61.6898 14.4771 66.1669 10 71.6898 10H135.96C141.483 10 145.96 14.4772 145.96 20V105.66C145.96 111.182 141.483 115.66 135.96 115.66H71.6898C66.1669 115.66 61.6898 111.182 61.6898 105.66V20Z" fill="url(#paint1_linear)"/>
<path fill-rule="evenodd" clip-rule="evenodd" d="M69.5447 23.6494C69.5447 23.0971 69.9924 22.6494 70.5447 22.6494H93.3302C93.8825 22.6494 94.3302 23.0971 94.3302 23.6494V39.5074C94.3302 40.0596 93.8825 40.5074 93.3302 40.5074H70.5447C69.9924 40.5074 69.5447 40.0596 69.5447 39.5074V23.6494Z" fill="#EE5C7C"/>
<path fill-rule="evenodd" clip-rule="evenodd" d="M99.9954 23.6494C99.9954 23.0971 100.443 22.6494 100.995 22.6494H136.528C137.08 22.6494 137.528 23.0971 137.528 23.6494V30.5784C137.528 31.1307 137.08 31.5784 136.528 31.5784H100.995C100.443 31.5784 99.9954 31.1307 99.9954 30.5784V23.6494Z" fill="#EE5C7C"/>
<path fill-rule="evenodd" clip-rule="evenodd" d="M99.9954 37.0429C99.9954 36.4906 100.443 36.0429 100.995 36.0429H136.528C137.08 36.0429 137.528 36.4906 137.528 37.0429V38.7633C137.528 39.3156 137.08 39.7633 136.528 39.7633H100.995C100.443 39.7633 99.9954 39.3156 99.9954 38.7633V37.0429Z" fill="#EE5C7C"/>
<path fill-rule="evenodd" clip-rule="evenodd" d="M69.5447 48.2041C69.5447 47.6518 69.9924 47.2041 70.5447 47.2041H136.528C137.08 47.2041 137.528 47.6518 137.528 48.2041V49.9245C137.528 50.4768 137.08 50.9245 136.528 50.9245H70.5447C69.9924 50.9245 69.5447 50.4768 69.5447 49.9245V48.2041Z" fill="#EE5C7C"/>
<path fill-rule="evenodd" clip-rule="evenodd" d="M69.5447 56.389C69.5447 55.8367 69.9924 55.389 70.5447 55.389H136.528C137.08 55.389 137.528 55.8367 137.528 56.389V58.1094C137.528 58.6617 137.08 59.1094 136.528 59.1094H70.5447C69.9924 59.1094 69.5447 58.6617 69.5447 58.1094V56.389Z" fill="#EE5C7C"/>
<path fill-rule="evenodd" clip-rule="evenodd" d="M69.5447 64.5739C69.5447 64.0216 69.9924 63.5739 70.5447 63.5739H136.528C137.08 63.5739 137.528 64.0216 137.528 64.5739V66.2943C137.528 66.8466 137.08 67.2943 136.528 67.2943H70.5447C69.9924 67.2943 69.5447 66.8466 69.5447 66.2943V64.5739Z" fill="#EE5C7C"/>
<path fill-rule="evenodd" clip-rule="evenodd" d="M69.5447 72.7588C69.5447 72.2065 69.9924 71.7588 70.5447 71.7588H136.528C137.08 71.7588 137.528 72.2065 137.528 72.7588V74.4792C137.528 75.0315 137.08 75.4792 136.528 75.4792H70.5447C69.9924 75.4792 69.5447 75.0315 69.5447 74.4792V72.7588Z" fill="#EE5C7C"/>
<path fill-rule="evenodd" clip-rule="evenodd" d="M69.5447 80.9437C69.5447 80.3914 69.9924 79.9437 70.5447 79.9437H136.528C137.08 79.9437 137.528 80.3914 137.528 80.9437V82.6641C137.528 83.2164 137.08 83.6641 136.528 83.6641H70.5447C69.9924 83.6641 69.5447 83.2164 69.5447 82.6641V80.9437Z" fill="#EE5C7C"/>
<path fill-rule="evenodd" clip-rule="evenodd" d="M69.5447 89.1286C69.5447 88.5763 69.9924 88.1286 70.5447 88.1286H136.528C137.08 88.1286 137.528 88.5763 137.528 89.1286V90.849C137.528 91.4013 137.08 91.849 136.528 91.849H70.5447C69.9924 91.849 69.5447 91.4013 69.5447 90.849V89.1286Z" fill="#EE5C7C"/>
<path fill-rule="evenodd" clip-rule="evenodd" d="M69.5447 97.3135C69.5447 96.7612 69.9924 96.3135 70.5447 96.3135H136.528C137.08 96.3135 137.528 96.7612 137.528 97.3135V99.0339C137.528 99.5862 137.08 100.034 136.528 100.034H70.5447C69.9924 100.034 69.5447 99.5862 69.5447 99.0339V97.3135Z" fill="#EE5C7C"/>
<path fill-rule="evenodd" clip-rule="evenodd" d="M70.2528 104.754C70.2528 104.202 70.7005 103.754 71.2528 103.754H118.116C118.668 103.754 119.116 104.202 119.116 104.754V106.475C119.116 107.027 118.668 107.475 118.116 107.475H71.2528C70.7005 107.475 70.2528 107.027 70.2528 106.475V104.754Z" fill="#EE5C7C"/>
<path opacity="0.498302" fill-rule="evenodd" clip-rule="evenodd" d="M103.627 132.281C114.129 132.281 122.642 123.935 122.642 113.641C122.642 103.346 114.129 95 103.627 95C93.126 95 84.613 103.346 84.613 113.641C84.613 123.935 93.126 132.281 103.627 132.281Z" fill="white"/>
<path fill-rule="evenodd" clip-rule="evenodd" d="M103.689 130.023C112.884 130.023 120.338 122.715 120.338 113.701C120.338 104.687 112.884 97.3797 103.689 97.3797C94.4943 97.3797 87.0403 104.687 87.0403 113.701C87.0403 122.715 94.4943 130.023 103.689 130.023Z" fill="white"/>
<path fill-rule="evenodd" clip-rule="evenodd" d="M102.995 117.829L110.296 108.356C110.466 108.135 110.764 108.108 110.963 108.295L111.468 108.768L111.472 108.771C111.671 108.962 111.694 109.298 111.523 109.521L103.419 120.077L103.41 120.089C103.233 120.306 102.932 120.322 102.737 120.124L102.232 119.611C102.165 119.543 102.119 119.458 102.095 119.367L97.0188 113.7C96.8329 113.492 96.8329 113.156 97.0188 112.948L97.484 112.429C97.6699 112.222 97.9713 112.222 98.1572 112.429L102.995 117.829Z" fill="url(#paint2_linear)"/>
<g opacity="0.6">
<path opacity="0.2" fill-rule="evenodd" clip-rule="evenodd" d="M72.3918 113.999C73.2669 113.999 73.9763 113.276 73.9763 112.385C73.9763 111.493 73.2669 110.77 72.3918 110.77C71.5167 110.77 70.8073 111.493 70.8073 112.385C70.8073 113.276 71.5167 113.999 72.3918 113.999Z" fill="white"/>
<path fill-rule="evenodd" clip-rule="evenodd" d="M72.3918 113.461C72.9752 113.461 73.4482 112.979 73.4482 112.385C73.4482 111.79 72.9752 111.308 72.3918 111.308C71.8084 111.308 71.3354 111.79 71.3354 112.385C71.3354 112.979 71.8084 113.461 72.3918 113.461Z" fill="white"/>
</g>
<g opacity="0.9">
<path opacity="0.2" fill-rule="evenodd" clip-rule="evenodd" d="M89.7472 143.098C90.6223 143.098 91.3317 142.375 91.3317 141.483C91.3317 140.591 90.6223 139.868 89.7472 139.868C88.8721 139.868 88.1627 140.591 88.1627 141.483C88.1627 142.375 88.8721 143.098 89.7472 143.098Z" fill="white"/>
<path fill-rule="evenodd" clip-rule="evenodd" d="M89.7472 142.56C90.3306 142.56 90.8036 142.078 90.8036 141.483C90.8036 140.889 90.3306 140.407 89.7472 140.407C89.1638 140.407 88.6909 140.889 88.6909 141.483C88.6909 142.078 89.1638 142.56 89.7472 142.56Z" fill="white"/>
</g>
<g opacity="0.5">
<path opacity="0.2" fill-rule="evenodd" clip-rule="evenodd" d="M75.4545 102.345C76.3296 102.345 77.0391 101.622 77.0391 100.73C77.0391 99.8382 76.3296 99.1152 75.4545 99.1152C74.5794 99.1152 73.87 99.8382 73.87 100.73C73.87 101.622 74.5794 102.345 75.4545 102.345Z" fill="white"/>
<path fill-rule="evenodd" clip-rule="evenodd" d="M75.4546 101.807C76.038 101.807 76.5109 101.325 76.5109 100.73C76.5109 100.136 76.038 99.6535 75.4546 99.6535C74.8711 99.6535 74.3982 100.136 74.3982 100.73C74.3982 101.325 74.8711 101.807 75.4546 101.807Z" fill="white"/>
</g>
<g opacity="0.8">
<path opacity="0.2" fill-rule="evenodd" clip-rule="evenodd" d="M79.5381 135.966C80.4133 135.966 81.1227 135.243 81.1227 134.351C81.1227 133.459 80.4133 132.736 79.5381 132.736C78.663 132.736 77.9536 133.459 77.9536 134.351C77.9536 135.243 78.663 135.966 79.5381 135.966Z" fill="white"/>
<path fill-rule="evenodd" clip-rule="evenodd" d="M79.5382 135.428C80.1216 135.428 80.5945 134.946 80.5945 134.351C80.5945 133.757 80.1216 133.275 79.5382 133.275C78.9548 133.275 78.4818 133.757 78.4818 134.351C78.4818 134.946 78.9548 135.428 79.5382 135.428Z" fill="white"/>
</g>
<g opacity="0.3">
<path opacity="0.2" fill-rule="evenodd" clip-rule="evenodd" d="M90.7681 87.0627C91.6432 87.0627 92.3527 86.3397 92.3527 85.4478C92.3527 84.5559 91.6432 83.8328 90.7681 83.8328C89.893 83.8328 89.1836 84.5559 89.1836 85.4478C89.1836 86.3397 89.893 87.0627 90.7681 87.0627Z" fill="white"/>
<path fill-rule="evenodd" clip-rule="evenodd" d="M90.7681 86.5244C91.3516 86.5244 91.8245 86.0424 91.8245 85.4478C91.8245 84.8532 91.3516 84.3711 90.7681 84.3711C90.1847 84.3711 89.7118 84.8532 89.7118 85.4478C89.7118 86.0424 90.1847 86.5244 90.7681 86.5244Z" fill="white"/>
</g>
<path opacity="0.2" fill-rule="evenodd" clip-rule="evenodd" d="M103.019 85.0251C103.894 85.0251 104.604 84.302 104.604 83.4101C104.604 82.5182 103.894 81.7952 103.019 81.7952C102.144 81.7952 101.434 82.5182 101.434 83.4101C101.434 84.302 102.144 85.0251 103.019 85.0251Z" fill="white"/>
<path fill-rule="evenodd" clip-rule="evenodd" d="M103.019 84.4868C103.602 84.4868 104.075 84.0047 104.075 83.4101C104.075 82.8155 103.602 82.3335 103.019 82.3335C102.436 82.3335 101.963 82.8155 101.963 83.4101C101.963 84.0047 102.436 84.4868 103.019 84.4868Z" fill="white"/>
<path opacity="0.2" fill-rule="evenodd" clip-rule="evenodd" d="M103.019 146.155C103.894 146.155 104.604 145.432 104.604 144.54C104.604 143.648 103.894 142.925 103.019 142.925C102.144 142.925 101.434 143.648 101.434 144.54C101.434 145.432 102.144 146.155 103.019 146.155Z" fill="white"/>
<path fill-rule="evenodd" clip-rule="evenodd" d="M103.019 145.616C103.602 145.616 104.075 145.134 104.075 144.54C104.075 143.945 103.602 143.463 103.019 143.463C102.436 143.463 101.963 143.945 101.963 144.54C101.963 145.134 102.436 145.616 103.019 145.616Z" fill="white"/>
<g opacity="0.4">
<path opacity="0.2" fill-rule="evenodd" clip-rule="evenodd" d="M81.58 94.1945C82.4551 94.1945 83.1645 93.4715 83.1645 92.5796C83.1645 91.6877 82.4551 90.9646 81.58 90.9646C80.7048 90.9646 79.9954 91.6877 79.9954 92.5796C79.9954 93.4715 80.7048 94.1945 81.58 94.1945Z" fill="white"/>
<path fill-rule="evenodd" clip-rule="evenodd" d="M81.58 93.6562C82.1634 93.6562 82.6363 93.1742 82.6363 92.5796C82.6363 91.985 82.1634 91.5029 81.58 91.5029C80.9966 91.5029 80.5236 91.985 80.5236 92.5796C80.5236 93.1742 80.9966 93.6562 81.58 93.6562Z" fill="white"/>
</g>
<g opacity="0.7">
<path opacity="0.2" fill-rule="evenodd" clip-rule="evenodd" d="M74.4336 125.778C75.3087 125.778 76.0181 125.055 76.0181 124.163C76.0181 123.271 75.3087 122.548 74.4336 122.548C73.5585 122.548 72.8491 123.271 72.8491 124.163C72.8491 125.055 73.5585 125.778 74.4336 125.778Z" fill="white"/>
<path fill-rule="evenodd" clip-rule="evenodd" d="M74.4336 125.24C75.017 125.24 75.49 124.758 75.49 124.163C75.49 123.569 75.017 123.087 74.4336 123.087C73.8502 123.087 73.3773 123.569 73.3773 124.163C73.3773 124.758 73.8502 125.24 74.4336 125.24Z" fill="white"/>
</g>
<g opacity="0.7">
<path opacity="0.2" fill-rule="evenodd" clip-rule="evenodd" d="M134.598 114.098C133.718 114.098 133.004 113.381 133.004 112.496C133.004 111.611 133.718 110.893 134.598 110.893C135.479 110.893 136.193 111.611 136.193 112.496C136.193 113.381 135.479 114.098 134.598 114.098Z" fill="white"/>
<path fill-rule="evenodd" clip-rule="evenodd" d="M134.598 113.564C134.011 113.564 133.535 113.086 133.535 112.496C133.535 111.906 134.011 111.427 134.598 111.427C135.185 111.427 135.661 111.906 135.661 112.496C135.661 113.086 135.185 113.564 134.598 113.564Z" fill="white"/>
</g>
<g opacity="0.295233">
<path opacity="0.2" fill-rule="evenodd" clip-rule="evenodd" d="M117.133 142.981C116.252 142.981 115.538 142.263 115.538 141.378C115.538 140.493 116.252 139.776 117.133 139.776C118.013 139.776 118.727 140.493 118.727 141.378C118.727 142.263 118.013 142.981 117.133 142.981Z" fill="white"/>
<path fill-rule="evenodd" clip-rule="evenodd" d="M117.133 142.446C116.546 142.446 116.07 141.968 116.07 141.378C116.07 140.788 116.546 140.31 117.133 140.31C117.72 140.31 118.196 140.788 118.196 141.378C118.196 141.968 117.72 142.446 117.133 142.446Z" fill="white"/>
</g>
<g opacity="0.9">
<path opacity="0.2" fill-rule="evenodd" clip-rule="evenodd" d="M131.516 102.548C130.635 102.548 129.921 101.83 129.921 100.945C129.921 100.06 130.635 99.3431 131.516 99.3431C132.397 99.3431 133.111 100.06 133.111 100.945C133.111 101.83 132.397 102.548 131.516 102.548Z" fill="white"/>
<path fill-rule="evenodd" clip-rule="evenodd" d="M131.516 102.013C130.929 102.013 130.453 101.535 130.453 100.945C130.453 100.355 130.929 99.8772 131.516 99.8772C132.103 99.8772 132.579 100.355 132.579 100.945C132.579 101.535 132.103 102.013 131.516 102.013Z" fill="white"/>
</g>
<g opacity="0.4">
<path opacity="0.2" fill-rule="evenodd" clip-rule="evenodd" d="M127.407 135.905C126.526 135.905 125.812 135.187 125.812 134.302C125.812 133.418 126.526 132.7 127.407 132.7C128.287 132.7 129.001 133.418 129.001 134.302C129.001 135.187 128.287 135.905 127.407 135.905Z" fill="white"/>
<path fill-rule="evenodd" clip-rule="evenodd" d="M127.407 135.371C126.819 135.371 126.343 134.892 126.343 134.302C126.343 133.713 126.819 133.234 127.407 133.234C127.994 133.234 128.47 133.713 128.47 134.302C128.47 134.892 127.994 135.371 127.407 135.371Z" fill="white"/>
</g>
<path opacity="0.2" fill-rule="evenodd" clip-rule="evenodd" d="M116.105 87.3852C115.225 87.3852 114.511 86.6679 114.511 85.783C114.511 84.8981 115.225 84.1807 116.105 84.1807C116.986 84.1807 117.7 84.8981 117.7 85.783C117.7 86.6679 116.986 87.3852 116.105 87.3852Z" fill="white"/>
<path fill-rule="evenodd" clip-rule="evenodd" d="M116.105 86.8512C115.518 86.8512 115.042 86.3729 115.042 85.783C115.042 85.1931 115.518 84.7148 116.105 84.7148C116.692 84.7148 117.168 85.1931 117.168 85.783C117.168 86.3729 116.692 86.8512 116.105 86.8512Z" fill="white"/>
<g opacity="0.9">
<path opacity="0.2" fill-rule="evenodd" clip-rule="evenodd" d="M125.352 94.461C124.471 94.461 123.757 93.7436 123.757 92.8587C123.757 91.9738 124.471 91.2565 125.352 91.2565C126.232 91.2565 126.946 91.9738 126.946 92.8587C126.946 93.7436 126.232 94.461 125.352 94.461Z" fill="white"/>
<path fill-rule="evenodd" clip-rule="evenodd" d="M125.352 93.9269C124.765 93.9269 124.289 93.4487 124.289 92.8587C124.289 92.2688 124.765 91.7906 125.352 91.7906C125.939 91.7906 126.415 92.2688 126.415 92.8587C126.415 93.4487 125.939 93.9269 125.352 93.9269Z" fill="white"/>
</g>
<g opacity="0.5">
<path opacity="0.2" fill-rule="evenodd" clip-rule="evenodd" d="M132.543 125.797C131.663 125.797 130.949 125.079 130.949 124.194C130.949 123.309 131.663 122.592 132.543 122.592C133.424 122.592 134.138 123.309 134.138 124.194C134.138 125.079 133.424 125.797 132.543 125.797Z" fill="white"/>
<path fill-rule="evenodd" clip-rule="evenodd" d="M132.543 125.262C131.956 125.262 131.48 124.784 131.48 124.194C131.48 123.604 131.956 123.126 132.543 123.126C133.131 123.126 133.607 123.604 133.607 124.194C133.607 124.784 133.131 125.262 132.543 125.262Z" fill="white"/>
</g>
<path fill-rule="evenodd" clip-rule="evenodd" d="M46.4389 126.333C44.6403 126.928 42.899 127.45 41.2366 127.896C40.0396 128.217 39.1396 128.506 38.4748 128.762C38.8786 129.685 37.8469 130.081 37.2301 130.048C36.6133 130.015 36.4114 129.554 38.4748 128.762C38.2024 128.139 37.2768 127.277 35.13 126.145C24.3064 120.437 15.7554 110.305 12.3019 97.4159C5.87901 73.4453 19.4925 48.9153 42.7717 42.2075C23.6972 51.5183 13.3219 73.6396 19.1282 95.3091C22.0264 106.125 28.4724 115.023 36.8357 121.04C39.8177 123.185 43.0434 124.964 46.4389 126.333Z" fill="url(#paint3_linear)"/>
<path fill-rule="evenodd" clip-rule="evenodd" d="M52.4707 133.095L40.7887 107.799L38.6846 124.131L24.61 132.712L52.4707 133.095Z" fill="url(#paint4_linear)"/>
<path fill-rule="evenodd" clip-rule="evenodd" d="M159.561 126.333C161.36 126.928 163.101 127.45 164.764 127.896C165.96 128.217 166.86 128.506 167.525 128.762C167.121 129.685 168.153 130.081 168.77 130.048C169.387 130.015 169.589 129.554 167.525 128.762C167.798 128.139 168.723 127.277 170.87 126.145C181.694 120.437 190.245 110.305 193.698 97.4159C200.121 73.4453 186.508 48.9153 163.228 42.2075C182.303 51.5183 192.678 73.6396 186.872 95.3091C183.974 106.125 177.528 115.023 169.164 121.04C166.182 123.185 162.957 124.964 159.561 126.333Z" fill="url(#paint5_linear)"/>
<path fill-rule="evenodd" clip-rule="evenodd" d="M153.529 133.095L165.211 107.799L167.315 124.131L181.39 132.712L153.529 133.095Z" fill="url(#paint6_linear)"/>
<defs>
<linearGradient id="paint0_linear" x1="58.9452" y1="-12.4347" x2="58.9452" y2="51.6974" gradientUnits="userSpaceOnUse">
<stop stop-color="#FFC5B1"/>
<stop offset="1" stop-color="#FF5782"/>
</linearGradient>
<linearGradient id="paint1_linear" x1="49.5783" y1="-2.73743" x2="49.5783" y2="115.66" gradientUnits="userSpaceOnUse">
<stop stop-color="#FFC5B1"/>
<stop offset="1" stop-color="#FF5782"/>
</linearGradient>
<linearGradient id="paint2_linear" x1="93.8228" y1="114.217" x2="102.206" y2="124.449" gradientUnits="userSpaceOnUse">
<stop stop-color="#9CE9CA"/>
<stop offset="1" stop-color="#00CED9"/>
</linearGradient>
<linearGradient id="paint3_linear" x1="62.5526" y1="116.031" x2="23.7154" y2="126.437" gradientUnits="userSpaceOnUse">
<stop stop-color="#737BFF" stop-opacity="0.01"/>
<stop offset="0.165396" stop-color="#5E86FD" stop-opacity="0.216717"/>
<stop offset="0.525839" stop-color="#3999F9" stop-opacity="0.589833"/>
<stop offset="0.846565" stop-color="#0AADF5" stop-opacity="0.925499"/>
<stop offset="1" stop-color="#00B2F4"/>
</linearGradient>
<linearGradient id="paint4_linear" x1="31.8502" y1="105.959" x2="47.6357" y2="117.515" gradientUnits="userSpaceOnUse">
<stop stop-color="#737BFF" stop-opacity="0.01"/>
<stop offset="0.165396" stop-color="#5E86FD" stop-opacity="0.216717"/>
<stop offset="0.525839" stop-color="#3999F9" stop-opacity="0.589833"/>
<stop offset="0.846565" stop-color="#0AADF5" stop-opacity="0.925499"/>
<stop offset="1" stop-color="#00B2F4"/>
</linearGradient>
<linearGradient id="paint5_linear" x1="143.447" y1="116.031" x2="182.285" y2="126.437" gradientUnits="userSpaceOnUse">
<stop stop-color="#737BFF" stop-opacity="0.01"/>
<stop offset="0.165396" stop-color="#5E86FD" stop-opacity="0.216717"/>
<stop offset="0.525839" stop-color="#3999F9" stop-opacity="0.589833"/>
<stop offset="0.846565" stop-color="#0AADF5" stop-opacity="0.925499"/>
<stop offset="1" stop-color="#00B2F4"/>
</linearGradient>
<linearGradient id="paint6_linear" x1="174.15" y1="105.959" x2="158.364" y2="117.515" gradientUnits="userSpaceOnUse">
<stop stop-color="#737BFF" stop-opacity="0.01"/>
<stop offset="0.165396" stop-color="#5E86FD" stop-opacity="0.216717"/>
<stop offset="0.525839" stop-color="#3999F9" stop-opacity="0.589833"/>
<stop offset="0.846565" stop-color="#0AADF5" stop-opacity="0.925499"/>
<stop offset="1" stop-color="#00B2F4"/>
</linearGradient>
</defs>
</svg>
