<svg width="265" height="241" viewBox="0 0 265 241" fill="none" xmlns="http://www.w3.org/2000/svg">
<g filter="url(#filter0_f)">
<path fill-rule="evenodd" clip-rule="evenodd" d="M75.0002 98.9751L58.8335 114.641C57.7356 115.705 57.2173 117.146 57.3146 118.555V207.973C57.3146 210.734 59.5532 212.973 62.3146 212.973H199.315C202.076 212.973 204.315 210.734 204.315 207.973V118.768C204.326 118.574 204.326 118.379 204.315 118.185V118L204.301 118.01C204.191 116.87 203.68 115.765 202.797 114.909L186.629 99.2418V38C186.629 32.4772 182.152 28 176.629 28H169.815H91.8146H85.0002C79.4773 28 75.0002 32.4772 75.0002 38V98.9751Z" fill="url(#paint0_linear)"/>
</g>
<path fill-rule="evenodd" clip-rule="evenodd" d="M125.831 48.3933C127.77 46.5142 130.851 46.5142 132.79 48.3933L201.43 114.909C203.202 116.626 203.476 119.345 202.019 121.335C191.721 135.402 152.167 187.779 134.091 187.779C116.044 187.779 69.4395 135.564 57.1301 121.401C55.4048 119.416 55.5782 116.472 57.467 114.641L125.831 48.3933Z" fill="url(#paint1_linear)"/>
<path opacity="0.5" fill-rule="evenodd" clip-rule="evenodd" d="M80.4481 36C80.4481 30.4772 84.9252 26 90.4481 26H168.448C173.971 26 178.448 30.4772 178.448 36V132.941C178.448 138.464 173.971 142.941 168.448 142.941H90.4481C84.9252 142.941 80.4481 138.464 80.4481 132.941V36Z" fill="url(#paint2_linear)"/>
<path opacity="0.636945" fill-rule="evenodd" clip-rule="evenodd" d="M80.4481 38C80.4481 32.4772 84.9252 28 90.4481 28H168.448C173.971 28 178.448 32.4772 178.448 38V134.941C178.448 140.464 173.971 144.941 168.448 144.941H90.4481C84.9252 144.941 80.4481 140.464 80.4481 134.941V38Z" fill="url(#paint3_linear)"/>
<rect x="73.6337" y="41" width="111.629" height="133.204" rx="10" fill="url(#paint4_linear)"/>
<rect x="73.6337" y="43" width="111.629" height="133.204" rx="10" fill="url(#paint5_linear)"/>
<path fill-rule="evenodd" clip-rule="evenodd" d="M84.0386 59.947C84.0386 59.3947 84.4864 58.947 85.0386 58.947H115.871C116.423 58.947 116.871 59.3947 116.871 59.947V80.4604C116.871 81.0127 116.423 81.4604 115.871 81.4604H85.0386C84.4864 81.4604 84.0386 81.0127 84.0386 80.4604V59.947Z" fill="#EE5C7C"/>
<rect x="124.375" y="58.947" width="49.717" height="11.2567" rx="1" fill="#EE5C7C"/>
<path fill-rule="evenodd" clip-rule="evenodd" d="M124.375 76.832C124.375 76.2797 124.823 75.832 125.375 75.832H173.092C173.644 75.832 174.092 76.2797 174.092 76.832V79.5223C174.092 80.0746 173.644 80.5223 173.092 80.5223H125.375C124.823 80.5223 124.375 80.0746 124.375 79.5223V76.832Z" fill="#EE5C7C"/>
<rect x="84.0386" y="89.9028" width="90.0535" height="4.69029" rx="1" fill="#EE5C7C"/>
<path fill-rule="evenodd" clip-rule="evenodd" d="M84.0386 101.221C84.0386 100.669 84.4864 100.221 85.0386 100.221H173.092C173.644 100.221 174.092 100.669 174.092 101.221V103.912C174.092 104.464 173.644 104.912 173.092 104.912H85.0386C84.4864 104.912 84.0386 104.464 84.0386 103.912V101.221Z" fill="#EE5C7C"/>
<path fill-rule="evenodd" clip-rule="evenodd" d="M84.0386 111.54C84.0386 110.988 84.4864 110.54 85.0386 110.54H173.092C173.644 110.54 174.092 110.988 174.092 111.54V114.23C174.092 114.783 173.644 115.23 173.092 115.23H85.0386C84.4864 115.23 84.0386 114.783 84.0386 114.23V111.54Z" fill="#EE5C7C"/>
<rect x="84.0386" y="120.859" width="90.0535" height="4.69029" rx="1" fill="#EE5C7C"/>
<path fill-rule="evenodd" clip-rule="evenodd" d="M84.0386 132.177C84.0386 131.625 84.4864 131.177 85.0386 131.177H173.092C173.644 131.177 174.092 131.625 174.092 132.177V134.868C174.092 135.42 173.644 135.868 173.092 135.868H85.0386C84.4864 135.868 84.0386 135.42 84.0386 134.868V132.177Z" fill="#EE5C7C"/>
<path fill-rule="evenodd" clip-rule="evenodd" d="M84.0386 142.496C84.0386 141.944 84.4864 141.496 85.0386 141.496H173.092C173.644 141.496 174.092 141.944 174.092 142.496V145.186C174.092 145.739 173.644 146.186 173.092 146.186H85.0386C84.4864 146.186 84.0386 145.739 84.0386 145.186V142.496Z" fill="#EE5C7C"/>
<path fill-rule="evenodd" clip-rule="evenodd" d="M84.0386 152.815C84.0386 152.262 84.4864 151.815 85.0386 151.815H173.092C173.644 151.815 174.092 152.262 174.092 152.815V155.505C174.092 156.057 173.644 156.505 173.092 156.505H85.0386C84.4864 156.505 84.0386 156.057 84.0386 155.505V152.815Z" fill="#EE5C7C"/>
<path fill-rule="evenodd" clip-rule="evenodd" d="M84.9767 162.195C84.9767 161.643 85.4244 161.195 85.9767 161.195H148.703C149.255 161.195 149.703 161.643 149.703 162.195V164.885C149.703 165.438 149.255 165.885 148.703 165.885H85.9767C85.4244 165.885 84.9767 165.438 84.9767 164.885V162.195Z" fill="#EE5C7C"/>
<path fill-rule="evenodd" clip-rule="evenodd" d="M56 118L129.5 171.101L203 118V207.973C203 210.734 200.761 212.973 198 212.973H61C58.2386 212.973 56 210.734 56 207.973V118Z" fill="url(#paint6_linear)"/>
<path fill-rule="evenodd" clip-rule="evenodd" d="M129.5 128L202.083 207.815C203.834 209.741 202.471 212.83 199.868 212.834L59.3094 213.028C55.8087 213.033 53.9911 208.856 56.3804 206.298L129.5 128Z" fill="url(#paint7_linear)"/>
<g opacity="0.522135" filter="url(#filter1_f)">
<path fill-rule="evenodd" clip-rule="evenodd" d="M102.29 133.914L105.032 133.073H152.149L154.04 134.919L154.768 138.238L155.107 181.401C155.107 181.401 153.974 183.891 153.554 184.19C153.134 184.488 150.527 187.179 150.527 187.179H105.4C105.4 187.179 102.618 186.09 101.979 185.153C101.339 184.216 101 180.302 101 180.302V138.238L102.29 133.914Z" fill="url(#paint8_linear)"/>
</g>
<path opacity="0.309726" fill-rule="evenodd" clip-rule="evenodd" d="M129.053 187.107C146.756 187.107 161.107 172.756 161.107 155.053C161.107 137.351 146.756 123 129.053 123C111.351 123 97 137.351 97 155.053C97 172.756 111.351 187.107 129.053 187.107Z" fill="white"/>
<path fill-rule="evenodd" clip-rule="evenodd" d="M129.053 182.107C143.994 182.107 156.107 169.994 156.107 155.053C156.107 140.112 143.994 128 129.053 128C114.112 128 102 140.112 102 155.053C102 169.994 114.112 182.107 129.053 182.107Z" fill="white"/>
<path fill-rule="evenodd" clip-rule="evenodd" d="M116.456 151.397C116.847 151.007 117.48 151.007 117.871 151.397L129.608 163.135C129.999 163.525 129.999 164.158 129.608 164.549L128.631 165.526C128.24 165.917 127.607 165.917 127.217 165.526L115.479 153.789C115.089 153.398 115.089 152.765 115.479 152.374L116.456 151.397Z" fill="url(#paint9_linear)"/>
<path fill-rule="evenodd" clip-rule="evenodd" d="M144.77 143.618C144.351 143.267 143.726 143.317 143.369 143.732L126.345 163.519C125.991 163.929 126.029 164.546 126.43 164.911L127.491 165.877C127.908 166.256 128.557 166.216 128.924 165.788L145.946 145.924C146.308 145.502 146.256 144.865 145.83 144.508L144.77 143.618Z" fill="url(#paint10_linear)"/>
<g opacity="0.2">
<path opacity="0.2" fill-rule="evenodd" clip-rule="evenodd" d="M1.55209 196.83C2.40928 196.83 3.10417 197.539 3.10417 198.415C3.10417 199.29 2.40928 200 1.55209 200C0.694893 200 0 199.29 0 198.415C0 197.539 0.694893 196.83 1.55209 196.83Z" fill="white"/>
<path fill-rule="evenodd" clip-rule="evenodd" d="M1.55206 197.358C2.12352 197.358 2.58678 197.831 2.58678 198.415C2.58678 198.999 2.12352 199.472 1.55206 199.472C0.980596 199.472 0.517334 198.999 0.517334 198.415C0.517334 197.831 0.980596 197.358 1.55206 197.358Z" fill="white"/>
</g>
<g opacity="0.3">
<path opacity="0.2" fill-rule="evenodd" clip-rule="evenodd" d="M6.20834 188.904C7.06553 188.904 7.76042 189.614 7.76042 190.489C7.76042 191.365 7.06553 192.074 6.20834 192.074C5.35114 192.074 4.65625 191.365 4.65625 190.489C4.65625 189.614 5.35114 188.904 6.20834 188.904Z" fill="white"/>
<path fill-rule="evenodd" clip-rule="evenodd" d="M6.20831 189.433C6.77977 189.433 7.24303 189.906 7.24303 190.489C7.24303 191.073 6.77977 191.546 6.20831 191.546C5.63685 191.546 5.17358 191.073 5.17358 190.489C5.17358 189.906 5.63685 189.433 6.20831 189.433Z" fill="white"/>
</g>
<g opacity="0.4">
<path opacity="0.2" fill-rule="evenodd" clip-rule="evenodd" d="M11.382 182.564C12.2392 182.564 12.9341 183.273 12.9341 184.149C12.9341 185.024 12.2392 185.734 11.382 185.734C10.5248 185.734 9.8299 185.024 9.8299 184.149C9.8299 183.273 10.5248 182.564 11.382 182.564Z" fill="white"/>
<path fill-rule="evenodd" clip-rule="evenodd" d="M11.382 183.092C11.9534 183.092 12.4167 183.565 12.4167 184.149C12.4167 184.733 11.9534 185.206 11.382 185.206C10.8105 185.206 10.3472 184.733 10.3472 184.149C10.3472 183.565 10.8105 183.092 11.382 183.092Z" fill="white"/>
</g>
<g opacity="0.5">
<path opacity="0.2" fill-rule="evenodd" clip-rule="evenodd" d="M16.5556 175.695C17.4128 175.695 18.1077 176.405 18.1077 177.28C18.1077 178.156 17.4128 178.865 16.5556 178.865C15.6984 178.865 15.0035 178.156 15.0035 177.28C15.0035 176.405 15.6984 175.695 16.5556 175.695Z" fill="white"/>
<path fill-rule="evenodd" clip-rule="evenodd" d="M16.5555 176.223C17.127 176.223 17.5903 176.697 17.5903 177.28C17.5903 177.864 17.127 178.337 16.5555 178.337C15.9841 178.337 15.5208 177.864 15.5208 177.28C15.5208 176.697 15.9841 176.223 16.5555 176.223Z" fill="white"/>
</g>
<g opacity="0.6">
<path opacity="0.2" fill-rule="evenodd" clip-rule="evenodd" d="M23.7987 170.411C24.6559 170.411 25.3508 171.121 25.3508 171.996C25.3508 172.872 24.6559 173.582 23.7987 173.582C22.9415 173.582 22.2466 172.872 22.2466 171.996C22.2466 171.121 22.9415 170.411 23.7987 170.411Z" fill="white"/>
<path fill-rule="evenodd" clip-rule="evenodd" d="M23.7986 170.94C24.3701 170.94 24.8334 171.413 24.8334 171.996C24.8334 172.58 24.3701 173.053 23.7986 173.053C23.2272 173.053 22.7639 172.58 22.7639 171.996C22.7639 171.413 23.2272 170.94 23.7986 170.94Z" fill="white"/>
</g>
<g opacity="0.7">
<path opacity="0.2" fill-rule="evenodd" clip-rule="evenodd" d="M31.0417 165.128C31.8989 165.128 32.5938 165.837 32.5938 166.713C32.5938 167.588 31.8989 168.298 31.0417 168.298C30.1845 168.298 29.4896 167.588 29.4896 166.713C29.4896 165.837 30.1845 165.128 31.0417 165.128Z" fill="white"/>
<path fill-rule="evenodd" clip-rule="evenodd" d="M31.0417 165.656C31.6131 165.656 32.0764 166.129 32.0764 166.713C32.0764 167.296 31.6131 167.77 31.0417 167.77C30.4702 167.77 30.007 167.296 30.007 166.713C30.007 166.129 30.4702 165.656 31.0417 165.656Z" fill="white"/>
</g>
<g opacity="0.8">
<path opacity="0.2" fill-rule="evenodd" clip-rule="evenodd" d="M39.3195 160.901C40.1767 160.901 40.8716 161.61 40.8716 162.486C40.8716 163.361 40.1767 164.071 39.3195 164.071C38.4623 164.071 37.7675 163.361 37.7675 162.486C37.7675 161.61 38.4623 160.901 39.3195 160.901Z" fill="white"/>
<path fill-rule="evenodd" clip-rule="evenodd" d="M39.3195 161.429C39.891 161.429 40.3542 161.902 40.3542 162.486C40.3542 163.069 39.891 163.543 39.3195 163.543C38.7481 163.543 38.2848 163.069 38.2848 162.486C38.2848 161.902 38.7481 161.429 39.3195 161.429Z" fill="white"/>
</g>
<g opacity="0.9">
<path opacity="0.2" fill-rule="evenodd" clip-rule="evenodd" d="M47.0799 156.674C47.9371 156.674 48.632 157.383 48.632 158.259C48.632 159.134 47.9371 159.844 47.0799 159.844C46.2227 159.844 45.5278 159.134 45.5278 158.259C45.5278 157.383 46.2227 156.674 47.0799 156.674Z" fill="white"/>
<path fill-rule="evenodd" clip-rule="evenodd" d="M47.0799 157.202C47.6514 157.202 48.1146 157.675 48.1146 158.259C48.1146 158.843 47.6514 159.316 47.0799 159.316C46.5084 159.316 46.0452 158.843 46.0452 158.259C46.0452 157.675 46.5084 157.202 47.0799 157.202Z" fill="white"/>
</g>
<g opacity="0.2">
<path opacity="0.2" fill-rule="evenodd" clip-rule="evenodd" d="M263.126 196.83C262.269 196.83 261.574 197.539 261.574 198.415C261.574 199.29 262.269 200 263.126 200C263.983 200 264.678 199.29 264.678 198.415C264.678 197.539 263.983 196.83 263.126 196.83Z" fill="white"/>
<path fill-rule="evenodd" clip-rule="evenodd" d="M263.126 197.358C262.555 197.358 262.092 197.831 262.092 198.415C262.092 198.999 262.555 199.472 263.126 199.472C263.698 199.472 264.161 198.999 264.161 198.415C264.161 197.831 263.698 197.358 263.126 197.358Z" fill="white"/>
</g>
<g opacity="0.3">
<path opacity="0.2" fill-rule="evenodd" clip-rule="evenodd" d="M258.47 188.904C257.613 188.904 256.918 189.614 256.918 190.489C256.918 191.365 257.613 192.074 258.47 192.074C259.327 192.074 260.022 191.365 260.022 190.489C260.022 189.614 259.327 188.904 258.47 188.904Z" fill="white"/>
<path fill-rule="evenodd" clip-rule="evenodd" d="M258.47 189.433C257.899 189.433 257.435 189.906 257.435 190.489C257.435 191.073 257.899 191.546 258.47 191.546C259.041 191.546 259.505 191.073 259.505 190.489C259.505 189.906 259.041 189.433 258.47 189.433Z" fill="white"/>
</g>
<g opacity="0.4">
<path opacity="0.2" fill-rule="evenodd" clip-rule="evenodd" d="M253.296 182.564C252.439 182.564 251.744 183.273 251.744 184.149C251.744 185.024 252.439 185.734 253.296 185.734C254.154 185.734 254.848 185.024 254.848 184.149C254.848 183.273 254.154 182.564 253.296 182.564Z" fill="white"/>
<path fill-rule="evenodd" clip-rule="evenodd" d="M253.296 183.092C252.725 183.092 252.262 183.565 252.262 184.149C252.262 184.733 252.725 185.206 253.296 185.206C253.868 185.206 254.331 184.733 254.331 184.149C254.331 183.565 253.868 183.092 253.296 183.092Z" fill="white"/>
</g>
<g opacity="0.5">
<path opacity="0.2" fill-rule="evenodd" clip-rule="evenodd" d="M248.123 175.695C247.266 175.695 246.571 176.405 246.571 177.28C246.571 178.156 247.266 178.865 248.123 178.865C248.98 178.865 249.675 178.156 249.675 177.28C249.675 176.405 248.98 175.695 248.123 175.695Z" fill="white"/>
<path fill-rule="evenodd" clip-rule="evenodd" d="M248.123 176.223C247.551 176.223 247.088 176.697 247.088 177.28C247.088 177.864 247.551 178.337 248.123 178.337C248.694 178.337 249.157 177.864 249.157 177.28C249.157 176.697 248.694 176.223 248.123 176.223Z" fill="white"/>
</g>
<g opacity="0.6">
<path opacity="0.2" fill-rule="evenodd" clip-rule="evenodd" d="M240.88 170.411C240.022 170.411 239.328 171.121 239.328 171.996C239.328 172.872 240.022 173.582 240.88 173.582C241.737 173.582 242.432 172.872 242.432 171.996C242.432 171.121 241.737 170.411 240.88 170.411Z" fill="white"/>
<path fill-rule="evenodd" clip-rule="evenodd" d="M240.88 170.94C240.308 170.94 239.845 171.413 239.845 171.996C239.845 172.58 240.308 173.053 240.88 173.053C241.451 173.053 241.914 172.58 241.914 171.996C241.914 171.413 241.451 170.94 240.88 170.94Z" fill="white"/>
</g>
<g opacity="0.7">
<path opacity="0.2" fill-rule="evenodd" clip-rule="evenodd" d="M233.637 165.128C232.779 165.128 232.085 165.837 232.085 166.713C232.085 167.588 232.779 168.298 233.637 168.298C234.494 168.298 235.189 167.588 235.189 166.713C235.189 165.837 234.494 165.128 233.637 165.128Z" fill="white"/>
<path fill-rule="evenodd" clip-rule="evenodd" d="M233.637 165.656C233.065 165.656 232.602 166.129 232.602 166.713C232.602 167.296 233.065 167.77 233.637 167.77C234.208 167.77 234.671 167.296 234.671 166.713C234.671 166.129 234.208 165.656 233.637 165.656Z" fill="white"/>
</g>
<g opacity="0.8">
<path opacity="0.2" fill-rule="evenodd" clip-rule="evenodd" d="M225.359 160.901C224.502 160.901 223.807 161.61 223.807 162.486C223.807 163.361 224.502 164.071 225.359 164.071C226.216 164.071 226.911 163.361 226.911 162.486C226.911 161.61 226.216 160.901 225.359 160.901Z" fill="white"/>
<path fill-rule="evenodd" clip-rule="evenodd" d="M225.359 161.429C224.787 161.429 224.324 161.902 224.324 162.486C224.324 163.069 224.787 163.543 225.359 163.543C225.93 163.543 226.394 163.069 226.394 162.486C226.394 161.902 225.93 161.429 225.359 161.429Z" fill="white"/>
</g>
<g opacity="0.9">
<path opacity="0.2" fill-rule="evenodd" clip-rule="evenodd" d="M217.598 156.674C216.741 156.674 216.046 157.383 216.046 158.259C216.046 159.134 216.741 159.844 217.598 159.844C218.456 159.844 219.15 159.134 219.15 158.259C219.15 157.383 218.456 156.674 217.598 156.674Z" fill="white"/>
<path fill-rule="evenodd" clip-rule="evenodd" d="M217.598 157.202C217.027 157.202 216.564 157.675 216.564 158.259C216.564 158.843 217.027 159.316 217.598 159.316C218.17 159.316 218.633 158.843 218.633 158.259C218.633 157.675 218.17 157.202 217.598 157.202Z" fill="white"/>
</g>
<defs>
<filter id="filter0_f" x="30.1202" y="0.817183" width="201.386" height="239.338" filterUnits="userSpaceOnUse" color-interpolation-filters="sRGB">
<feFlood flood-opacity="0" result="BackgroundImageFix"/>
<feBlend mode="normal" in="SourceGraphic" in2="BackgroundImageFix" result="shape"/>
<feGaussianBlur stdDeviation="13.5914" result="effect1_foregroundBlur"/>
</filter>
<filter id="filter1_f" x="73.8172" y="105.89" width="108.472" height="108.472" filterUnits="userSpaceOnUse" color-interpolation-filters="sRGB">
<feFlood flood-opacity="0" result="BackgroundImageFix"/>
<feBlend mode="normal" in="SourceGraphic" in2="BackgroundImageFix" result="shape"/>
<feGaussianBlur stdDeviation="13.5914" result="effect1_foregroundBlur"/>
</filter>
<linearGradient id="paint0_linear" x1="56.3849" y1="35.266" x2="56.3849" y2="222.549" gradientUnits="userSpaceOnUse">
<stop stop-color="#480067" stop-opacity="0.222883"/>
<stop offset="0.826943" stop-color="#5A0065" stop-opacity="0.222883"/>
<stop offset="1" stop-color="#5F006C" stop-opacity="0.0996377"/>
</linearGradient>
<linearGradient id="paint1_linear" x1="55.9481" y1="46.9994" x2="55.9481" y2="187.779" gradientUnits="userSpaceOnUse">
<stop stop-color="#00E2C8"/>
<stop offset="1" stop-color="#327FF6"/>
</linearGradient>
<linearGradient id="paint2_linear" x1="74.3329" y1="16.2584" x2="74.3329" y2="128.277" gradientUnits="userSpaceOnUse">
<stop stop-color="#FFC5B1"/>
<stop offset="1" stop-color="#FF5782"/>
</linearGradient>
<linearGradient id="paint3_linear" x1="74.3329" y1="18.2584" x2="74.3329" y2="130.277" gradientUnits="userSpaceOnUse">
<stop stop-color="#FFC5B1"/>
<stop offset="1" stop-color="#FF5782"/>
</linearGradient>
<linearGradient id="paint4_linear" x1="66.668" y1="29.9036" x2="66.668" y2="157.501" gradientUnits="userSpaceOnUse">
<stop stop-color="#FFC5B1"/>
<stop offset="1" stop-color="#FF5782"/>
</linearGradient>
<linearGradient id="paint5_linear" x1="59.7947" y1="15.5" x2="59.7947" y2="159.501" gradientUnits="userSpaceOnUse">
<stop stop-color="#FFC5B1"/>
<stop offset="1" stop-color="#FF5782"/>
</linearGradient>
<linearGradient id="paint6_linear" x1="30.2997" y1="118" x2="30.2997" y2="246.181" gradientUnits="userSpaceOnUse">
<stop stop-color="#00E2C8"/>
<stop offset="1" stop-color="#327FF6"/>
</linearGradient>
<linearGradient id="paint7_linear" x1="69.5192" y1="170.514" x2="69.5192" y2="239.159" gradientUnits="userSpaceOnUse">
<stop stop-color="#00E2C8"/>
<stop offset="1" stop-color="#327FF6"/>
</linearGradient>
<linearGradient id="paint8_linear" x1="99.3702" y1="133.073" x2="99.3702" y2="190.439" gradientUnits="userSpaceOnUse">
<stop stop-color="#481D70" stop-opacity="0.222883"/>
<stop offset="0.826943" stop-color="#481D70" stop-opacity="0.222883"/>
<stop offset="1" stop-color="#481D70" stop-opacity="0.0996377"/>
</linearGradient>
<linearGradient id="paint9_linear" x1="114.772" y1="153.082" x2="127.924" y2="166.233" gradientUnits="userSpaceOnUse">
<stop stop-color="#9CE9CA"/>
<stop offset="1" stop-color="#00CED9"/>
</linearGradient>
<linearGradient id="paint10_linear" x1="146.596" y1="145.15" x2="128.496" y2="166.721" gradientUnits="userSpaceOnUse">
<stop stop-color="#9CE9CA"/>
<stop offset="1" stop-color="#00CED9"/>
</linearGradient>
</defs>
</svg>
